%TF.GenerationSoftware,KiCad,Pcbnew,7.0.5*%
%TF.CreationDate,2023-07-17T20:29:58+05:30*%
%TF.ProjectId,Flight_Computer,466c6967-6874-45f4-936f-6d7075746572,rev?*%
%TF.SameCoordinates,Original*%
%TF.FileFunction,Copper,L2,Inr*%
%TF.FilePolarity,Positive*%
%FSLAX46Y46*%
G04 Gerber Fmt 4.6, Leading zero omitted, Abs format (unit mm)*
G04 Created by KiCad (PCBNEW 7.0.5) date 2023-07-17 20:29:58*
%MOMM*%
%LPD*%
G01*
G04 APERTURE LIST*
%TA.AperFunction,ComponentPad*%
%ADD10C,5.600000*%
%TD*%
%TA.AperFunction,ComponentPad*%
%ADD11R,1.800000X1.800000*%
%TD*%
%TA.AperFunction,ComponentPad*%
%ADD12C,1.800000*%
%TD*%
%TA.AperFunction,ComponentPad*%
%ADD13R,1.700000X1.700000*%
%TD*%
%TA.AperFunction,ComponentPad*%
%ADD14O,1.700000X1.700000*%
%TD*%
%TA.AperFunction,ComponentPad*%
%ADD15C,1.530000*%
%TD*%
%TA.AperFunction,ViaPad*%
%ADD16C,0.800000*%
%TD*%
%TA.AperFunction,ViaPad*%
%ADD17C,0.600000*%
%TD*%
%TA.AperFunction,ViaPad*%
%ADD18C,0.450000*%
%TD*%
G04 APERTURE END LIST*
D10*
%TO.N,N/C*%
%TO.C,H2*%
X171000000Y-73000000D03*
%TD*%
D11*
%TO.N,GND*%
%TO.C,J3*%
X171000000Y-82250000D03*
D12*
%TO.N,+3V3*%
X171000000Y-78750000D03*
%TD*%
D11*
%TO.N,GND*%
%TO.C,TM1*%
X130927600Y-116702000D03*
D12*
%TO.N,/BATT*%
X130927600Y-120202000D03*
%TD*%
D11*
%TO.N,+12V*%
%TO.C,TM2*%
X130927600Y-123702000D03*
D12*
%TO.N,/BATT*%
X130927600Y-127202000D03*
%TD*%
D11*
%TO.N,/PyroTechnic_Channels/-*%
%TO.C,TM8*%
X130927600Y-137702000D03*
D12*
%TO.N,/PyroTechnic_Channels/VOUT1*%
X130927600Y-141202000D03*
%TD*%
D10*
%TO.N,N/C*%
%TO.C,H4*%
X130950000Y-150300000D03*
%TD*%
D11*
%TO.N,/PyroTechnic_Channels/-*%
%TO.C,TM3*%
X130927600Y-130702000D03*
D12*
%TO.N,/PyroTechnic_Channels/VOUT2*%
X130927600Y-134202000D03*
%TD*%
D13*
%TO.N,/Peripherals+Outputs/FIN2*%
%TO.C,M3*%
X152744124Y-147485825D03*
D14*
%TO.N,/Peripherals+Outputs/Servo_PWR*%
X152744124Y-150025825D03*
%TO.N,GND*%
X152744124Y-152565825D03*
%TD*%
D13*
%TO.N,/Peripherals+Outputs/FIN1*%
%TO.C,M4*%
X156444124Y-147485825D03*
D14*
%TO.N,/Peripherals+Outputs/Servo_PWR*%
X156444124Y-150025825D03*
%TO.N,GND*%
X156444124Y-152565825D03*
%TD*%
D15*
%TO.N,/Peripherals+Outputs/RX*%
%TO.C,U3*%
X141380000Y-80030000D03*
%TO.N,/Peripherals+Outputs/TX*%
X141380000Y-82570000D03*
%TO.N,/Peripherals+Outputs/NEO-PIX*%
X141380000Y-85110000D03*
%TO.N,/Peripherals+Outputs/Z-*%
X141380000Y-87650000D03*
%TO.N,/Peripherals+Outputs/Z+*%
X141380000Y-90190000D03*
%TO.N,/Peripherals+Outputs/FIN1*%
X141380000Y-92730000D03*
%TO.N,/Peripherals+Outputs/FIN2*%
X141380000Y-95270000D03*
%TO.N,/Peripherals+Outputs/TVCX*%
X141380000Y-97810000D03*
%TO.N,/Peripherals+Outputs/TVCY*%
X141380000Y-100350000D03*
%TO.N,/Proc/Accel_INT*%
X141380000Y-102890000D03*
%TO.N,/Flash_SD_Card/FLASH-CS*%
X141380000Y-105430000D03*
%TO.N,/Flash_SD_Card/MOSI*%
X141380000Y-107970000D03*
%TO.N,/Flash_SD_Card/MISO*%
X141380000Y-110510000D03*
%TO.N,/Flash_SD_Card/SCK*%
X156620000Y-110510000D03*
%TO.N,/Power_Input_Regulator/VOLTAGE*%
X156620000Y-107970000D03*
%TO.N,/Peripherals+Outputs/Buzz*%
X156620000Y-105430000D03*
%TO.N,/Proc/Gyro_INT*%
X156620000Y-102890000D03*
%TO.N,/Proc/Mag_INT*%
X156620000Y-100350000D03*
%TO.N,/GNSS_Radio/SDA*%
X156620000Y-97810000D03*
%TO.N,/GNSS_Radio/SCL*%
X156620000Y-95270000D03*
%TO.N,/Peripherals+Outputs/CS*%
X156620000Y-92730000D03*
%TO.N,/Flash_SD_Card/SD-CS*%
X156620000Y-90190000D03*
%TO.N,/Proc/PY2*%
X156620000Y-87650000D03*
%TO.N,/Proc/PY1*%
X156620000Y-85110000D03*
%TO.N,+3V3*%
X156620000Y-82570000D03*
%TO.N,GND*%
X141380000Y-77490000D03*
X156620000Y-80030000D03*
%TO.N,+5V*%
X156620000Y-77490000D03*
%TD*%
D13*
%TO.N,/Peripherals+Outputs/TVCY*%
%TO.C,M1*%
X145334124Y-147485825D03*
D14*
%TO.N,/Peripherals+Outputs/Servo_PWR*%
X145334124Y-150025825D03*
%TO.N,GND*%
X145334124Y-152565825D03*
%TD*%
D13*
%TO.N,/Peripherals+Outputs/TVCX*%
%TO.C,M2*%
X149034124Y-147485825D03*
D14*
%TO.N,/Peripherals+Outputs/Servo_PWR*%
X149034124Y-150025825D03*
%TO.N,GND*%
X149034124Y-152565825D03*
%TD*%
D10*
%TO.N,N/C*%
%TO.C,H3*%
X170950000Y-150300000D03*
%TD*%
%TO.N,N/C*%
%TO.C,H1*%
X130950000Y-73000000D03*
%TD*%
D11*
%TO.N,GND*%
%TO.C,J6*%
X171125000Y-134202000D03*
D12*
%TO.N,+5V*%
X171125000Y-130702000D03*
%TD*%
D11*
%TO.N,/GNSS_Radio/SCL*%
%TO.C,J2*%
X171125000Y-120202000D03*
D12*
%TO.N,/GNSS_Radio/SDA*%
X171125000Y-116702000D03*
%TD*%
D11*
%TO.N,/Peripherals+Outputs/RX*%
%TO.C,J4*%
X171125000Y-127202000D03*
D12*
%TO.N,/Peripherals+Outputs/TX*%
X171125000Y-123702000D03*
%TD*%
D11*
%TO.N,/Peripherals+Outputs/Z+*%
%TO.C,J1*%
X171125000Y-141202000D03*
D12*
%TO.N,/Peripherals+Outputs/Z-*%
X171125000Y-137702000D03*
%TD*%
D16*
%TO.N,GND*%
X149500000Y-125750000D03*
D17*
X162000000Y-91250000D03*
X159900000Y-85350000D03*
X165500000Y-93500000D03*
X134300000Y-106700000D03*
X165425000Y-86875000D03*
X168500000Y-95750000D03*
X154250000Y-135750000D03*
X140975000Y-115150000D03*
D18*
X170275000Y-100900000D03*
D17*
X137075000Y-77525000D03*
X159900000Y-89000000D03*
X167750000Y-91250000D03*
D16*
X162550000Y-141725000D03*
D17*
X163400000Y-85350000D03*
X135025000Y-99750000D03*
X141850000Y-120475000D03*
X164100000Y-90500000D03*
X170000000Y-95750000D03*
X128100000Y-101600000D03*
D18*
X154400000Y-116025000D03*
D17*
X164075000Y-86875000D03*
X166100000Y-86875000D03*
X153500000Y-135000000D03*
X164100000Y-89750000D03*
X164100000Y-91250000D03*
D18*
X160700000Y-107575000D03*
D17*
X167750000Y-89750000D03*
X161300000Y-91250000D03*
D16*
X133200000Y-136425000D03*
D17*
X165500000Y-94250000D03*
X136625000Y-137850000D03*
X169250000Y-93500000D03*
X159900000Y-91250000D03*
X140650000Y-138150000D03*
X162000000Y-85350000D03*
X170000000Y-93500000D03*
X150500000Y-120350000D03*
X168500000Y-93500000D03*
X152750000Y-134250000D03*
X167750000Y-92000000D03*
X162700000Y-91250000D03*
X136975000Y-141900000D03*
X164075000Y-107650000D03*
X130960000Y-79610000D03*
X139200000Y-150400000D03*
X163400000Y-91250000D03*
X147750000Y-106150000D03*
X167750000Y-95750000D03*
X136525000Y-133350000D03*
D16*
X153275000Y-129976500D03*
D17*
X169250000Y-95750000D03*
X159900000Y-86050000D03*
X166250000Y-95500000D03*
X136075000Y-84950000D03*
X159900000Y-88250000D03*
X159900000Y-90500000D03*
X159900000Y-87500000D03*
X167750000Y-90500000D03*
X165500000Y-91250000D03*
X167000000Y-95750000D03*
X160600000Y-91250000D03*
D16*
X133175000Y-127600000D03*
D17*
X144800000Y-90200000D03*
X165500000Y-89750000D03*
X166775000Y-86875000D03*
X167750000Y-92750000D03*
X159900000Y-89750000D03*
D18*
X151400000Y-115050000D03*
X162325000Y-121525000D03*
D17*
X154250000Y-134250000D03*
X135900000Y-94875000D03*
X133500000Y-92700000D03*
X162700000Y-85350000D03*
X167750000Y-93500000D03*
X164100000Y-86150000D03*
X150404000Y-134200000D03*
X130375000Y-92125000D03*
D16*
X134850000Y-145250000D03*
D17*
X129500000Y-95500000D03*
X140575000Y-129525000D03*
X165500000Y-92000000D03*
X164100000Y-85350000D03*
D18*
X161700000Y-116050000D03*
D17*
X128225000Y-82725000D03*
X168125000Y-86875000D03*
X151400000Y-134200000D03*
X149400000Y-134200000D03*
X165750000Y-95000000D03*
X167450000Y-86875000D03*
D18*
X163850000Y-121550000D03*
D17*
X161300000Y-85350000D03*
X164750000Y-86875000D03*
X159900000Y-86750000D03*
D16*
X162550000Y-138100000D03*
D17*
X165500000Y-90500000D03*
X168800000Y-86875000D03*
X160600000Y-85350000D03*
X165500000Y-92750000D03*
X164800000Y-89750000D03*
X136675000Y-129300000D03*
X127875000Y-112425000D03*
X152750000Y-135750000D03*
D16*
%TO.N,+5V*%
X156000000Y-125798500D03*
D17*
%TO.N,+3V3*%
X161875000Y-82575000D03*
X139450000Y-142375000D03*
D18*
X151950000Y-116775000D03*
D17*
X161775000Y-106500000D03*
X136200000Y-150400000D03*
X138375000Y-120475000D03*
D18*
X153400000Y-115173500D03*
X135300000Y-111650000D03*
X161600000Y-119325000D03*
X164550000Y-119325000D03*
D17*
X139525000Y-133725000D03*
X153975000Y-120350000D03*
X128100000Y-106550000D03*
D18*
X163850000Y-116075000D03*
D17*
X130675000Y-96525000D03*
X130500000Y-89900000D03*
X149850000Y-118600000D03*
X131500000Y-86600000D03*
X130800000Y-107700000D03*
X130850000Y-82625000D03*
X138600000Y-82800000D03*
D16*
%TO.N,+12V*%
X135100000Y-136350000D03*
X135050000Y-127600000D03*
X142870000Y-140360000D03*
X151375000Y-129976500D03*
D18*
%TO.N,Net-(U1-C1)*%
X161750000Y-118025000D03*
D17*
%TO.N,/Flash_SD_Card/FLASH-CS*%
X137675000Y-98225000D03*
%TO.N,/Power_Input_Regulator/VOLTAGE*%
X142725000Y-108450000D03*
D18*
X136830000Y-110176500D03*
D17*
%TO.N,/Flash_SD_Card/MISO*%
X130950000Y-93175000D03*
%TO.N,/Flash_SD_Card/MOSI*%
X129475000Y-88775000D03*
D18*
X137110000Y-105390000D03*
D17*
%TO.N,/Flash_SD_Card/SCK*%
X129575000Y-90975000D03*
%TO.N,Net-(U4-SDA{slash}~{SPI_CS})*%
X164125000Y-102725000D03*
%TO.N,/Peripherals+Outputs/TX*%
X155379973Y-127523480D03*
X147000000Y-82600000D03*
X137200000Y-148150000D03*
X165680000Y-123740000D03*
%TO.N,/Peripherals+Outputs/RX*%
X156115705Y-127700000D03*
X165635030Y-127285030D03*
X138200000Y-148150000D03*
D18*
%TO.N,/Peripherals+Outputs/Z+*%
X158475000Y-83825000D03*
%TO.N,/Peripherals+Outputs/Z-*%
X159050000Y-83675000D03*
D17*
%TO.N,Net-(U4-SCL{slash}SPI_CLK)*%
X162100000Y-102750000D03*
D18*
%TO.N,/GNSS_Radio/SCL*%
X151675000Y-114301500D03*
X140101500Y-113348500D03*
X139626500Y-114325000D03*
X137825000Y-114275000D03*
D17*
%TO.N,/GNSS_Radio/SDA*%
X164050000Y-98775000D03*
D18*
X139150000Y-113825000D03*
D17*
%TO.N,/Peripherals+Outputs/FIN1*%
X163600000Y-144050000D03*
D18*
%TO.N,/Proc/Gyro_INT*%
X161836000Y-115097421D03*
D17*
%TO.N,/Proc/Accel_INT*%
X144305624Y-122725000D03*
%TO.N,/Proc/Mag_INT*%
X164550000Y-117550000D03*
%TO.N,/Proc/PY1*%
X146539144Y-134290000D03*
%TO.N,/Proc/PY2*%
X146539144Y-128526500D03*
%TD*%
%TA.AperFunction,Conductor*%
%TO.N,GND*%
G36*
X171001444Y-69025567D02*
G01*
X171363812Y-69042321D01*
X171369609Y-69042858D01*
X171422760Y-69050272D01*
X171727446Y-69092773D01*
X171733132Y-69093836D01*
X172084851Y-69176560D01*
X172090436Y-69178150D01*
X172196912Y-69213837D01*
X172433002Y-69292966D01*
X172438406Y-69295059D01*
X172768935Y-69441002D01*
X172774114Y-69443580D01*
X173089771Y-69619400D01*
X173094698Y-69622451D01*
X173252118Y-69730287D01*
X173392767Y-69826634D01*
X173397403Y-69830134D01*
X173481224Y-69899738D01*
X173675367Y-70060953D01*
X173679658Y-70064864D01*
X173935134Y-70320340D01*
X173939046Y-70324632D01*
X174063647Y-70474683D01*
X174169862Y-70602593D01*
X174173365Y-70607232D01*
X174377544Y-70905295D01*
X174380602Y-70910234D01*
X174556414Y-71225877D01*
X174559002Y-71231074D01*
X174704934Y-71561579D01*
X174707037Y-71567008D01*
X174821849Y-71909563D01*
X174823443Y-71915162D01*
X174906159Y-72266847D01*
X174907229Y-72272570D01*
X174957141Y-72630390D01*
X174957678Y-72636187D01*
X174974431Y-72998527D01*
X174974498Y-73001478D01*
X174924516Y-150274028D01*
X174924500Y-150274145D01*
X174924500Y-150298534D01*
X174924433Y-150301445D01*
X174907678Y-150663812D01*
X174907141Y-150669609D01*
X174857229Y-151027429D01*
X174856159Y-151033152D01*
X174773443Y-151384837D01*
X174771849Y-151390436D01*
X174657037Y-151732991D01*
X174654934Y-151738420D01*
X174509002Y-152068925D01*
X174506409Y-152074131D01*
X174402370Y-152260919D01*
X174330609Y-152389754D01*
X174327544Y-152394704D01*
X174123365Y-152692767D01*
X174119857Y-152697413D01*
X173889046Y-152975367D01*
X173885124Y-152979670D01*
X173629670Y-153235124D01*
X173625367Y-153239046D01*
X173347413Y-153469857D01*
X173342767Y-153473365D01*
X173044704Y-153677544D01*
X173039755Y-153680608D01*
X172724131Y-153856409D01*
X172718925Y-153859002D01*
X172388417Y-154004935D01*
X172382988Y-154007038D01*
X172250146Y-154051562D01*
X172212728Y-154058067D01*
X161824637Y-154274486D01*
X161823325Y-154274500D01*
X130951466Y-154274500D01*
X130948555Y-154274433D01*
X130586187Y-154257678D01*
X130580390Y-154257141D01*
X130222570Y-154207229D01*
X130216851Y-154206159D01*
X129865162Y-154123443D01*
X129859563Y-154121849D01*
X129517008Y-154007037D01*
X129511579Y-154004934D01*
X129181074Y-153859002D01*
X129175877Y-153856414D01*
X128860234Y-153680602D01*
X128855295Y-153677544D01*
X128557232Y-153473365D01*
X128552593Y-153469862D01*
X128442007Y-153378033D01*
X128274632Y-153239046D01*
X128270340Y-153235134D01*
X128014864Y-152979658D01*
X128010953Y-152975367D01*
X127881792Y-152819825D01*
X127780134Y-152697403D01*
X127776634Y-152692767D01*
X127698424Y-152578595D01*
X127572451Y-152394698D01*
X127569400Y-152389771D01*
X127393580Y-152074114D01*
X127391002Y-152068935D01*
X127245059Y-151738406D01*
X127242966Y-151733002D01*
X127139752Y-151425053D01*
X127128150Y-151390436D01*
X127126560Y-151384851D01*
X127043836Y-151033132D01*
X127042773Y-151027446D01*
X127004493Y-150753018D01*
X127000604Y-150725138D01*
X127000000Y-150716438D01*
X127000000Y-150300003D01*
X127636641Y-150300003D01*
X127656064Y-150658237D01*
X127714103Y-151012269D01*
X127810084Y-151357959D01*
X127836818Y-151425057D01*
X127942877Y-151691243D01*
X127966476Y-151735755D01*
X128110922Y-152008210D01*
X128110924Y-152008214D01*
X128189005Y-152123375D01*
X128312258Y-152305159D01*
X128388318Y-152394704D01*
X128544516Y-152578595D01*
X128804962Y-152825304D01*
X128804977Y-152825317D01*
X129090586Y-153042431D01*
X129397995Y-153227393D01*
X129723599Y-153378033D01*
X130063583Y-153492587D01*
X130413958Y-153569711D01*
X130770618Y-153608500D01*
X130770626Y-153608500D01*
X131129374Y-153608500D01*
X131129382Y-153608500D01*
X131486042Y-153569711D01*
X131836417Y-153492587D01*
X132176401Y-153378033D01*
X132502005Y-153227393D01*
X132809414Y-153042431D01*
X133095023Y-152825317D01*
X133355484Y-152578595D01*
X133587742Y-152305159D01*
X133789075Y-152008215D01*
X133957123Y-151691243D01*
X134089915Y-151357961D01*
X134185895Y-151012274D01*
X134243936Y-150658237D01*
X134257937Y-150400000D01*
X135386384Y-150400000D01*
X135406783Y-150581047D01*
X135406783Y-150581049D01*
X135406784Y-150581050D01*
X135466957Y-150753015D01*
X135466958Y-150753018D01*
X135563887Y-150907279D01*
X135563888Y-150907281D01*
X135692718Y-151036111D01*
X135692720Y-151036112D01*
X135846981Y-151133041D01*
X135846982Y-151133041D01*
X135846985Y-151133043D01*
X136018953Y-151193217D01*
X136200000Y-151213616D01*
X136381047Y-151193217D01*
X136553015Y-151133043D01*
X136707281Y-151036111D01*
X136836111Y-150907281D01*
X136933043Y-150753015D01*
X136993217Y-150581047D01*
X137013616Y-150400000D01*
X136993217Y-150218953D01*
X136933043Y-150046985D01*
X136933041Y-150046982D01*
X136933041Y-150046981D01*
X136919748Y-150025825D01*
X143970968Y-150025825D01*
X143986971Y-150218953D01*
X143989561Y-150250200D01*
X144044826Y-150468437D01*
X144044827Y-150468438D01*
X144044828Y-150468441D01*
X144128080Y-150658237D01*
X144135265Y-150674618D01*
X144258399Y-150863090D01*
X144258403Y-150863095D01*
X144299078Y-150907279D01*
X144409685Y-151027429D01*
X144410886Y-151028733D01*
X144420367Y-151036112D01*
X144588548Y-151167014D01*
X144622329Y-151185295D01*
X144672720Y-151235307D01*
X144688073Y-151304624D01*
X144663513Y-151371237D01*
X144622333Y-151406921D01*
X144588828Y-151425053D01*
X144588822Y-151425057D01*
X144411221Y-151563290D01*
X144258798Y-151728866D01*
X144135704Y-151917276D01*
X144045303Y-152123368D01*
X144045300Y-152123375D01*
X143997579Y-152311824D01*
X143997580Y-152311825D01*
X144903008Y-152311825D01*
X144874631Y-152355981D01*
X144834124Y-152493936D01*
X144834124Y-152637714D01*
X144874631Y-152775669D01*
X144903008Y-152819825D01*
X143997579Y-152819825D01*
X144045300Y-153008274D01*
X144045303Y-153008281D01*
X144135704Y-153214373D01*
X144258798Y-153402783D01*
X144411221Y-153568359D01*
X144588822Y-153706592D01*
X144588823Y-153706593D01*
X144786752Y-153813707D01*
X144786754Y-153813708D01*
X144999607Y-153886780D01*
X144999616Y-153886782D01*
X145080124Y-153900216D01*
X145080124Y-152999499D01*
X145191809Y-153050505D01*
X145298361Y-153065825D01*
X145369887Y-153065825D01*
X145476439Y-153050505D01*
X145588124Y-152999499D01*
X145588124Y-153900215D01*
X145668631Y-153886782D01*
X145668640Y-153886780D01*
X145881493Y-153813708D01*
X145881495Y-153813707D01*
X146079424Y-153706593D01*
X146079425Y-153706592D01*
X146257026Y-153568359D01*
X146409449Y-153402783D01*
X146532543Y-153214373D01*
X146622944Y-153008281D01*
X146622947Y-153008274D01*
X146670668Y-152819825D01*
X145765240Y-152819825D01*
X145793617Y-152775669D01*
X145834124Y-152637714D01*
X145834124Y-152493936D01*
X145793617Y-152355981D01*
X145765240Y-152311825D01*
X146670668Y-152311825D01*
X146670668Y-152311824D01*
X146622947Y-152123375D01*
X146622944Y-152123368D01*
X146532543Y-151917276D01*
X146409449Y-151728866D01*
X146257026Y-151563290D01*
X146079425Y-151425057D01*
X146079424Y-151425056D01*
X146045915Y-151406922D01*
X145995525Y-151356908D01*
X145980174Y-151287591D01*
X146004736Y-151220978D01*
X146045914Y-151185297D01*
X146079700Y-151167014D01*
X146257364Y-151028731D01*
X146409846Y-150863093D01*
X146532984Y-150674616D01*
X146623420Y-150468441D01*
X146678688Y-150250193D01*
X146697280Y-150025825D01*
X147670968Y-150025825D01*
X147686971Y-150218953D01*
X147689561Y-150250200D01*
X147744826Y-150468437D01*
X147744827Y-150468438D01*
X147744828Y-150468441D01*
X147828080Y-150658237D01*
X147835265Y-150674618D01*
X147958399Y-150863090D01*
X147958403Y-150863095D01*
X147999078Y-150907279D01*
X148109685Y-151027429D01*
X148110886Y-151028733D01*
X148120367Y-151036112D01*
X148288548Y-151167014D01*
X148322329Y-151185295D01*
X148372720Y-151235307D01*
X148388073Y-151304624D01*
X148363513Y-151371237D01*
X148322333Y-151406921D01*
X148288828Y-151425053D01*
X148288822Y-151425057D01*
X148111221Y-151563290D01*
X147958798Y-151728866D01*
X147835704Y-151917276D01*
X147745303Y-152123368D01*
X147745300Y-152123375D01*
X147697579Y-152311824D01*
X147697580Y-152311825D01*
X148603008Y-152311825D01*
X148574631Y-152355981D01*
X148534124Y-152493936D01*
X148534124Y-152637714D01*
X148574631Y-152775669D01*
X148603008Y-152819825D01*
X147697579Y-152819825D01*
X147745300Y-153008274D01*
X147745303Y-153008281D01*
X147835704Y-153214373D01*
X147958798Y-153402783D01*
X148111221Y-153568359D01*
X148288822Y-153706592D01*
X148288823Y-153706593D01*
X148486752Y-153813707D01*
X148486754Y-153813708D01*
X148699607Y-153886780D01*
X148699616Y-153886782D01*
X148780124Y-153900216D01*
X148780124Y-152999499D01*
X148891809Y-153050505D01*
X148998361Y-153065825D01*
X149069887Y-153065825D01*
X149176439Y-153050505D01*
X149288124Y-152999499D01*
X149288124Y-153900215D01*
X149368631Y-153886782D01*
X149368640Y-153886780D01*
X149581493Y-153813708D01*
X149581495Y-153813707D01*
X149779424Y-153706593D01*
X149779425Y-153706592D01*
X149957026Y-153568359D01*
X150109449Y-153402783D01*
X150232543Y-153214373D01*
X150322944Y-153008281D01*
X150322947Y-153008274D01*
X150370668Y-152819825D01*
X149465240Y-152819825D01*
X149493617Y-152775669D01*
X149534124Y-152637714D01*
X149534124Y-152493936D01*
X149493617Y-152355981D01*
X149465240Y-152311825D01*
X150370668Y-152311825D01*
X150370668Y-152311824D01*
X150322947Y-152123375D01*
X150322944Y-152123368D01*
X150232543Y-151917276D01*
X150109449Y-151728866D01*
X149957026Y-151563290D01*
X149779425Y-151425057D01*
X149779424Y-151425056D01*
X149745915Y-151406922D01*
X149695525Y-151356908D01*
X149680174Y-151287591D01*
X149704736Y-151220978D01*
X149745914Y-151185297D01*
X149779700Y-151167014D01*
X149957364Y-151028731D01*
X150109846Y-150863093D01*
X150232984Y-150674616D01*
X150323420Y-150468441D01*
X150378688Y-150250193D01*
X150397280Y-150025825D01*
X151380968Y-150025825D01*
X151396971Y-150218953D01*
X151399561Y-150250200D01*
X151454826Y-150468437D01*
X151454827Y-150468438D01*
X151454828Y-150468441D01*
X151538080Y-150658237D01*
X151545265Y-150674618D01*
X151668399Y-150863090D01*
X151668403Y-150863095D01*
X151709078Y-150907279D01*
X151819685Y-151027429D01*
X151820886Y-151028733D01*
X151830367Y-151036112D01*
X151998548Y-151167014D01*
X152032329Y-151185295D01*
X152082720Y-151235307D01*
X152098073Y-151304624D01*
X152073513Y-151371237D01*
X152032333Y-151406921D01*
X151998828Y-151425053D01*
X151998822Y-151425057D01*
X151821221Y-151563290D01*
X151668798Y-151728866D01*
X151545704Y-151917276D01*
X151455303Y-152123368D01*
X151455300Y-152123375D01*
X151407579Y-152311824D01*
X151407580Y-152311825D01*
X152313008Y-152311825D01*
X152284631Y-152355981D01*
X152244124Y-152493936D01*
X152244124Y-152637714D01*
X152284631Y-152775669D01*
X152313008Y-152819825D01*
X151407579Y-152819825D01*
X151455300Y-153008274D01*
X151455303Y-153008281D01*
X151545704Y-153214373D01*
X151668798Y-153402783D01*
X151821221Y-153568359D01*
X151998822Y-153706592D01*
X151998823Y-153706593D01*
X152196752Y-153813707D01*
X152196754Y-153813708D01*
X152409607Y-153886780D01*
X152409616Y-153886782D01*
X152490124Y-153900216D01*
X152490124Y-152999499D01*
X152601809Y-153050505D01*
X152708361Y-153065825D01*
X152779887Y-153065825D01*
X152886439Y-153050505D01*
X152998124Y-152999499D01*
X152998124Y-153900215D01*
X153078631Y-153886782D01*
X153078640Y-153886780D01*
X153291493Y-153813708D01*
X153291495Y-153813707D01*
X153489424Y-153706593D01*
X153489425Y-153706592D01*
X153667026Y-153568359D01*
X153819449Y-153402783D01*
X153942543Y-153214373D01*
X154032944Y-153008281D01*
X154032947Y-153008274D01*
X154080668Y-152819825D01*
X153175240Y-152819825D01*
X153203617Y-152775669D01*
X153244124Y-152637714D01*
X153244124Y-152493936D01*
X153203617Y-152355981D01*
X153175240Y-152311825D01*
X154080668Y-152311825D01*
X154080668Y-152311824D01*
X154032947Y-152123375D01*
X154032944Y-152123368D01*
X153942543Y-151917276D01*
X153819449Y-151728866D01*
X153667026Y-151563290D01*
X153489425Y-151425057D01*
X153489424Y-151425056D01*
X153455915Y-151406922D01*
X153405525Y-151356908D01*
X153390174Y-151287591D01*
X153414736Y-151220978D01*
X153455914Y-151185297D01*
X153489700Y-151167014D01*
X153667364Y-151028731D01*
X153819846Y-150863093D01*
X153942984Y-150674616D01*
X154033420Y-150468441D01*
X154088688Y-150250193D01*
X154107280Y-150025825D01*
X155080968Y-150025825D01*
X155096971Y-150218953D01*
X155099561Y-150250200D01*
X155154826Y-150468437D01*
X155154827Y-150468438D01*
X155154828Y-150468441D01*
X155238080Y-150658237D01*
X155245265Y-150674618D01*
X155368399Y-150863090D01*
X155368403Y-150863095D01*
X155409078Y-150907279D01*
X155519685Y-151027429D01*
X155520886Y-151028733D01*
X155530367Y-151036112D01*
X155698548Y-151167014D01*
X155732329Y-151185295D01*
X155782720Y-151235307D01*
X155798073Y-151304624D01*
X155773513Y-151371237D01*
X155732333Y-151406921D01*
X155698828Y-151425053D01*
X155698822Y-151425057D01*
X155521221Y-151563290D01*
X155368798Y-151728866D01*
X155245704Y-151917276D01*
X155155303Y-152123368D01*
X155155300Y-152123375D01*
X155107579Y-152311824D01*
X155107580Y-152311825D01*
X156013008Y-152311825D01*
X155984631Y-152355981D01*
X155944124Y-152493936D01*
X155944124Y-152637714D01*
X155984631Y-152775669D01*
X156013008Y-152819825D01*
X155107579Y-152819825D01*
X155155300Y-153008274D01*
X155155303Y-153008281D01*
X155245704Y-153214373D01*
X155368798Y-153402783D01*
X155521221Y-153568359D01*
X155698822Y-153706592D01*
X155698823Y-153706593D01*
X155896752Y-153813707D01*
X155896754Y-153813708D01*
X156109607Y-153886780D01*
X156109616Y-153886782D01*
X156190124Y-153900216D01*
X156190124Y-152999499D01*
X156301809Y-153050505D01*
X156408361Y-153065825D01*
X156479887Y-153065825D01*
X156586439Y-153050505D01*
X156698124Y-152999499D01*
X156698124Y-153900215D01*
X156778631Y-153886782D01*
X156778640Y-153886780D01*
X156991493Y-153813708D01*
X156991495Y-153813707D01*
X157189424Y-153706593D01*
X157189425Y-153706592D01*
X157367026Y-153568359D01*
X157519449Y-153402783D01*
X157642543Y-153214373D01*
X157732944Y-153008281D01*
X157732947Y-153008274D01*
X157780668Y-152819825D01*
X156875240Y-152819825D01*
X156903617Y-152775669D01*
X156944124Y-152637714D01*
X156944124Y-152493936D01*
X156903617Y-152355981D01*
X156875240Y-152311825D01*
X157780668Y-152311825D01*
X157780668Y-152311824D01*
X157732947Y-152123375D01*
X157732944Y-152123368D01*
X157642543Y-151917276D01*
X157519449Y-151728866D01*
X157367026Y-151563290D01*
X157189425Y-151425057D01*
X157189424Y-151425056D01*
X157155915Y-151406922D01*
X157105525Y-151356908D01*
X157090174Y-151287591D01*
X157114736Y-151220978D01*
X157155914Y-151185297D01*
X157189700Y-151167014D01*
X157367364Y-151028731D01*
X157519846Y-150863093D01*
X157642984Y-150674616D01*
X157733420Y-150468441D01*
X157776074Y-150300003D01*
X167636641Y-150300003D01*
X167656064Y-150658237D01*
X167714103Y-151012269D01*
X167810084Y-151357959D01*
X167836818Y-151425057D01*
X167942877Y-151691243D01*
X167966476Y-151735755D01*
X168110922Y-152008210D01*
X168110924Y-152008214D01*
X168189005Y-152123375D01*
X168312258Y-152305159D01*
X168388318Y-152394704D01*
X168544516Y-152578595D01*
X168804962Y-152825304D01*
X168804977Y-152825317D01*
X169090586Y-153042431D01*
X169397995Y-153227393D01*
X169723599Y-153378033D01*
X170063583Y-153492587D01*
X170413958Y-153569711D01*
X170770618Y-153608500D01*
X170770626Y-153608500D01*
X171129374Y-153608500D01*
X171129382Y-153608500D01*
X171486042Y-153569711D01*
X171836417Y-153492587D01*
X172176401Y-153378033D01*
X172502005Y-153227393D01*
X172809414Y-153042431D01*
X173095023Y-152825317D01*
X173355484Y-152578595D01*
X173587742Y-152305159D01*
X173789075Y-152008215D01*
X173957123Y-151691243D01*
X174089915Y-151357961D01*
X174185895Y-151012274D01*
X174243936Y-150658237D01*
X174260641Y-150350119D01*
X174263359Y-150300003D01*
X174263359Y-150299996D01*
X174258965Y-150218949D01*
X174243936Y-149941763D01*
X174198884Y-149666957D01*
X174185896Y-149587730D01*
X174127396Y-149377034D01*
X174089915Y-149242039D01*
X173957123Y-148908757D01*
X173789075Y-148591785D01*
X173587742Y-148294841D01*
X173355484Y-148021405D01*
X173300107Y-147968949D01*
X173095037Y-147774695D01*
X173095022Y-147774682D01*
X172809418Y-147557572D01*
X172809412Y-147557568D01*
X172736815Y-147513888D01*
X172502005Y-147372607D01*
X172176401Y-147221967D01*
X171836417Y-147107413D01*
X171788915Y-147096956D01*
X171486054Y-147030291D01*
X171486030Y-147030287D01*
X171129389Y-146991500D01*
X171129382Y-146991500D01*
X170770618Y-146991500D01*
X170770610Y-146991500D01*
X170413969Y-147030287D01*
X170413945Y-147030291D01*
X170063587Y-147107412D01*
X170063573Y-147107416D01*
X169723601Y-147221966D01*
X169723598Y-147221967D01*
X169723599Y-147221967D01*
X169432199Y-147356783D01*
X169397989Y-147372610D01*
X169090587Y-147557568D01*
X169090581Y-147557572D01*
X168804977Y-147774682D01*
X168804962Y-147774695D01*
X168544516Y-148021404D01*
X168312256Y-148294843D01*
X168110924Y-148591785D01*
X168110922Y-148591789D01*
X167942876Y-148908759D01*
X167942872Y-148908768D01*
X167810084Y-149242040D01*
X167714103Y-149587730D01*
X167656064Y-149941762D01*
X167636641Y-150299996D01*
X167636641Y-150300003D01*
X157776074Y-150300003D01*
X157788688Y-150250193D01*
X157807280Y-150025825D01*
X157788688Y-149801457D01*
X157788686Y-149801449D01*
X157733421Y-149583212D01*
X157733420Y-149583211D01*
X157733420Y-149583209D01*
X157642984Y-149377034D01*
X157636264Y-149366749D01*
X157519848Y-149188559D01*
X157519843Y-149188554D01*
X157376648Y-149033004D01*
X157345227Y-148969339D01*
X157353214Y-148898793D01*
X157398072Y-148843764D01*
X157425307Y-148829614D01*
X157540328Y-148786714D01*
X157541133Y-148786112D01*
X157657385Y-148699086D01*
X157745011Y-148582032D01*
X157745011Y-148582031D01*
X157745013Y-148582029D01*
X157796113Y-148445026D01*
X157802624Y-148384463D01*
X157802624Y-146587187D01*
X157802623Y-146587175D01*
X157796114Y-146526628D01*
X157796112Y-146526620D01*
X157745013Y-146389622D01*
X157745011Y-146389617D01*
X157657385Y-146272563D01*
X157540331Y-146184937D01*
X157540326Y-146184935D01*
X157403328Y-146133836D01*
X157403320Y-146133834D01*
X157342773Y-146127325D01*
X157342762Y-146127325D01*
X155545486Y-146127325D01*
X155545474Y-146127325D01*
X155484927Y-146133834D01*
X155484919Y-146133836D01*
X155347921Y-146184935D01*
X155347916Y-146184937D01*
X155230862Y-146272563D01*
X155143236Y-146389617D01*
X155143234Y-146389622D01*
X155092135Y-146526620D01*
X155092133Y-146526628D01*
X155085624Y-146587175D01*
X155085624Y-148384474D01*
X155092133Y-148445021D01*
X155092135Y-148445029D01*
X155143234Y-148582027D01*
X155143236Y-148582032D01*
X155230862Y-148699086D01*
X155347915Y-148786711D01*
X155347916Y-148786711D01*
X155347920Y-148786714D01*
X155462934Y-148829612D01*
X155519766Y-148872157D01*
X155544577Y-148938677D01*
X155529486Y-149008051D01*
X155511599Y-149033004D01*
X155368404Y-149188554D01*
X155368399Y-149188559D01*
X155245265Y-149377031D01*
X155154827Y-149583211D01*
X155154826Y-149583212D01*
X155099561Y-149801449D01*
X155099560Y-149801455D01*
X155099560Y-149801457D01*
X155080968Y-150025825D01*
X154107280Y-150025825D01*
X154088688Y-149801457D01*
X154088686Y-149801449D01*
X154033421Y-149583212D01*
X154033420Y-149583211D01*
X154033420Y-149583209D01*
X153942984Y-149377034D01*
X153936264Y-149366749D01*
X153819848Y-149188559D01*
X153819843Y-149188554D01*
X153676648Y-149033004D01*
X153645227Y-148969339D01*
X153653214Y-148898793D01*
X153698072Y-148843764D01*
X153725307Y-148829614D01*
X153840328Y-148786714D01*
X153841133Y-148786112D01*
X153957385Y-148699086D01*
X154045011Y-148582032D01*
X154045011Y-148582031D01*
X154045013Y-148582029D01*
X154096113Y-148445026D01*
X154102624Y-148384463D01*
X154102624Y-146587187D01*
X154102623Y-146587175D01*
X154096114Y-146526628D01*
X154096112Y-146526620D01*
X154045013Y-146389622D01*
X154045011Y-146389617D01*
X153957385Y-146272563D01*
X153840331Y-146184937D01*
X153840326Y-146184935D01*
X153703328Y-146133836D01*
X153703320Y-146133834D01*
X153642773Y-146127325D01*
X153642762Y-146127325D01*
X151845486Y-146127325D01*
X151845474Y-146127325D01*
X151784927Y-146133834D01*
X151784919Y-146133836D01*
X151647921Y-146184935D01*
X151647916Y-146184937D01*
X151530862Y-146272563D01*
X151443236Y-146389617D01*
X151443234Y-146389622D01*
X151392135Y-146526620D01*
X151392133Y-146526628D01*
X151385624Y-146587175D01*
X151385624Y-148384474D01*
X151392133Y-148445021D01*
X151392135Y-148445029D01*
X151443234Y-148582027D01*
X151443236Y-148582032D01*
X151530862Y-148699086D01*
X151647915Y-148786711D01*
X151647916Y-148786711D01*
X151647920Y-148786714D01*
X151762934Y-148829612D01*
X151819766Y-148872157D01*
X151844577Y-148938677D01*
X151829486Y-149008051D01*
X151811599Y-149033004D01*
X151668404Y-149188554D01*
X151668399Y-149188559D01*
X151545265Y-149377031D01*
X151454827Y-149583211D01*
X151454826Y-149583212D01*
X151399561Y-149801449D01*
X151399560Y-149801455D01*
X151399560Y-149801457D01*
X151380968Y-150025825D01*
X150397280Y-150025825D01*
X150378688Y-149801457D01*
X150378686Y-149801449D01*
X150323421Y-149583212D01*
X150323420Y-149583211D01*
X150323420Y-149583209D01*
X150232984Y-149377034D01*
X150226264Y-149366749D01*
X150109848Y-149188559D01*
X150109843Y-149188554D01*
X149966648Y-149033004D01*
X149935227Y-148969339D01*
X149943214Y-148898793D01*
X149988072Y-148843764D01*
X150015307Y-148829614D01*
X150130328Y-148786714D01*
X150131133Y-148786112D01*
X150247385Y-148699086D01*
X150335011Y-148582032D01*
X150335011Y-148582031D01*
X150335013Y-148582029D01*
X150386113Y-148445026D01*
X150392624Y-148384463D01*
X150392624Y-146587187D01*
X150392623Y-146587175D01*
X150386114Y-146526628D01*
X150386112Y-146526620D01*
X150335013Y-146389622D01*
X150335011Y-146389617D01*
X150247385Y-146272563D01*
X150130331Y-146184937D01*
X150130326Y-146184935D01*
X149993328Y-146133836D01*
X149993320Y-146133834D01*
X149932773Y-146127325D01*
X149932762Y-146127325D01*
X148135486Y-146127325D01*
X148135474Y-146127325D01*
X148074927Y-146133834D01*
X148074919Y-146133836D01*
X147937921Y-146184935D01*
X147937916Y-146184937D01*
X147820862Y-146272563D01*
X147733236Y-146389617D01*
X147733234Y-146389622D01*
X147682135Y-146526620D01*
X147682133Y-146526628D01*
X147675624Y-146587175D01*
X147675624Y-148384474D01*
X147682133Y-148445021D01*
X147682135Y-148445029D01*
X147733234Y-148582027D01*
X147733236Y-148582032D01*
X147820862Y-148699086D01*
X147937915Y-148786711D01*
X147937916Y-148786711D01*
X147937920Y-148786714D01*
X148052934Y-148829612D01*
X148109766Y-148872157D01*
X148134577Y-148938677D01*
X148119486Y-149008051D01*
X148101599Y-149033004D01*
X147958404Y-149188554D01*
X147958399Y-149188559D01*
X147835265Y-149377031D01*
X147744827Y-149583211D01*
X147744826Y-149583212D01*
X147689561Y-149801449D01*
X147689560Y-149801455D01*
X147689560Y-149801457D01*
X147670968Y-150025825D01*
X146697280Y-150025825D01*
X146678688Y-149801457D01*
X146678686Y-149801449D01*
X146623421Y-149583212D01*
X146623420Y-149583211D01*
X146623420Y-149583209D01*
X146532984Y-149377034D01*
X146526264Y-149366749D01*
X146409848Y-149188559D01*
X146409843Y-149188554D01*
X146266648Y-149033004D01*
X146235227Y-148969339D01*
X146243214Y-148898793D01*
X146288072Y-148843764D01*
X146315307Y-148829614D01*
X146430328Y-148786714D01*
X146431133Y-148786112D01*
X146547385Y-148699086D01*
X146635011Y-148582032D01*
X146635011Y-148582031D01*
X146635013Y-148582029D01*
X146686113Y-148445026D01*
X146692624Y-148384463D01*
X146692624Y-146587187D01*
X146692623Y-146587175D01*
X146686114Y-146526628D01*
X146686112Y-146526620D01*
X146635013Y-146389622D01*
X146635011Y-146389617D01*
X146547385Y-146272563D01*
X146430331Y-146184937D01*
X146430326Y-146184935D01*
X146293328Y-146133836D01*
X146293320Y-146133834D01*
X146232773Y-146127325D01*
X146232762Y-146127325D01*
X144435486Y-146127325D01*
X144435474Y-146127325D01*
X144374927Y-146133834D01*
X144374919Y-146133836D01*
X144237921Y-146184935D01*
X144237916Y-146184937D01*
X144120862Y-146272563D01*
X144033236Y-146389617D01*
X144033234Y-146389622D01*
X143982135Y-146526620D01*
X143982133Y-146526628D01*
X143975624Y-146587175D01*
X143975624Y-148384474D01*
X143982133Y-148445021D01*
X143982135Y-148445029D01*
X144033234Y-148582027D01*
X144033236Y-148582032D01*
X144120862Y-148699086D01*
X144237915Y-148786711D01*
X144237916Y-148786711D01*
X144237920Y-148786714D01*
X144352934Y-148829612D01*
X144409766Y-148872157D01*
X144434577Y-148938677D01*
X144419486Y-149008051D01*
X144401599Y-149033004D01*
X144258404Y-149188554D01*
X144258399Y-149188559D01*
X144135265Y-149377031D01*
X144044827Y-149583211D01*
X144044826Y-149583212D01*
X143989561Y-149801449D01*
X143989560Y-149801455D01*
X143989560Y-149801457D01*
X143970968Y-150025825D01*
X136919748Y-150025825D01*
X136836112Y-149892720D01*
X136836111Y-149892718D01*
X136707281Y-149763888D01*
X136707279Y-149763887D01*
X136553018Y-149666958D01*
X136553015Y-149666957D01*
X136381050Y-149606784D01*
X136381049Y-149606783D01*
X136381047Y-149606783D01*
X136200000Y-149586384D01*
X136018953Y-149606783D01*
X136018950Y-149606783D01*
X136018949Y-149606784D01*
X135846984Y-149666957D01*
X135846981Y-149666958D01*
X135692720Y-149763887D01*
X135692718Y-149763888D01*
X135563888Y-149892718D01*
X135563887Y-149892720D01*
X135466958Y-150046981D01*
X135466957Y-150046984D01*
X135466957Y-150046985D01*
X135406783Y-150218953D01*
X135386384Y-150400000D01*
X134257937Y-150400000D01*
X134260641Y-150350119D01*
X134263359Y-150300003D01*
X134263359Y-150299996D01*
X134258965Y-150218949D01*
X134243936Y-149941763D01*
X134198884Y-149666957D01*
X134185896Y-149587730D01*
X134127396Y-149377034D01*
X134089915Y-149242039D01*
X133957123Y-148908757D01*
X133789075Y-148591785D01*
X133587742Y-148294841D01*
X133464713Y-148150000D01*
X136386384Y-148150000D01*
X136406783Y-148331047D01*
X136406783Y-148331049D01*
X136406784Y-148331050D01*
X136466957Y-148503015D01*
X136466958Y-148503018D01*
X136563887Y-148657279D01*
X136563888Y-148657281D01*
X136692718Y-148786111D01*
X136692720Y-148786112D01*
X136846981Y-148883041D01*
X136846982Y-148883041D01*
X136846985Y-148883043D01*
X137018953Y-148943217D01*
X137200000Y-148963616D01*
X137381047Y-148943217D01*
X137553015Y-148883043D01*
X137632963Y-148832807D01*
X137701282Y-148813501D01*
X137767035Y-148832806D01*
X137846985Y-148883043D01*
X138018953Y-148943217D01*
X138200000Y-148963616D01*
X138381047Y-148943217D01*
X138553015Y-148883043D01*
X138707281Y-148786111D01*
X138836111Y-148657281D01*
X138933043Y-148503015D01*
X138993217Y-148331047D01*
X139013616Y-148150000D01*
X138993217Y-147968953D01*
X138933043Y-147796985D01*
X138933041Y-147796982D01*
X138933041Y-147796981D01*
X138836112Y-147642720D01*
X138836111Y-147642718D01*
X138707281Y-147513888D01*
X138707279Y-147513887D01*
X138553018Y-147416958D01*
X138553015Y-147416957D01*
X138381050Y-147356784D01*
X138381049Y-147356783D01*
X138381047Y-147356783D01*
X138200000Y-147336384D01*
X138018953Y-147356783D01*
X138018950Y-147356783D01*
X138018949Y-147356784D01*
X137846986Y-147416956D01*
X137767034Y-147467193D01*
X137698713Y-147486498D01*
X137632963Y-147467192D01*
X137553017Y-147416958D01*
X137553014Y-147416956D01*
X137381050Y-147356784D01*
X137381049Y-147356783D01*
X137381047Y-147356783D01*
X137200000Y-147336384D01*
X137018953Y-147356783D01*
X137018950Y-147356783D01*
X137018949Y-147356784D01*
X136846984Y-147416957D01*
X136846981Y-147416958D01*
X136692720Y-147513887D01*
X136692718Y-147513888D01*
X136563888Y-147642718D01*
X136563887Y-147642720D01*
X136466958Y-147796981D01*
X136466957Y-147796984D01*
X136466957Y-147796985D01*
X136406783Y-147968953D01*
X136386384Y-148150000D01*
X133464713Y-148150000D01*
X133355484Y-148021405D01*
X133300107Y-147968949D01*
X133095037Y-147774695D01*
X133095022Y-147774682D01*
X132809418Y-147557572D01*
X132809412Y-147557568D01*
X132736815Y-147513888D01*
X132502005Y-147372607D01*
X132176401Y-147221967D01*
X131836417Y-147107413D01*
X131788915Y-147096956D01*
X131486054Y-147030291D01*
X131486030Y-147030287D01*
X131129389Y-146991500D01*
X131129382Y-146991500D01*
X130770618Y-146991500D01*
X130770610Y-146991500D01*
X130413969Y-147030287D01*
X130413945Y-147030291D01*
X130063587Y-147107412D01*
X130063573Y-147107416D01*
X129723601Y-147221966D01*
X129723598Y-147221967D01*
X129723599Y-147221967D01*
X129432199Y-147356783D01*
X129397989Y-147372610D01*
X129090587Y-147557568D01*
X129090581Y-147557572D01*
X128804977Y-147774682D01*
X128804962Y-147774695D01*
X128544516Y-148021404D01*
X128312256Y-148294843D01*
X128110924Y-148591785D01*
X128110922Y-148591789D01*
X127942876Y-148908759D01*
X127942872Y-148908768D01*
X127810084Y-149242040D01*
X127714103Y-149587730D01*
X127656064Y-149941762D01*
X127636641Y-150299996D01*
X127636641Y-150300003D01*
X127000000Y-150300003D01*
X127000000Y-144050000D01*
X162786384Y-144050000D01*
X162806783Y-144231047D01*
X162806783Y-144231049D01*
X162806784Y-144231050D01*
X162866957Y-144403015D01*
X162866958Y-144403018D01*
X162963887Y-144557279D01*
X162963888Y-144557281D01*
X163092718Y-144686111D01*
X163092720Y-144686112D01*
X163246981Y-144783041D01*
X163246982Y-144783041D01*
X163246985Y-144783043D01*
X163418953Y-144843217D01*
X163600000Y-144863616D01*
X163781047Y-144843217D01*
X163953015Y-144783043D01*
X164107281Y-144686111D01*
X164236111Y-144557281D01*
X164333043Y-144403015D01*
X164393217Y-144231047D01*
X164413616Y-144050000D01*
X164393217Y-143868953D01*
X164333043Y-143696985D01*
X164333041Y-143696982D01*
X164333041Y-143696981D01*
X164236112Y-143542720D01*
X164236111Y-143542718D01*
X164107281Y-143413888D01*
X164107279Y-143413887D01*
X163953018Y-143316958D01*
X163953015Y-143316957D01*
X163781050Y-143256784D01*
X163781049Y-143256783D01*
X163781047Y-143256783D01*
X163600000Y-143236384D01*
X163418953Y-143256783D01*
X163418950Y-143256783D01*
X163418949Y-143256784D01*
X163246984Y-143316957D01*
X163246981Y-143316958D01*
X163092720Y-143413887D01*
X163092718Y-143413888D01*
X162963888Y-143542718D01*
X162963887Y-143542720D01*
X162866958Y-143696981D01*
X162866957Y-143696984D01*
X162866957Y-143696985D01*
X162806783Y-143868953D01*
X162786384Y-144050000D01*
X127000000Y-144050000D01*
X127000000Y-141202000D01*
X129514273Y-141202000D01*
X129533550Y-141434633D01*
X129590849Y-141660903D01*
X129590852Y-141660910D01*
X129684615Y-141874668D01*
X129812285Y-142070083D01*
X129970374Y-142241813D01*
X129970378Y-142241817D01*
X130036250Y-142293087D01*
X130154583Y-142385190D01*
X130359873Y-142496287D01*
X130580649Y-142572080D01*
X130810888Y-142610500D01*
X130810892Y-142610500D01*
X131044308Y-142610500D01*
X131044312Y-142610500D01*
X131274551Y-142572080D01*
X131495327Y-142496287D01*
X131700617Y-142385190D01*
X131713709Y-142375000D01*
X138636384Y-142375000D01*
X138656783Y-142556047D01*
X138656783Y-142556049D01*
X138656784Y-142556050D01*
X138716957Y-142728015D01*
X138716958Y-142728018D01*
X138813887Y-142882279D01*
X138813888Y-142882281D01*
X138942718Y-143011111D01*
X138942720Y-143011112D01*
X139096981Y-143108041D01*
X139096982Y-143108041D01*
X139096985Y-143108043D01*
X139268953Y-143168217D01*
X139450000Y-143188616D01*
X139631047Y-143168217D01*
X139803015Y-143108043D01*
X139957281Y-143011111D01*
X140086111Y-142882281D01*
X140183043Y-142728015D01*
X140243217Y-142556047D01*
X140263616Y-142375000D01*
X140243217Y-142193953D01*
X140228064Y-142150649D01*
X169716500Y-142150649D01*
X169723009Y-142211196D01*
X169723011Y-142211204D01*
X169774110Y-142348202D01*
X169774112Y-142348207D01*
X169861738Y-142465261D01*
X169978792Y-142552887D01*
X169978794Y-142552888D01*
X169978796Y-142552889D01*
X170030243Y-142572078D01*
X170115795Y-142603988D01*
X170115803Y-142603990D01*
X170176350Y-142610499D01*
X170176355Y-142610499D01*
X170176362Y-142610500D01*
X170176368Y-142610500D01*
X172073632Y-142610500D01*
X172073638Y-142610500D01*
X172073645Y-142610499D01*
X172073649Y-142610499D01*
X172134196Y-142603990D01*
X172134199Y-142603989D01*
X172134201Y-142603989D01*
X172271204Y-142552889D01*
X172388261Y-142465261D01*
X172475889Y-142348204D01*
X172526989Y-142211201D01*
X172528844Y-142193953D01*
X172533499Y-142150649D01*
X172533500Y-142150632D01*
X172533500Y-140253367D01*
X172533499Y-140253350D01*
X172526990Y-140192803D01*
X172526988Y-140192795D01*
X172475889Y-140055797D01*
X172475887Y-140055792D01*
X172388261Y-139938738D01*
X172271207Y-139851112D01*
X172271202Y-139851110D01*
X172134204Y-139800011D01*
X172134196Y-139800009D01*
X172073649Y-139793500D01*
X172073638Y-139793500D01*
X170176362Y-139793500D01*
X170176350Y-139793500D01*
X170115803Y-139800009D01*
X170115795Y-139800011D01*
X169978797Y-139851110D01*
X169978792Y-139851112D01*
X169861738Y-139938738D01*
X169774112Y-140055792D01*
X169774110Y-140055797D01*
X169723011Y-140192795D01*
X169723009Y-140192803D01*
X169716500Y-140253350D01*
X169716500Y-142150649D01*
X140228064Y-142150649D01*
X140183043Y-142021985D01*
X140183041Y-142021982D01*
X140183041Y-142021981D01*
X140086112Y-141867720D01*
X140086111Y-141867718D01*
X139957281Y-141738888D01*
X139957279Y-141738887D01*
X139803018Y-141641958D01*
X139803015Y-141641957D01*
X139631050Y-141581784D01*
X139631049Y-141581783D01*
X139631047Y-141581783D01*
X139450000Y-141561384D01*
X139268953Y-141581783D01*
X139268950Y-141581783D01*
X139268949Y-141581784D01*
X139096984Y-141641957D01*
X139096981Y-141641958D01*
X138942720Y-141738887D01*
X138942718Y-141738888D01*
X138813888Y-141867718D01*
X138813887Y-141867720D01*
X138716958Y-142021981D01*
X138716957Y-142021984D01*
X138671936Y-142150649D01*
X138656783Y-142193953D01*
X138636384Y-142375000D01*
X131713709Y-142375000D01*
X131884820Y-142241818D01*
X131913003Y-142211204D01*
X132042914Y-142070083D01*
X132074338Y-142021985D01*
X132170584Y-141874669D01*
X132264349Y-141660907D01*
X132321651Y-141434626D01*
X132340927Y-141202000D01*
X132321651Y-140969374D01*
X132264349Y-140743093D01*
X132170584Y-140529331D01*
X132059955Y-140360000D01*
X132059954Y-140359999D01*
X141956496Y-140359999D01*
X141976457Y-140549927D01*
X142006526Y-140642470D01*
X142035473Y-140731556D01*
X142035476Y-140731561D01*
X142130958Y-140896941D01*
X142130965Y-140896951D01*
X142258744Y-141038864D01*
X142258747Y-141038866D01*
X142413248Y-141151118D01*
X142587712Y-141228794D01*
X142774513Y-141268500D01*
X142965487Y-141268500D01*
X143152288Y-141228794D01*
X143326752Y-141151118D01*
X143481253Y-141038866D01*
X143609040Y-140896944D01*
X143704527Y-140731556D01*
X143763542Y-140549928D01*
X143783504Y-140360000D01*
X143763542Y-140170072D01*
X143704527Y-139988444D01*
X143609040Y-139823056D01*
X143609038Y-139823054D01*
X143609034Y-139823048D01*
X143481255Y-139681135D01*
X143326752Y-139568882D01*
X143152288Y-139491206D01*
X142965487Y-139451500D01*
X142774513Y-139451500D01*
X142587711Y-139491206D01*
X142413247Y-139568882D01*
X142258744Y-139681135D01*
X142130965Y-139823048D01*
X142130958Y-139823058D01*
X142064170Y-139938739D01*
X142035473Y-139988444D01*
X142020999Y-140032986D01*
X141976457Y-140170072D01*
X141956496Y-140359999D01*
X132059954Y-140359999D01*
X132042914Y-140333916D01*
X131884825Y-140162186D01*
X131884821Y-140162182D01*
X131792718Y-140090496D01*
X131700617Y-140018810D01*
X131495327Y-139907713D01*
X131495324Y-139907712D01*
X131495323Y-139907711D01*
X131274555Y-139831921D01*
X131274548Y-139831919D01*
X131176011Y-139815476D01*
X131044312Y-139793500D01*
X130810888Y-139793500D01*
X130695666Y-139812727D01*
X130580651Y-139831919D01*
X130580644Y-139831921D01*
X130359876Y-139907711D01*
X130359873Y-139907713D01*
X130154585Y-140018809D01*
X130154583Y-140018810D01*
X129970378Y-140162182D01*
X129970374Y-140162186D01*
X129812285Y-140333916D01*
X129684615Y-140529331D01*
X129590852Y-140743089D01*
X129590849Y-140743096D01*
X129533550Y-140969366D01*
X129514273Y-141202000D01*
X127000000Y-141202000D01*
X127000000Y-138650649D01*
X129519100Y-138650649D01*
X129525609Y-138711196D01*
X129525611Y-138711204D01*
X129576710Y-138848202D01*
X129576712Y-138848207D01*
X129664338Y-138965261D01*
X129781392Y-139052887D01*
X129781394Y-139052888D01*
X129781396Y-139052889D01*
X129832843Y-139072078D01*
X129918395Y-139103988D01*
X129918403Y-139103990D01*
X129978950Y-139110499D01*
X129978955Y-139110499D01*
X129978962Y-139110500D01*
X129978968Y-139110500D01*
X131876232Y-139110500D01*
X131876238Y-139110500D01*
X131876245Y-139110499D01*
X131876249Y-139110499D01*
X131936796Y-139103990D01*
X131936799Y-139103989D01*
X131936801Y-139103989D01*
X132073804Y-139052889D01*
X132190861Y-138965261D01*
X132278489Y-138848204D01*
X132329589Y-138711201D01*
X132336100Y-138650638D01*
X132336100Y-137702000D01*
X169711673Y-137702000D01*
X169730950Y-137934633D01*
X169788249Y-138160903D01*
X169788252Y-138160910D01*
X169882015Y-138374668D01*
X170009685Y-138570083D01*
X170167774Y-138741813D01*
X170167778Y-138741817D01*
X170233650Y-138793087D01*
X170351983Y-138885190D01*
X170557273Y-138996287D01*
X170778049Y-139072080D01*
X171008288Y-139110500D01*
X171008292Y-139110500D01*
X171241708Y-139110500D01*
X171241712Y-139110500D01*
X171471951Y-139072080D01*
X171692727Y-138996287D01*
X171898017Y-138885190D01*
X172082220Y-138741818D01*
X172110403Y-138711204D01*
X172240314Y-138570083D01*
X172240314Y-138570082D01*
X172367984Y-138374669D01*
X172461749Y-138160907D01*
X172519051Y-137934626D01*
X172538327Y-137702000D01*
X172519051Y-137469374D01*
X172461749Y-137243093D01*
X172367984Y-137029331D01*
X172274963Y-136886951D01*
X172240314Y-136833916D01*
X172082225Y-136662186D01*
X172082221Y-136662182D01*
X171990118Y-136590496D01*
X171898017Y-136518810D01*
X171692727Y-136407713D01*
X171692724Y-136407712D01*
X171692723Y-136407711D01*
X171471955Y-136331921D01*
X171471948Y-136331919D01*
X171373411Y-136315476D01*
X171241712Y-136293500D01*
X171008288Y-136293500D01*
X170893066Y-136312727D01*
X170778051Y-136331919D01*
X170778044Y-136331921D01*
X170557276Y-136407711D01*
X170557273Y-136407713D01*
X170351985Y-136518809D01*
X170351983Y-136518810D01*
X170167778Y-136662182D01*
X170167774Y-136662186D01*
X170009685Y-136833916D01*
X169882015Y-137029331D01*
X169788252Y-137243089D01*
X169788249Y-137243096D01*
X169730950Y-137469366D01*
X169711673Y-137702000D01*
X132336100Y-137702000D01*
X132336100Y-136753362D01*
X132336099Y-136753350D01*
X132329590Y-136692803D01*
X132329588Y-136692795D01*
X132278489Y-136555797D01*
X132278487Y-136555792D01*
X132190861Y-136438738D01*
X132073807Y-136351112D01*
X132073802Y-136351110D01*
X132070826Y-136350000D01*
X134186496Y-136350000D01*
X134206457Y-136539927D01*
X134211614Y-136555797D01*
X134265473Y-136721556D01*
X134265476Y-136721561D01*
X134360958Y-136886941D01*
X134360965Y-136886951D01*
X134488744Y-137028864D01*
X134488747Y-137028866D01*
X134643248Y-137141118D01*
X134817712Y-137218794D01*
X135004513Y-137258500D01*
X135195487Y-137258500D01*
X135382288Y-137218794D01*
X135556752Y-137141118D01*
X135711253Y-137028866D01*
X135839040Y-136886944D01*
X135934527Y-136721556D01*
X135993542Y-136539928D01*
X136013504Y-136350000D01*
X135993542Y-136160072D01*
X135934527Y-135978444D01*
X135839040Y-135813056D01*
X135839038Y-135813054D01*
X135839034Y-135813048D01*
X135711255Y-135671135D01*
X135556752Y-135558882D01*
X135382288Y-135481206D01*
X135195487Y-135441500D01*
X135004513Y-135441500D01*
X134817711Y-135481206D01*
X134643247Y-135558882D01*
X134488744Y-135671135D01*
X134360965Y-135813048D01*
X134360958Y-135813058D01*
X134265476Y-135978438D01*
X134265473Y-135978445D01*
X134206457Y-136160072D01*
X134186496Y-136350000D01*
X132070826Y-136350000D01*
X131936804Y-136300011D01*
X131936796Y-136300009D01*
X131876249Y-136293500D01*
X131876238Y-136293500D01*
X129978962Y-136293500D01*
X129978950Y-136293500D01*
X129918403Y-136300009D01*
X129918395Y-136300011D01*
X129781397Y-136351110D01*
X129781392Y-136351112D01*
X129664338Y-136438738D01*
X129576712Y-136555792D01*
X129576710Y-136555797D01*
X129525611Y-136692795D01*
X129525609Y-136692803D01*
X129519100Y-136753350D01*
X129519100Y-138650649D01*
X127000000Y-138650649D01*
X127000000Y-134202000D01*
X129514273Y-134202000D01*
X129527457Y-134361112D01*
X129533550Y-134434633D01*
X129590849Y-134660903D01*
X129590852Y-134660910D01*
X129684615Y-134874668D01*
X129812285Y-135070083D01*
X129970374Y-135241813D01*
X129970378Y-135241817D01*
X130036250Y-135293087D01*
X130154583Y-135385190D01*
X130359873Y-135496287D01*
X130580649Y-135572080D01*
X130810888Y-135610500D01*
X130810892Y-135610500D01*
X131044308Y-135610500D01*
X131044312Y-135610500D01*
X131274551Y-135572080D01*
X131495327Y-135496287D01*
X131700617Y-135385190D01*
X131884820Y-135241818D01*
X131913105Y-135211093D01*
X131968796Y-135150597D01*
X169717000Y-135150597D01*
X169723505Y-135211093D01*
X169774555Y-135347964D01*
X169774555Y-135347965D01*
X169862095Y-135464904D01*
X169979034Y-135552444D01*
X170115906Y-135603494D01*
X170176402Y-135609999D01*
X170176415Y-135610000D01*
X170871000Y-135610000D01*
X170871000Y-134746224D01*
X170968369Y-134786556D01*
X171085677Y-134802000D01*
X171164323Y-134802000D01*
X171281631Y-134786556D01*
X171379000Y-134746224D01*
X171379000Y-135610000D01*
X172073585Y-135610000D01*
X172073597Y-135609999D01*
X172134093Y-135603494D01*
X172270964Y-135552444D01*
X172270965Y-135552444D01*
X172387904Y-135464904D01*
X172475444Y-135347965D01*
X172475444Y-135347964D01*
X172526494Y-135211093D01*
X172532999Y-135150597D01*
X172533000Y-135150585D01*
X172533000Y-134456000D01*
X171669225Y-134456000D01*
X171709556Y-134358631D01*
X171730177Y-134202000D01*
X171709556Y-134045369D01*
X171669225Y-133948000D01*
X172533000Y-133948000D01*
X172533000Y-133253414D01*
X172532999Y-133253402D01*
X172526494Y-133192906D01*
X172475444Y-133056035D01*
X172475444Y-133056034D01*
X172387904Y-132939095D01*
X172270965Y-132851555D01*
X172134093Y-132800505D01*
X172073597Y-132794000D01*
X171379000Y-132794000D01*
X171379000Y-133657775D01*
X171281631Y-133617444D01*
X171164323Y-133602000D01*
X171085677Y-133602000D01*
X170968369Y-133617444D01*
X170871000Y-133657775D01*
X170871000Y-132794000D01*
X170176402Y-132794000D01*
X170115906Y-132800505D01*
X169979035Y-132851555D01*
X169979034Y-132851555D01*
X169862095Y-132939095D01*
X169774555Y-133056034D01*
X169774555Y-133056035D01*
X169723505Y-133192906D01*
X169717000Y-133253402D01*
X169717000Y-133948000D01*
X170580775Y-133948000D01*
X170540444Y-134045369D01*
X170519823Y-134202000D01*
X170540444Y-134358631D01*
X170580775Y-134456000D01*
X169717000Y-134456000D01*
X169717000Y-135150597D01*
X131968796Y-135150597D01*
X132042914Y-135070083D01*
X132073648Y-135023041D01*
X132170584Y-134874669D01*
X132264349Y-134660907D01*
X132321651Y-134434626D01*
X132340927Y-134202000D01*
X132321651Y-133969374D01*
X132305615Y-133906050D01*
X132264350Y-133743096D01*
X132264347Y-133743089D01*
X132256412Y-133725000D01*
X138711384Y-133725000D01*
X138731783Y-133906047D01*
X138731783Y-133906049D01*
X138731784Y-133906050D01*
X138791957Y-134078015D01*
X138791958Y-134078018D01*
X138888887Y-134232279D01*
X138888888Y-134232281D01*
X139017718Y-134361111D01*
X139017720Y-134361112D01*
X139171981Y-134458041D01*
X139171982Y-134458041D01*
X139171985Y-134458043D01*
X139343953Y-134518217D01*
X139525000Y-134538616D01*
X139706047Y-134518217D01*
X139878015Y-134458043D01*
X140032281Y-134361111D01*
X140103392Y-134290000D01*
X145725528Y-134290000D01*
X145745927Y-134471047D01*
X145745927Y-134471049D01*
X145745928Y-134471050D01*
X145806101Y-134643015D01*
X145806102Y-134643018D01*
X145903031Y-134797279D01*
X145903032Y-134797281D01*
X146031862Y-134926111D01*
X146031864Y-134926112D01*
X146186125Y-135023041D01*
X146186126Y-135023041D01*
X146186129Y-135023043D01*
X146358097Y-135083217D01*
X146539144Y-135103616D01*
X146720191Y-135083217D01*
X146892159Y-135023043D01*
X147046425Y-134926111D01*
X147175255Y-134797281D01*
X147272187Y-134643015D01*
X147332361Y-134471047D01*
X147352760Y-134290000D01*
X147332361Y-134108953D01*
X147272187Y-133936985D01*
X147272185Y-133936982D01*
X147272185Y-133936981D01*
X147175256Y-133782720D01*
X147175255Y-133782718D01*
X147046425Y-133653888D01*
X147046423Y-133653887D01*
X146892162Y-133556958D01*
X146892159Y-133556957D01*
X146720194Y-133496784D01*
X146720193Y-133496783D01*
X146720191Y-133496783D01*
X146539144Y-133476384D01*
X146539143Y-133476384D01*
X146508327Y-133479856D01*
X146358097Y-133496783D01*
X146358094Y-133496783D01*
X146358093Y-133496784D01*
X146186128Y-133556957D01*
X146186125Y-133556958D01*
X146031864Y-133653887D01*
X146031862Y-133653888D01*
X145903032Y-133782718D01*
X145903031Y-133782720D01*
X145806102Y-133936981D01*
X145806101Y-133936984D01*
X145756752Y-134078018D01*
X145745927Y-134108953D01*
X145725528Y-134290000D01*
X140103392Y-134290000D01*
X140161111Y-134232281D01*
X140258043Y-134078015D01*
X140318217Y-133906047D01*
X140338616Y-133725000D01*
X140318217Y-133543953D01*
X140258043Y-133371985D01*
X140258041Y-133371982D01*
X140258041Y-133371981D01*
X140161112Y-133217720D01*
X140161111Y-133217718D01*
X140032281Y-133088888D01*
X140032279Y-133088887D01*
X139878018Y-132991958D01*
X139878015Y-132991957D01*
X139706050Y-132931784D01*
X139706049Y-132931783D01*
X139706047Y-132931783D01*
X139525000Y-132911384D01*
X139343953Y-132931783D01*
X139343950Y-132931783D01*
X139343949Y-132931784D01*
X139171984Y-132991957D01*
X139171981Y-132991958D01*
X139017720Y-133088887D01*
X139017718Y-133088888D01*
X138888888Y-133217718D01*
X138888887Y-133217720D01*
X138791958Y-133371981D01*
X138791957Y-133371984D01*
X138791957Y-133371985D01*
X138731783Y-133543953D01*
X138711384Y-133725000D01*
X132256412Y-133725000D01*
X132170584Y-133529331D01*
X132135992Y-133476384D01*
X132042914Y-133333916D01*
X131884825Y-133162186D01*
X131884821Y-133162182D01*
X131748442Y-133056034D01*
X131700617Y-133018810D01*
X131495327Y-132907713D01*
X131495324Y-132907712D01*
X131495323Y-132907711D01*
X131274555Y-132831921D01*
X131274548Y-132831919D01*
X131176011Y-132815476D01*
X131044312Y-132793500D01*
X130810888Y-132793500D01*
X130695666Y-132812727D01*
X130580651Y-132831919D01*
X130580644Y-132831921D01*
X130359876Y-132907711D01*
X130359873Y-132907713D01*
X130154585Y-133018809D01*
X130154583Y-133018810D01*
X129970378Y-133162182D01*
X129970374Y-133162186D01*
X129812285Y-133333916D01*
X129684615Y-133529331D01*
X129590852Y-133743089D01*
X129590849Y-133743096D01*
X129533550Y-133969366D01*
X129533549Y-133969372D01*
X129533549Y-133969374D01*
X129514273Y-134202000D01*
X127000000Y-134202000D01*
X127000000Y-131650649D01*
X129519100Y-131650649D01*
X129525609Y-131711196D01*
X129525611Y-131711204D01*
X129576710Y-131848202D01*
X129576712Y-131848207D01*
X129664338Y-131965261D01*
X129781392Y-132052887D01*
X129781394Y-132052888D01*
X129781396Y-132052889D01*
X129832843Y-132072078D01*
X129918395Y-132103988D01*
X129918403Y-132103990D01*
X129978950Y-132110499D01*
X129978955Y-132110499D01*
X129978962Y-132110500D01*
X129978968Y-132110500D01*
X131876232Y-132110500D01*
X131876238Y-132110500D01*
X131876245Y-132110499D01*
X131876249Y-132110499D01*
X131936796Y-132103990D01*
X131936799Y-132103989D01*
X131936801Y-132103989D01*
X132073804Y-132052889D01*
X132190861Y-131965261D01*
X132278489Y-131848204D01*
X132329589Y-131711201D01*
X132336100Y-131650638D01*
X132336100Y-129976500D01*
X150461496Y-129976500D01*
X150481457Y-130166427D01*
X150506367Y-130243089D01*
X150540473Y-130348056D01*
X150540476Y-130348061D01*
X150635958Y-130513441D01*
X150635965Y-130513451D01*
X150763744Y-130655364D01*
X150763747Y-130655366D01*
X150918248Y-130767618D01*
X151092712Y-130845294D01*
X151279513Y-130885000D01*
X151470487Y-130885000D01*
X151657288Y-130845294D01*
X151831752Y-130767618D01*
X151922068Y-130701999D01*
X169711673Y-130701999D01*
X169730950Y-130934633D01*
X169788249Y-131160903D01*
X169788252Y-131160910D01*
X169882015Y-131374668D01*
X170009685Y-131570083D01*
X170167774Y-131741813D01*
X170167778Y-131741817D01*
X170233650Y-131793087D01*
X170351983Y-131885190D01*
X170557273Y-131996287D01*
X170778049Y-132072080D01*
X171008288Y-132110500D01*
X171008292Y-132110500D01*
X171241708Y-132110500D01*
X171241712Y-132110500D01*
X171471951Y-132072080D01*
X171692727Y-131996287D01*
X171898017Y-131885190D01*
X172082220Y-131741818D01*
X172110403Y-131711204D01*
X172240314Y-131570083D01*
X172240313Y-131570083D01*
X172367984Y-131374669D01*
X172461749Y-131160907D01*
X172519051Y-130934626D01*
X172538327Y-130702000D01*
X172519051Y-130469374D01*
X172519049Y-130469366D01*
X172461750Y-130243096D01*
X172461747Y-130243089D01*
X172428120Y-130166428D01*
X172367984Y-130029331D01*
X172333468Y-129976500D01*
X172240314Y-129833916D01*
X172082225Y-129662186D01*
X172082221Y-129662182D01*
X171990118Y-129590496D01*
X171898017Y-129518810D01*
X171692727Y-129407713D01*
X171692724Y-129407712D01*
X171692723Y-129407711D01*
X171471955Y-129331921D01*
X171471948Y-129331919D01*
X171373411Y-129315476D01*
X171241712Y-129293500D01*
X171008288Y-129293500D01*
X170893066Y-129312727D01*
X170778051Y-129331919D01*
X170778044Y-129331921D01*
X170557276Y-129407711D01*
X170557273Y-129407713D01*
X170351985Y-129518809D01*
X170351983Y-129518810D01*
X170167778Y-129662182D01*
X170167774Y-129662186D01*
X170009685Y-129833916D01*
X169882015Y-130029331D01*
X169788252Y-130243089D01*
X169788249Y-130243096D01*
X169730950Y-130469366D01*
X169730949Y-130469372D01*
X169730949Y-130469374D01*
X169727297Y-130513451D01*
X169711673Y-130701999D01*
X151922068Y-130701999D01*
X151986253Y-130655366D01*
X152114040Y-130513444D01*
X152209527Y-130348056D01*
X152268542Y-130166428D01*
X152288504Y-129976500D01*
X152268542Y-129786572D01*
X152209527Y-129604944D01*
X152114040Y-129439556D01*
X152114038Y-129439554D01*
X152114034Y-129439548D01*
X151986255Y-129297635D01*
X151831752Y-129185382D01*
X151657288Y-129107706D01*
X151470487Y-129068000D01*
X151279513Y-129068000D01*
X151092711Y-129107706D01*
X150918247Y-129185382D01*
X150763744Y-129297635D01*
X150635965Y-129439548D01*
X150635958Y-129439558D01*
X150540476Y-129604938D01*
X150540473Y-129604945D01*
X150481457Y-129786572D01*
X150461496Y-129976500D01*
X132336100Y-129976500D01*
X132336100Y-129753362D01*
X132336099Y-129753350D01*
X132329590Y-129692803D01*
X132329588Y-129692795D01*
X132278489Y-129555797D01*
X132278487Y-129555792D01*
X132190861Y-129438738D01*
X132073807Y-129351112D01*
X132073802Y-129351110D01*
X131936804Y-129300011D01*
X131936796Y-129300009D01*
X131876249Y-129293500D01*
X131876238Y-129293500D01*
X129978962Y-129293500D01*
X129978950Y-129293500D01*
X129918403Y-129300009D01*
X129918395Y-129300011D01*
X129781397Y-129351110D01*
X129781392Y-129351112D01*
X129664338Y-129438738D01*
X129576712Y-129555792D01*
X129576710Y-129555797D01*
X129525611Y-129692795D01*
X129525609Y-129692803D01*
X129519100Y-129753350D01*
X129519100Y-131650649D01*
X127000000Y-131650649D01*
X127000000Y-127202000D01*
X129514273Y-127202000D01*
X129531514Y-127410072D01*
X129533550Y-127434633D01*
X129590849Y-127660903D01*
X129590852Y-127660910D01*
X129684615Y-127874668D01*
X129812285Y-128070083D01*
X129970374Y-128241813D01*
X129970378Y-128241817D01*
X130017976Y-128278864D01*
X130154583Y-128385190D01*
X130359873Y-128496287D01*
X130580649Y-128572080D01*
X130810888Y-128610500D01*
X130810892Y-128610500D01*
X131044308Y-128610500D01*
X131044312Y-128610500D01*
X131274551Y-128572080D01*
X131407320Y-128526500D01*
X145725528Y-128526500D01*
X145745927Y-128707547D01*
X145745927Y-128707549D01*
X145745928Y-128707550D01*
X145806101Y-128879515D01*
X145806102Y-128879518D01*
X145903031Y-129033779D01*
X145903032Y-129033781D01*
X146031862Y-129162611D01*
X146031864Y-129162612D01*
X146186125Y-129259541D01*
X146186126Y-129259541D01*
X146186129Y-129259543D01*
X146358097Y-129319717D01*
X146539144Y-129340116D01*
X146720191Y-129319717D01*
X146892159Y-129259543D01*
X147046425Y-129162611D01*
X147175255Y-129033781D01*
X147272187Y-128879515D01*
X147332361Y-128707547D01*
X147352760Y-128526500D01*
X147332361Y-128345453D01*
X147272187Y-128173485D01*
X147272185Y-128173482D01*
X147272185Y-128173481D01*
X147175256Y-128019220D01*
X147175255Y-128019218D01*
X147046425Y-127890388D01*
X147046423Y-127890387D01*
X146892162Y-127793458D01*
X146892159Y-127793457D01*
X146720194Y-127733284D01*
X146720193Y-127733283D01*
X146720191Y-127733283D01*
X146539144Y-127712884D01*
X146358097Y-127733283D01*
X146358094Y-127733283D01*
X146358093Y-127733284D01*
X146186128Y-127793457D01*
X146186125Y-127793458D01*
X146031864Y-127890387D01*
X146031862Y-127890388D01*
X145903032Y-128019218D01*
X145903031Y-128019220D01*
X145806102Y-128173481D01*
X145806101Y-128173484D01*
X145748852Y-128337095D01*
X145745927Y-128345453D01*
X145725528Y-128526500D01*
X131407320Y-128526500D01*
X131495327Y-128496287D01*
X131700617Y-128385190D01*
X131884820Y-128241818D01*
X131913003Y-128211204D01*
X132042914Y-128070083D01*
X132068604Y-128030761D01*
X132170584Y-127874669D01*
X132264349Y-127660907D01*
X132279773Y-127600000D01*
X134136496Y-127600000D01*
X134156457Y-127789927D01*
X134186065Y-127881047D01*
X134215473Y-127971556D01*
X134215476Y-127971561D01*
X134310958Y-128136941D01*
X134310965Y-128136951D01*
X134438744Y-128278864D01*
X134438747Y-128278866D01*
X134593248Y-128391118D01*
X134767712Y-128468794D01*
X134954513Y-128508500D01*
X135145487Y-128508500D01*
X135332288Y-128468794D01*
X135506752Y-128391118D01*
X135661253Y-128278866D01*
X135722179Y-128211201D01*
X135789034Y-128136951D01*
X135789035Y-128136949D01*
X135789040Y-128136944D01*
X135884527Y-127971556D01*
X135943542Y-127789928D01*
X135963504Y-127600000D01*
X135955462Y-127523480D01*
X154566357Y-127523480D01*
X154586756Y-127704527D01*
X154586756Y-127704529D01*
X154586757Y-127704530D01*
X154646930Y-127876495D01*
X154646931Y-127876498D01*
X154743860Y-128030759D01*
X154743861Y-128030761D01*
X154872691Y-128159591D01*
X154872693Y-128159592D01*
X155026954Y-128256521D01*
X155026955Y-128256521D01*
X155026958Y-128256523D01*
X155198926Y-128316697D01*
X155379973Y-128337096D01*
X155531207Y-128320056D01*
X155601134Y-128332304D01*
X155612346Y-128338576D01*
X155695965Y-128391117D01*
X155762690Y-128433043D01*
X155934658Y-128493217D01*
X156115705Y-128513616D01*
X156296752Y-128493217D01*
X156468720Y-128433043D01*
X156622986Y-128336111D01*
X156751816Y-128207281D01*
X156787400Y-128150649D01*
X169716500Y-128150649D01*
X169723009Y-128211196D01*
X169723011Y-128211204D01*
X169774110Y-128348202D01*
X169774112Y-128348207D01*
X169861738Y-128465261D01*
X169978792Y-128552887D01*
X169978794Y-128552888D01*
X169978796Y-128552889D01*
X170030243Y-128572078D01*
X170115795Y-128603988D01*
X170115803Y-128603990D01*
X170176350Y-128610499D01*
X170176355Y-128610499D01*
X170176362Y-128610500D01*
X170176368Y-128610500D01*
X172073632Y-128610500D01*
X172073638Y-128610500D01*
X172073645Y-128610499D01*
X172073649Y-128610499D01*
X172134196Y-128603990D01*
X172134199Y-128603989D01*
X172134201Y-128603989D01*
X172271204Y-128552889D01*
X172306456Y-128526500D01*
X172388261Y-128465261D01*
X172475887Y-128348207D01*
X172475887Y-128348206D01*
X172475889Y-128348204D01*
X172526989Y-128211201D01*
X172527411Y-128207281D01*
X172533499Y-128150649D01*
X172533500Y-128150632D01*
X172533500Y-126253367D01*
X172533499Y-126253350D01*
X172526990Y-126192803D01*
X172526988Y-126192795D01*
X172475889Y-126055797D01*
X172475887Y-126055792D01*
X172388261Y-125938738D01*
X172271207Y-125851112D01*
X172271202Y-125851110D01*
X172134204Y-125800011D01*
X172134196Y-125800009D01*
X172073649Y-125793500D01*
X172073638Y-125793500D01*
X170176362Y-125793500D01*
X170176350Y-125793500D01*
X170115803Y-125800009D01*
X170115795Y-125800011D01*
X169978797Y-125851110D01*
X169978792Y-125851112D01*
X169861738Y-125938738D01*
X169774112Y-126055792D01*
X169774110Y-126055797D01*
X169723011Y-126192795D01*
X169723009Y-126192803D01*
X169716500Y-126253350D01*
X169716500Y-128150649D01*
X156787400Y-128150649D01*
X156848748Y-128053015D01*
X156908922Y-127881047D01*
X156929321Y-127700000D01*
X156908922Y-127518953D01*
X156848748Y-127346985D01*
X156848746Y-127346982D01*
X156848746Y-127346981D01*
X156809819Y-127285030D01*
X164821414Y-127285030D01*
X164841813Y-127466077D01*
X164841813Y-127466079D01*
X164841814Y-127466080D01*
X164901987Y-127638045D01*
X164901988Y-127638048D01*
X164998917Y-127792309D01*
X164998918Y-127792311D01*
X165127748Y-127921141D01*
X165127750Y-127921142D01*
X165282011Y-128018071D01*
X165282012Y-128018071D01*
X165282015Y-128018073D01*
X165453983Y-128078247D01*
X165635030Y-128098646D01*
X165816077Y-128078247D01*
X165988045Y-128018073D01*
X166142311Y-127921141D01*
X166271141Y-127792311D01*
X166368073Y-127638045D01*
X166428247Y-127466077D01*
X166448646Y-127285030D01*
X166428247Y-127103983D01*
X166368073Y-126932015D01*
X166368071Y-126932012D01*
X166368071Y-126932011D01*
X166271142Y-126777750D01*
X166271141Y-126777748D01*
X166142311Y-126648918D01*
X166142309Y-126648917D01*
X165988048Y-126551988D01*
X165988045Y-126551987D01*
X165816080Y-126491814D01*
X165816079Y-126491813D01*
X165816077Y-126491813D01*
X165635030Y-126471414D01*
X165635029Y-126471414D01*
X165604213Y-126474886D01*
X165453983Y-126491813D01*
X165453980Y-126491813D01*
X165453979Y-126491814D01*
X165282014Y-126551987D01*
X165282011Y-126551988D01*
X165127750Y-126648917D01*
X165127748Y-126648918D01*
X164998918Y-126777748D01*
X164998917Y-126777750D01*
X164901988Y-126932011D01*
X164901987Y-126932014D01*
X164855843Y-127063888D01*
X164841813Y-127103983D01*
X164821414Y-127285030D01*
X156809819Y-127285030D01*
X156751817Y-127192720D01*
X156751816Y-127192718D01*
X156622986Y-127063888D01*
X156622984Y-127063887D01*
X156468723Y-126966958D01*
X156468720Y-126966957D01*
X156337765Y-126921134D01*
X156296752Y-126906783D01*
X156296751Y-126906782D01*
X156290073Y-126904446D01*
X156290819Y-126902313D01*
X156238263Y-126872900D01*
X156204890Y-126810236D01*
X156210693Y-126739477D01*
X156253830Y-126683089D01*
X156277035Y-126669632D01*
X156282284Y-126667294D01*
X156282288Y-126667294D01*
X156456752Y-126589618D01*
X156611253Y-126477366D01*
X156739040Y-126335444D01*
X156834527Y-126170056D01*
X156893542Y-125988428D01*
X156913504Y-125798500D01*
X156893542Y-125608572D01*
X156834527Y-125426944D01*
X156739040Y-125261556D01*
X156739038Y-125261554D01*
X156739034Y-125261548D01*
X156611255Y-125119635D01*
X156456752Y-125007382D01*
X156282288Y-124929706D01*
X156095487Y-124890000D01*
X155904513Y-124890000D01*
X155717711Y-124929706D01*
X155543247Y-125007382D01*
X155388744Y-125119635D01*
X155260965Y-125261548D01*
X155260958Y-125261558D01*
X155165476Y-125426938D01*
X155165473Y-125426945D01*
X155106457Y-125608572D01*
X155086496Y-125798500D01*
X155106457Y-125988427D01*
X155128346Y-126055792D01*
X155165473Y-126170056D01*
X155165476Y-126170061D01*
X155260958Y-126335441D01*
X155260965Y-126335451D01*
X155388742Y-126477362D01*
X155388746Y-126477364D01*
X155388747Y-126477366D01*
X155401997Y-126486993D01*
X155445351Y-126543213D01*
X155451428Y-126613949D01*
X155418297Y-126676741D01*
X155356478Y-126711654D01*
X155342045Y-126714137D01*
X155284993Y-126720565D01*
X155198926Y-126730263D01*
X155198923Y-126730263D01*
X155198923Y-126730264D01*
X155026957Y-126790437D01*
X155026954Y-126790438D01*
X154872693Y-126887367D01*
X154872691Y-126887368D01*
X154743861Y-127016198D01*
X154743860Y-127016200D01*
X154646931Y-127170461D01*
X154646930Y-127170464D01*
X154639143Y-127192720D01*
X154586756Y-127342433D01*
X154566357Y-127523480D01*
X135955462Y-127523480D01*
X135943542Y-127410072D01*
X135884527Y-127228444D01*
X135789040Y-127063056D01*
X135789038Y-127063054D01*
X135789034Y-127063048D01*
X135661255Y-126921135D01*
X135506752Y-126808882D01*
X135332288Y-126731206D01*
X135145487Y-126691500D01*
X134954513Y-126691500D01*
X134767711Y-126731206D01*
X134593247Y-126808882D01*
X134438744Y-126921135D01*
X134310965Y-127063048D01*
X134310958Y-127063058D01*
X134215476Y-127228438D01*
X134215473Y-127228445D01*
X134156457Y-127410072D01*
X134136496Y-127600000D01*
X132279773Y-127600000D01*
X132321651Y-127434626D01*
X132340927Y-127202000D01*
X132321651Y-126969374D01*
X132281009Y-126808882D01*
X132264350Y-126743096D01*
X132264347Y-126743089D01*
X132258721Y-126730264D01*
X132170584Y-126529331D01*
X132136634Y-126477366D01*
X132042914Y-126333916D01*
X131884825Y-126162186D01*
X131884821Y-126162182D01*
X131792718Y-126090496D01*
X131700617Y-126018810D01*
X131495327Y-125907713D01*
X131495324Y-125907712D01*
X131495323Y-125907711D01*
X131274555Y-125831921D01*
X131274548Y-125831919D01*
X131176011Y-125815476D01*
X131044312Y-125793500D01*
X130810888Y-125793500D01*
X130695666Y-125812727D01*
X130580651Y-125831919D01*
X130580644Y-125831921D01*
X130359876Y-125907711D01*
X130359873Y-125907713D01*
X130154585Y-126018809D01*
X130154583Y-126018810D01*
X129970378Y-126162182D01*
X129970374Y-126162186D01*
X129812285Y-126333916D01*
X129684615Y-126529331D01*
X129590852Y-126743089D01*
X129590849Y-126743096D01*
X129533550Y-126969366D01*
X129533549Y-126969372D01*
X129533549Y-126969374D01*
X129514273Y-127202000D01*
X127000000Y-127202000D01*
X127000000Y-124650649D01*
X129519100Y-124650649D01*
X129525609Y-124711196D01*
X129525611Y-124711204D01*
X129576710Y-124848202D01*
X129576712Y-124848207D01*
X129664338Y-124965261D01*
X129781392Y-125052887D01*
X129781394Y-125052888D01*
X129781396Y-125052889D01*
X129832843Y-125072078D01*
X129918395Y-125103988D01*
X129918403Y-125103990D01*
X129978950Y-125110499D01*
X129978955Y-125110499D01*
X129978962Y-125110500D01*
X129978968Y-125110500D01*
X131876232Y-125110500D01*
X131876238Y-125110500D01*
X131876245Y-125110499D01*
X131876249Y-125110499D01*
X131936796Y-125103990D01*
X131936799Y-125103989D01*
X131936801Y-125103989D01*
X132073804Y-125052889D01*
X132190861Y-124965261D01*
X132278489Y-124848204D01*
X132329589Y-124711201D01*
X132336100Y-124650638D01*
X132336100Y-123740000D01*
X164866384Y-123740000D01*
X164886783Y-123921047D01*
X164886783Y-123921049D01*
X164886784Y-123921050D01*
X164946957Y-124093015D01*
X164946958Y-124093018D01*
X165043887Y-124247279D01*
X165043888Y-124247281D01*
X165172718Y-124376111D01*
X165172720Y-124376112D01*
X165326981Y-124473041D01*
X165326982Y-124473041D01*
X165326985Y-124473043D01*
X165498953Y-124533217D01*
X165680000Y-124553616D01*
X165861047Y-124533217D01*
X166033015Y-124473043D01*
X166187281Y-124376111D01*
X166316111Y-124247281D01*
X166413043Y-124093015D01*
X166473217Y-123921047D01*
X166493616Y-123740000D01*
X166489334Y-123702000D01*
X169711673Y-123702000D01*
X169730950Y-123934633D01*
X169788249Y-124160903D01*
X169788252Y-124160910D01*
X169882015Y-124374668D01*
X170009685Y-124570083D01*
X170167774Y-124741813D01*
X170167778Y-124741817D01*
X170233650Y-124793087D01*
X170351983Y-124885190D01*
X170557273Y-124996287D01*
X170778049Y-125072080D01*
X171008288Y-125110500D01*
X171008292Y-125110500D01*
X171241708Y-125110500D01*
X171241712Y-125110500D01*
X171471951Y-125072080D01*
X171692727Y-124996287D01*
X171898017Y-124885190D01*
X172082220Y-124741818D01*
X172110403Y-124711204D01*
X172240314Y-124570083D01*
X172303714Y-124473042D01*
X172367984Y-124374669D01*
X172461749Y-124160907D01*
X172519051Y-123934626D01*
X172538327Y-123702000D01*
X172519051Y-123469374D01*
X172498186Y-123386981D01*
X172461750Y-123243096D01*
X172461747Y-123243089D01*
X172457198Y-123232719D01*
X172367984Y-123029331D01*
X172353366Y-123006957D01*
X172240314Y-122833916D01*
X172082225Y-122662186D01*
X172082221Y-122662182D01*
X171990118Y-122590496D01*
X171898017Y-122518810D01*
X171692727Y-122407713D01*
X171692724Y-122407712D01*
X171692723Y-122407711D01*
X171471955Y-122331921D01*
X171471948Y-122331919D01*
X171373411Y-122315476D01*
X171241712Y-122293500D01*
X171008288Y-122293500D01*
X170893066Y-122312727D01*
X170778051Y-122331919D01*
X170778044Y-122331921D01*
X170557276Y-122407711D01*
X170557273Y-122407713D01*
X170351985Y-122518809D01*
X170351983Y-122518810D01*
X170167778Y-122662182D01*
X170167774Y-122662186D01*
X170009685Y-122833916D01*
X169882015Y-123029331D01*
X169788252Y-123243089D01*
X169788249Y-123243096D01*
X169730950Y-123469366D01*
X169730949Y-123469372D01*
X169730949Y-123469374D01*
X169723527Y-123558949D01*
X169711673Y-123702000D01*
X166489334Y-123702000D01*
X166473217Y-123558953D01*
X166413043Y-123386985D01*
X166413041Y-123386982D01*
X166413041Y-123386981D01*
X166316112Y-123232720D01*
X166316111Y-123232718D01*
X166187281Y-123103888D01*
X166187279Y-123103887D01*
X166033018Y-123006958D01*
X166033015Y-123006957D01*
X165861050Y-122946784D01*
X165861049Y-122946783D01*
X165861047Y-122946783D01*
X165680000Y-122926384D01*
X165679999Y-122926384D01*
X165649183Y-122929856D01*
X165498953Y-122946783D01*
X165498950Y-122946783D01*
X165498949Y-122946784D01*
X165326984Y-123006957D01*
X165326981Y-123006958D01*
X165172720Y-123103887D01*
X165172718Y-123103888D01*
X165043888Y-123232718D01*
X165043887Y-123232720D01*
X164946958Y-123386981D01*
X164946957Y-123386984D01*
X164893900Y-123538615D01*
X164886783Y-123558953D01*
X164866384Y-123740000D01*
X132336100Y-123740000D01*
X132336100Y-122753362D01*
X132333051Y-122725000D01*
X143492008Y-122725000D01*
X143512407Y-122906047D01*
X143512407Y-122906049D01*
X143512408Y-122906050D01*
X143572581Y-123078015D01*
X143572582Y-123078018D01*
X143669511Y-123232279D01*
X143669512Y-123232281D01*
X143798342Y-123361111D01*
X143798344Y-123361112D01*
X143952605Y-123458041D01*
X143952606Y-123458041D01*
X143952609Y-123458043D01*
X144124577Y-123518217D01*
X144305624Y-123538616D01*
X144486671Y-123518217D01*
X144658639Y-123458043D01*
X144812905Y-123361111D01*
X144941735Y-123232281D01*
X145038667Y-123078015D01*
X145098841Y-122906047D01*
X145119240Y-122725000D01*
X145098841Y-122543953D01*
X145038667Y-122371985D01*
X145038665Y-122371982D01*
X145038665Y-122371981D01*
X144941736Y-122217720D01*
X144941735Y-122217718D01*
X144812905Y-122088888D01*
X144812903Y-122088887D01*
X144658642Y-121991958D01*
X144658639Y-121991957D01*
X144486674Y-121931784D01*
X144486673Y-121931783D01*
X144486671Y-121931783D01*
X144305624Y-121911384D01*
X144124577Y-121931783D01*
X144124574Y-121931783D01*
X144124573Y-121931784D01*
X143952608Y-121991957D01*
X143952605Y-121991958D01*
X143798344Y-122088887D01*
X143798342Y-122088888D01*
X143669512Y-122217718D01*
X143669511Y-122217720D01*
X143572582Y-122371981D01*
X143572581Y-122371984D01*
X143521205Y-122518810D01*
X143512407Y-122543953D01*
X143492008Y-122725000D01*
X132333051Y-122725000D01*
X132329590Y-122692803D01*
X132329588Y-122692795D01*
X132278489Y-122555797D01*
X132278487Y-122555792D01*
X132190861Y-122438738D01*
X132073807Y-122351112D01*
X132073802Y-122351110D01*
X131936804Y-122300011D01*
X131936796Y-122300009D01*
X131876249Y-122293500D01*
X131876238Y-122293500D01*
X129978962Y-122293500D01*
X129978950Y-122293500D01*
X129918403Y-122300009D01*
X129918395Y-122300011D01*
X129781397Y-122351110D01*
X129781392Y-122351112D01*
X129664338Y-122438738D01*
X129576712Y-122555792D01*
X129576710Y-122555797D01*
X129525611Y-122692795D01*
X129525609Y-122692803D01*
X129519100Y-122753350D01*
X129519100Y-124650649D01*
X127000000Y-124650649D01*
X127000000Y-120202000D01*
X129514273Y-120202000D01*
X129521892Y-120293953D01*
X129533550Y-120434633D01*
X129590849Y-120660903D01*
X129590852Y-120660910D01*
X129684615Y-120874668D01*
X129812285Y-121070083D01*
X129970374Y-121241813D01*
X129970378Y-121241817D01*
X130004297Y-121268217D01*
X130154583Y-121385190D01*
X130359873Y-121496287D01*
X130580649Y-121572080D01*
X130810888Y-121610500D01*
X130810892Y-121610500D01*
X131044308Y-121610500D01*
X131044312Y-121610500D01*
X131274551Y-121572080D01*
X131495327Y-121496287D01*
X131700617Y-121385190D01*
X131884820Y-121241818D01*
X131913003Y-121211204D01*
X132042914Y-121070083D01*
X132097775Y-120986112D01*
X132170584Y-120874669D01*
X132264349Y-120660907D01*
X132311427Y-120475000D01*
X137561384Y-120475000D01*
X137581783Y-120656047D01*
X137581783Y-120656049D01*
X137581784Y-120656050D01*
X137641957Y-120828015D01*
X137641958Y-120828018D01*
X137738887Y-120982279D01*
X137738888Y-120982281D01*
X137867718Y-121111111D01*
X137867720Y-121111112D01*
X138021981Y-121208041D01*
X138021982Y-121208041D01*
X138021985Y-121208043D01*
X138193953Y-121268217D01*
X138375000Y-121288616D01*
X138556047Y-121268217D01*
X138728015Y-121208043D01*
X138882281Y-121111111D01*
X139011111Y-120982281D01*
X139108043Y-120828015D01*
X139168217Y-120656047D01*
X139188616Y-120475000D01*
X139174532Y-120350000D01*
X153161384Y-120350000D01*
X153181783Y-120531047D01*
X153181783Y-120531049D01*
X153181784Y-120531050D01*
X153241957Y-120703015D01*
X153241958Y-120703018D01*
X153338887Y-120857279D01*
X153338888Y-120857281D01*
X153467718Y-120986111D01*
X153467720Y-120986112D01*
X153621981Y-121083041D01*
X153621982Y-121083041D01*
X153621985Y-121083043D01*
X153793953Y-121143217D01*
X153975000Y-121163616D01*
X154090086Y-121150649D01*
X169716500Y-121150649D01*
X169723009Y-121211196D01*
X169723011Y-121211204D01*
X169774110Y-121348202D01*
X169774112Y-121348207D01*
X169861738Y-121465261D01*
X169978792Y-121552887D01*
X169978794Y-121552888D01*
X169978796Y-121552889D01*
X170030243Y-121572078D01*
X170115795Y-121603988D01*
X170115803Y-121603990D01*
X170176350Y-121610499D01*
X170176355Y-121610499D01*
X170176362Y-121610500D01*
X170176368Y-121610500D01*
X172073632Y-121610500D01*
X172073638Y-121610500D01*
X172073645Y-121610499D01*
X172073649Y-121610499D01*
X172134196Y-121603990D01*
X172134199Y-121603989D01*
X172134201Y-121603989D01*
X172271204Y-121552889D01*
X172388261Y-121465261D01*
X172475889Y-121348204D01*
X172526989Y-121211201D01*
X172533500Y-121150638D01*
X172533500Y-119253362D01*
X172533499Y-119253350D01*
X172526990Y-119192803D01*
X172526988Y-119192795D01*
X172475889Y-119055797D01*
X172475887Y-119055792D01*
X172388261Y-118938738D01*
X172271207Y-118851112D01*
X172271202Y-118851110D01*
X172134204Y-118800011D01*
X172134196Y-118800009D01*
X172073649Y-118793500D01*
X172073638Y-118793500D01*
X170176362Y-118793500D01*
X170176350Y-118793500D01*
X170115803Y-118800009D01*
X170115795Y-118800011D01*
X169978797Y-118851110D01*
X169978792Y-118851112D01*
X169861738Y-118938738D01*
X169774112Y-119055792D01*
X169774110Y-119055797D01*
X169723011Y-119192795D01*
X169723009Y-119192803D01*
X169716500Y-119253350D01*
X169716500Y-121150649D01*
X154090086Y-121150649D01*
X154156047Y-121143217D01*
X154328015Y-121083043D01*
X154482281Y-120986111D01*
X154611111Y-120857281D01*
X154708043Y-120703015D01*
X154768217Y-120531047D01*
X154788616Y-120350000D01*
X154768217Y-120168953D01*
X154708043Y-119996985D01*
X154708041Y-119996982D01*
X154708041Y-119996981D01*
X154611112Y-119842720D01*
X154611111Y-119842718D01*
X154482281Y-119713888D01*
X154482279Y-119713887D01*
X154328018Y-119616958D01*
X154328015Y-119616957D01*
X154156050Y-119556784D01*
X154156049Y-119556783D01*
X154156047Y-119556783D01*
X153975000Y-119536384D01*
X153793953Y-119556783D01*
X153793950Y-119556783D01*
X153793949Y-119556784D01*
X153621984Y-119616957D01*
X153621981Y-119616958D01*
X153467720Y-119713887D01*
X153467718Y-119713888D01*
X153338888Y-119842718D01*
X153338887Y-119842720D01*
X153241958Y-119996981D01*
X153241957Y-119996984D01*
X153198218Y-120121985D01*
X153181783Y-120168953D01*
X153161384Y-120350000D01*
X139174532Y-120350000D01*
X139168217Y-120293953D01*
X139108043Y-120121985D01*
X139108041Y-120121982D01*
X139108041Y-120121981D01*
X139011112Y-119967720D01*
X139011111Y-119967718D01*
X138882281Y-119838888D01*
X138882279Y-119838887D01*
X138728018Y-119741958D01*
X138728015Y-119741957D01*
X138556050Y-119681784D01*
X138556049Y-119681783D01*
X138556047Y-119681783D01*
X138375000Y-119661384D01*
X138193953Y-119681783D01*
X138193950Y-119681783D01*
X138193949Y-119681784D01*
X138021984Y-119741957D01*
X138021981Y-119741958D01*
X137867720Y-119838887D01*
X137867718Y-119838888D01*
X137738888Y-119967718D01*
X137738887Y-119967720D01*
X137641958Y-120121981D01*
X137641957Y-120121984D01*
X137613959Y-120202000D01*
X137581783Y-120293953D01*
X137561384Y-120475000D01*
X132311427Y-120475000D01*
X132321651Y-120434626D01*
X132340927Y-120202000D01*
X132321651Y-119969374D01*
X132321232Y-119967718D01*
X132264350Y-119743096D01*
X132264347Y-119743089D01*
X132263850Y-119741957D01*
X132170584Y-119529331D01*
X132042914Y-119333916D01*
X131884825Y-119162186D01*
X131884821Y-119162182D01*
X131792718Y-119090496D01*
X131700617Y-119018810D01*
X131495327Y-118907713D01*
X131495324Y-118907712D01*
X131495323Y-118907711D01*
X131274555Y-118831921D01*
X131274548Y-118831919D01*
X131176011Y-118815476D01*
X131044312Y-118793500D01*
X130810888Y-118793500D01*
X130695666Y-118812727D01*
X130580651Y-118831919D01*
X130580644Y-118831921D01*
X130359876Y-118907711D01*
X130359873Y-118907713D01*
X130154585Y-119018809D01*
X130154583Y-119018810D01*
X129970378Y-119162182D01*
X129970374Y-119162186D01*
X129812285Y-119333916D01*
X129684615Y-119529331D01*
X129590852Y-119743089D01*
X129590849Y-119743096D01*
X129533550Y-119969366D01*
X129533549Y-119969372D01*
X129533549Y-119969374D01*
X129514273Y-120202000D01*
X127000000Y-120202000D01*
X127000000Y-118600000D01*
X149036384Y-118600000D01*
X149056783Y-118781047D01*
X149056783Y-118781049D01*
X149056784Y-118781050D01*
X149116957Y-118953015D01*
X149116958Y-118953018D01*
X149213887Y-119107279D01*
X149213888Y-119107281D01*
X149342718Y-119236111D01*
X149342720Y-119236112D01*
X149496981Y-119333041D01*
X149496982Y-119333041D01*
X149496985Y-119333043D01*
X149668953Y-119393217D01*
X149850000Y-119413616D01*
X150031047Y-119393217D01*
X150203015Y-119333043D01*
X150215815Y-119325000D01*
X160861859Y-119325000D01*
X160880366Y-119489252D01*
X160925052Y-119616957D01*
X160934958Y-119645267D01*
X160934959Y-119645269D01*
X161022897Y-119785223D01*
X161139776Y-119902102D01*
X161244204Y-119967718D01*
X161279733Y-119990042D01*
X161435748Y-120044634D01*
X161600000Y-120063141D01*
X161764252Y-120044634D01*
X161920267Y-119990042D01*
X162060223Y-119902102D01*
X162177102Y-119785223D01*
X162265042Y-119645267D01*
X162319634Y-119489252D01*
X162338141Y-119325000D01*
X162319634Y-119160748D01*
X162265042Y-119004733D01*
X162251437Y-118983081D01*
X162177102Y-118864776D01*
X162140290Y-118827964D01*
X162106264Y-118765652D01*
X162111329Y-118694837D01*
X162153876Y-118638001D01*
X162162318Y-118632202D01*
X162210223Y-118602102D01*
X162327102Y-118485223D01*
X162415042Y-118345267D01*
X162469634Y-118189252D01*
X162488141Y-118025000D01*
X162469634Y-117860748D01*
X162415042Y-117704733D01*
X162381019Y-117650585D01*
X162327102Y-117564776D01*
X162210223Y-117447897D01*
X162070269Y-117359959D01*
X162070267Y-117359958D01*
X162047816Y-117352102D01*
X161914252Y-117305366D01*
X161750000Y-117286859D01*
X161585748Y-117305366D01*
X161585745Y-117305366D01*
X161585745Y-117305367D01*
X161429732Y-117359958D01*
X161429730Y-117359959D01*
X161289776Y-117447897D01*
X161172897Y-117564776D01*
X161084959Y-117704730D01*
X161084958Y-117704732D01*
X161071981Y-117741818D01*
X161030366Y-117860748D01*
X161011859Y-118025000D01*
X161030366Y-118189252D01*
X161030367Y-118189254D01*
X161084958Y-118345267D01*
X161084959Y-118345269D01*
X161172897Y-118485223D01*
X161209708Y-118522034D01*
X161243734Y-118584346D01*
X161238669Y-118655161D01*
X161196122Y-118711997D01*
X161187651Y-118717815D01*
X161139776Y-118747897D01*
X161022897Y-118864776D01*
X160934959Y-119004730D01*
X160934958Y-119004732D01*
X160899075Y-119107281D01*
X160880366Y-119160748D01*
X160861859Y-119325000D01*
X150215815Y-119325000D01*
X150357281Y-119236111D01*
X150486111Y-119107281D01*
X150583043Y-118953015D01*
X150643217Y-118781047D01*
X150663616Y-118600000D01*
X150643217Y-118418953D01*
X150583043Y-118246985D01*
X150583041Y-118246982D01*
X150583041Y-118246981D01*
X150486112Y-118092720D01*
X150486111Y-118092718D01*
X150357281Y-117963888D01*
X150357279Y-117963887D01*
X150203018Y-117866958D01*
X150203015Y-117866957D01*
X150031050Y-117806784D01*
X150031049Y-117806783D01*
X150031047Y-117806783D01*
X149850000Y-117786384D01*
X149668953Y-117806783D01*
X149668950Y-117806783D01*
X149668949Y-117806784D01*
X149496984Y-117866957D01*
X149496981Y-117866958D01*
X149342720Y-117963887D01*
X149342718Y-117963888D01*
X149213888Y-118092718D01*
X149213887Y-118092720D01*
X149116958Y-118246981D01*
X149116957Y-118246984D01*
X149071277Y-118377532D01*
X149056783Y-118418953D01*
X149036384Y-118600000D01*
X127000000Y-118600000D01*
X127000000Y-117650597D01*
X129519600Y-117650597D01*
X129526105Y-117711093D01*
X129577155Y-117847964D01*
X129577155Y-117847965D01*
X129664695Y-117964904D01*
X129781634Y-118052444D01*
X129918506Y-118103494D01*
X129979002Y-118109999D01*
X129979015Y-118110000D01*
X130673600Y-118110000D01*
X130673600Y-117246224D01*
X130770969Y-117286556D01*
X130888277Y-117302000D01*
X130966923Y-117302000D01*
X131084231Y-117286556D01*
X131181600Y-117246224D01*
X131181600Y-118110000D01*
X131876185Y-118110000D01*
X131876197Y-118109999D01*
X131936693Y-118103494D01*
X132073564Y-118052444D01*
X132073565Y-118052444D01*
X132190504Y-117964904D01*
X132278044Y-117847965D01*
X132278044Y-117847964D01*
X132329094Y-117711093D01*
X132335599Y-117650597D01*
X132335600Y-117650585D01*
X132335600Y-116956000D01*
X131471825Y-116956000D01*
X131512156Y-116858631D01*
X131523166Y-116775000D01*
X151211859Y-116775000D01*
X151230366Y-116939252D01*
X151261373Y-117027864D01*
X151284958Y-117095267D01*
X151284959Y-117095269D01*
X151372897Y-117235223D01*
X151489776Y-117352102D01*
X151525692Y-117374669D01*
X151629733Y-117440042D01*
X151785748Y-117494634D01*
X151950000Y-117513141D01*
X152114252Y-117494634D01*
X152270267Y-117440042D01*
X152410223Y-117352102D01*
X152527102Y-117235223D01*
X152615042Y-117095267D01*
X152669634Y-116939252D01*
X152688141Y-116775000D01*
X152669634Y-116610748D01*
X152615042Y-116454733D01*
X152580281Y-116399411D01*
X152527102Y-116314776D01*
X152410223Y-116197897D01*
X152270269Y-116109959D01*
X152270267Y-116109958D01*
X152247524Y-116102000D01*
X152170363Y-116075000D01*
X163111859Y-116075000D01*
X163130366Y-116239252D01*
X163130367Y-116239254D01*
X163184958Y-116395267D01*
X163184959Y-116395269D01*
X163272897Y-116535223D01*
X163389776Y-116652102D01*
X163469189Y-116702000D01*
X163529733Y-116740042D01*
X163685748Y-116794634D01*
X163850000Y-116813141D01*
X163850003Y-116813140D01*
X163853753Y-116813563D01*
X163919206Y-116841067D01*
X163959398Y-116899591D01*
X163961571Y-116970554D01*
X163928743Y-117027864D01*
X163913886Y-117042721D01*
X163816958Y-117196981D01*
X163816957Y-117196984D01*
X163779033Y-117305367D01*
X163756783Y-117368953D01*
X163736384Y-117550000D01*
X163756783Y-117731047D01*
X163756783Y-117731049D01*
X163756784Y-117731050D01*
X163816957Y-117903015D01*
X163816958Y-117903018D01*
X163913887Y-118057279D01*
X163913888Y-118057281D01*
X164042718Y-118186111D01*
X164042720Y-118186112D01*
X164196981Y-118283041D01*
X164196982Y-118283041D01*
X164196985Y-118283043D01*
X164368953Y-118343217D01*
X164429424Y-118350030D01*
X164494874Y-118377532D01*
X164535067Y-118436056D01*
X164537240Y-118507019D01*
X164500702Y-118567892D01*
X164437054Y-118599347D01*
X164429424Y-118600444D01*
X164385752Y-118605365D01*
X164385745Y-118605366D01*
X164229732Y-118659958D01*
X164229730Y-118659959D01*
X164089776Y-118747897D01*
X163972897Y-118864776D01*
X163884959Y-119004730D01*
X163884958Y-119004732D01*
X163849075Y-119107281D01*
X163830366Y-119160748D01*
X163811859Y-119325000D01*
X163830366Y-119489252D01*
X163875052Y-119616957D01*
X163884958Y-119645267D01*
X163884959Y-119645269D01*
X163972897Y-119785223D01*
X164089776Y-119902102D01*
X164194204Y-119967718D01*
X164229733Y-119990042D01*
X164385748Y-120044634D01*
X164550000Y-120063141D01*
X164714252Y-120044634D01*
X164870267Y-119990042D01*
X165010223Y-119902102D01*
X165127102Y-119785223D01*
X165215042Y-119645267D01*
X165269634Y-119489252D01*
X165288141Y-119325000D01*
X165269634Y-119160748D01*
X165215042Y-119004733D01*
X165201437Y-118983081D01*
X165127102Y-118864776D01*
X165010223Y-118747897D01*
X164870269Y-118659959D01*
X164870267Y-118659958D01*
X164714255Y-118605367D01*
X164714254Y-118605366D01*
X164714252Y-118605366D01*
X164670575Y-118600444D01*
X164605123Y-118572940D01*
X164564931Y-118514416D01*
X164562760Y-118443452D01*
X164599299Y-118382580D01*
X164662948Y-118351126D01*
X164670539Y-118350034D01*
X164731047Y-118343217D01*
X164903015Y-118283043D01*
X165057281Y-118186111D01*
X165186111Y-118057281D01*
X165283043Y-117903015D01*
X165343217Y-117731047D01*
X165363616Y-117550000D01*
X165343217Y-117368953D01*
X165283043Y-117196985D01*
X165283041Y-117196982D01*
X165283041Y-117196981D01*
X165186112Y-117042720D01*
X165186111Y-117042718D01*
X165057281Y-116913888D01*
X165057279Y-116913887D01*
X164903018Y-116816958D01*
X164903015Y-116816957D01*
X164731050Y-116756784D01*
X164731049Y-116756783D01*
X164731047Y-116756783D01*
X164550000Y-116736384D01*
X164549998Y-116736384D01*
X164549997Y-116736384D01*
X164549995Y-116736384D01*
X164540984Y-116737399D01*
X164471052Y-116725147D01*
X164445936Y-116702000D01*
X169711673Y-116702000D01*
X169723196Y-116841067D01*
X169730950Y-116934633D01*
X169788249Y-117160903D01*
X169788252Y-117160910D01*
X169882015Y-117374668D01*
X170009685Y-117570083D01*
X170167774Y-117741813D01*
X170167778Y-117741817D01*
X170225038Y-117786384D01*
X170351983Y-117885190D01*
X170557273Y-117996287D01*
X170778049Y-118072080D01*
X171008288Y-118110500D01*
X171008292Y-118110500D01*
X171241708Y-118110500D01*
X171241712Y-118110500D01*
X171471951Y-118072080D01*
X171692727Y-117996287D01*
X171898017Y-117885190D01*
X172082220Y-117741818D01*
X172092136Y-117731047D01*
X172240314Y-117570083D01*
X172277516Y-117513141D01*
X172367984Y-117374669D01*
X172461749Y-117160907D01*
X172519051Y-116934626D01*
X172538327Y-116702000D01*
X172519051Y-116469374D01*
X172461749Y-116243093D01*
X172367984Y-116029331D01*
X172367983Y-116029330D01*
X172240314Y-115833916D01*
X172082225Y-115662186D01*
X172082221Y-115662182D01*
X171990118Y-115590496D01*
X171898017Y-115518810D01*
X171692727Y-115407713D01*
X171692724Y-115407712D01*
X171692723Y-115407711D01*
X171471955Y-115331921D01*
X171471948Y-115331919D01*
X171373411Y-115315476D01*
X171241712Y-115293500D01*
X171008288Y-115293500D01*
X170893066Y-115312727D01*
X170778051Y-115331919D01*
X170778044Y-115331921D01*
X170557276Y-115407711D01*
X170557273Y-115407713D01*
X170351985Y-115518809D01*
X170351983Y-115518810D01*
X170167778Y-115662182D01*
X170167774Y-115662186D01*
X170009685Y-115833916D01*
X169882015Y-116029331D01*
X169788252Y-116243089D01*
X169788249Y-116243096D01*
X169730950Y-116469366D01*
X169730949Y-116469372D01*
X169730949Y-116469374D01*
X169711673Y-116702000D01*
X164445936Y-116702000D01*
X164418846Y-116677033D01*
X164400940Y-116608331D01*
X164423020Y-116540855D01*
X164426601Y-116536020D01*
X164427102Y-116535223D01*
X164515042Y-116395267D01*
X164569634Y-116239252D01*
X164588141Y-116075000D01*
X164569634Y-115910748D01*
X164515042Y-115754733D01*
X164456891Y-115662186D01*
X164427102Y-115614776D01*
X164310223Y-115497897D01*
X164170269Y-115409959D01*
X164170267Y-115409958D01*
X164163845Y-115407711D01*
X164014252Y-115355366D01*
X163850000Y-115336859D01*
X163849999Y-115336859D01*
X163826107Y-115339551D01*
X163685748Y-115355366D01*
X163685745Y-115355366D01*
X163685745Y-115355367D01*
X163529732Y-115409958D01*
X163529730Y-115409959D01*
X163389776Y-115497897D01*
X163272897Y-115614776D01*
X163184959Y-115754730D01*
X163184958Y-115754732D01*
X163155632Y-115838541D01*
X163130366Y-115910748D01*
X163111859Y-116075000D01*
X152170363Y-116075000D01*
X152114252Y-116055366D01*
X151950000Y-116036859D01*
X151785748Y-116055366D01*
X151785745Y-116055366D01*
X151785745Y-116055367D01*
X151629732Y-116109958D01*
X151629730Y-116109959D01*
X151489776Y-116197897D01*
X151372897Y-116314776D01*
X151284959Y-116454730D01*
X151284958Y-116454732D01*
X151253243Y-116545369D01*
X151230366Y-116610748D01*
X151211859Y-116775000D01*
X131523166Y-116775000D01*
X131532777Y-116702000D01*
X131512156Y-116545369D01*
X131471825Y-116448000D01*
X132335600Y-116448000D01*
X132335600Y-115753414D01*
X132335599Y-115753402D01*
X132329094Y-115692906D01*
X132278044Y-115556035D01*
X132278044Y-115556034D01*
X132190504Y-115439095D01*
X132073565Y-115351555D01*
X131936693Y-115300505D01*
X131876197Y-115294000D01*
X131181600Y-115294000D01*
X131181600Y-116157775D01*
X131084231Y-116117444D01*
X130966923Y-116102000D01*
X130888277Y-116102000D01*
X130770969Y-116117444D01*
X130673600Y-116157775D01*
X130673600Y-115294000D01*
X129979002Y-115294000D01*
X129918506Y-115300505D01*
X129781635Y-115351555D01*
X129781634Y-115351555D01*
X129664695Y-115439095D01*
X129577155Y-115556034D01*
X129577155Y-115556035D01*
X129526105Y-115692906D01*
X129519600Y-115753402D01*
X129519600Y-116448000D01*
X130383375Y-116448000D01*
X130343044Y-116545369D01*
X130322423Y-116702000D01*
X130343044Y-116858631D01*
X130383375Y-116956000D01*
X129519600Y-116956000D01*
X129519600Y-117650597D01*
X127000000Y-117650597D01*
X127000000Y-115173500D01*
X152661859Y-115173500D01*
X152680366Y-115337752D01*
X152734957Y-115493767D01*
X152734958Y-115493767D01*
X152734959Y-115493769D01*
X152822897Y-115633723D01*
X152939776Y-115750602D01*
X153058081Y-115824937D01*
X153079733Y-115838542D01*
X153235748Y-115893134D01*
X153400000Y-115911641D01*
X153564252Y-115893134D01*
X153720267Y-115838542D01*
X153860223Y-115750602D01*
X153977102Y-115633723D01*
X154065042Y-115493767D01*
X154119634Y-115337752D01*
X154138141Y-115173500D01*
X154129569Y-115097421D01*
X161097859Y-115097421D01*
X161116366Y-115261673D01*
X161140947Y-115331921D01*
X161170958Y-115417688D01*
X161170959Y-115417690D01*
X161258897Y-115557644D01*
X161375776Y-115674523D01*
X161405033Y-115692906D01*
X161515733Y-115762463D01*
X161671748Y-115817055D01*
X161836000Y-115835562D01*
X162000252Y-115817055D01*
X162156267Y-115762463D01*
X162296223Y-115674523D01*
X162413102Y-115557644D01*
X162501042Y-115417688D01*
X162555634Y-115261673D01*
X162574141Y-115097421D01*
X162555634Y-114933169D01*
X162501042Y-114777154D01*
X162460905Y-114713276D01*
X162413102Y-114637197D01*
X162296223Y-114520318D01*
X162156269Y-114432380D01*
X162156267Y-114432379D01*
X162136542Y-114425477D01*
X162000252Y-114377787D01*
X161836000Y-114359280D01*
X161835999Y-114359280D01*
X161812107Y-114361972D01*
X161671748Y-114377787D01*
X161671745Y-114377787D01*
X161671745Y-114377788D01*
X161515732Y-114432379D01*
X161515730Y-114432380D01*
X161375776Y-114520318D01*
X161258897Y-114637197D01*
X161170959Y-114777151D01*
X161170958Y-114777153D01*
X161144338Y-114853230D01*
X161116366Y-114933169D01*
X161097859Y-115097421D01*
X154129569Y-115097421D01*
X154119634Y-115009248D01*
X154065042Y-114853233D01*
X154022309Y-114785223D01*
X153977102Y-114713276D01*
X153860223Y-114596397D01*
X153720269Y-114508459D01*
X153720267Y-114508458D01*
X153667637Y-114490042D01*
X153564252Y-114453866D01*
X153400000Y-114435359D01*
X153235748Y-114453866D01*
X153235745Y-114453866D01*
X153235745Y-114453867D01*
X153079732Y-114508458D01*
X153079730Y-114508459D01*
X152939776Y-114596397D01*
X152822897Y-114713276D01*
X152734959Y-114853230D01*
X152734958Y-114853232D01*
X152704582Y-114940042D01*
X152680366Y-115009248D01*
X152661859Y-115173500D01*
X127000000Y-115173500D01*
X127000000Y-114275000D01*
X137086859Y-114275000D01*
X137105366Y-114439252D01*
X137123137Y-114490039D01*
X137159958Y-114595267D01*
X137159959Y-114595269D01*
X137247897Y-114735223D01*
X137364776Y-114852102D01*
X137483081Y-114926437D01*
X137504733Y-114940042D01*
X137660748Y-114994634D01*
X137825000Y-115013141D01*
X137989252Y-114994634D01*
X138145267Y-114940042D01*
X138285223Y-114852102D01*
X138402102Y-114735223D01*
X138490042Y-114595267D01*
X138529268Y-114483164D01*
X138570643Y-114425477D01*
X138636643Y-114399314D01*
X138706311Y-114412986D01*
X138715231Y-114418096D01*
X138828479Y-114489254D01*
X138829733Y-114490042D01*
X138860667Y-114500866D01*
X138918360Y-114542243D01*
X138937982Y-114578179D01*
X138958634Y-114637198D01*
X138961459Y-114645269D01*
X139049397Y-114785223D01*
X139166276Y-114902102D01*
X139226658Y-114940042D01*
X139306233Y-114990042D01*
X139462248Y-115044634D01*
X139626500Y-115063141D01*
X139790752Y-115044634D01*
X139946767Y-114990042D01*
X140086723Y-114902102D01*
X140203602Y-114785223D01*
X140291542Y-114645267D01*
X140346134Y-114489252D01*
X140364641Y-114325000D01*
X140361993Y-114301500D01*
X150936859Y-114301500D01*
X150955366Y-114465752D01*
X150994706Y-114578180D01*
X151009958Y-114621767D01*
X151009959Y-114621769D01*
X151097897Y-114761723D01*
X151214776Y-114878602D01*
X151301615Y-114933166D01*
X151354733Y-114966542D01*
X151510748Y-115021134D01*
X151675000Y-115039641D01*
X151839252Y-115021134D01*
X151995267Y-114966542D01*
X152135223Y-114878602D01*
X152252102Y-114761723D01*
X152340042Y-114621767D01*
X152394634Y-114465752D01*
X152413141Y-114301500D01*
X152394634Y-114137248D01*
X152340042Y-113981233D01*
X152305087Y-113925602D01*
X152252102Y-113841276D01*
X152135223Y-113724397D01*
X151995269Y-113636459D01*
X151995267Y-113636458D01*
X151919534Y-113609958D01*
X151839252Y-113581866D01*
X151675000Y-113563359D01*
X151674999Y-113563359D01*
X151651107Y-113566051D01*
X151510748Y-113581866D01*
X151510745Y-113581866D01*
X151510745Y-113581867D01*
X151354732Y-113636458D01*
X151354730Y-113636459D01*
X151214776Y-113724397D01*
X151097897Y-113841276D01*
X151009959Y-113981230D01*
X151009958Y-113981232D01*
X150992689Y-114030584D01*
X150955366Y-114137248D01*
X150936859Y-114301500D01*
X140361993Y-114301500D01*
X140346134Y-114160748D01*
X140346130Y-114160737D01*
X140345669Y-114158715D01*
X140345751Y-114157363D01*
X140345341Y-114153717D01*
X140345979Y-114153645D01*
X140350011Y-114087851D01*
X140391975Y-114030584D01*
X140415906Y-114017680D01*
X140415392Y-114016612D01*
X140421759Y-114013544D01*
X140421767Y-114013542D01*
X140561723Y-113925602D01*
X140678602Y-113808723D01*
X140766542Y-113668767D01*
X140821134Y-113512752D01*
X140839641Y-113348500D01*
X140821134Y-113184248D01*
X140766542Y-113028233D01*
X140752937Y-113006581D01*
X140678602Y-112888276D01*
X140561723Y-112771397D01*
X140421769Y-112683459D01*
X140421767Y-112683458D01*
X140421766Y-112683457D01*
X140265752Y-112628866D01*
X140101500Y-112610359D01*
X140101499Y-112610359D01*
X140077607Y-112613051D01*
X139937248Y-112628866D01*
X139937245Y-112628866D01*
X139937245Y-112628867D01*
X139781232Y-112683458D01*
X139781230Y-112683459D01*
X139641276Y-112771397D01*
X139524397Y-112888276D01*
X139436458Y-113028231D01*
X139433722Y-113033913D01*
X139386142Y-113086607D01*
X139317627Y-113105213D01*
X139306098Y-113104447D01*
X139150000Y-113086859D01*
X138985748Y-113105366D01*
X138985745Y-113105366D01*
X138985745Y-113105367D01*
X138829732Y-113159958D01*
X138829730Y-113159959D01*
X138689776Y-113247897D01*
X138572897Y-113364776D01*
X138484959Y-113504730D01*
X138484958Y-113504732D01*
X138445733Y-113616831D01*
X138404355Y-113674523D01*
X138338354Y-113700685D01*
X138268687Y-113687012D01*
X138259768Y-113681903D01*
X138145270Y-113609959D01*
X138145267Y-113609958D01*
X137989252Y-113555366D01*
X137825000Y-113536859D01*
X137660748Y-113555366D01*
X137660745Y-113555366D01*
X137660745Y-113555367D01*
X137504732Y-113609958D01*
X137504730Y-113609959D01*
X137364776Y-113697897D01*
X137247897Y-113814776D01*
X137159959Y-113954730D01*
X137159958Y-113954732D01*
X137113378Y-114087851D01*
X137105366Y-114110748D01*
X137086859Y-114275000D01*
X127000000Y-114275000D01*
X127000000Y-112421794D01*
X127000070Y-112315042D01*
X127000500Y-111650000D01*
X134561859Y-111650000D01*
X134580366Y-111814252D01*
X134580367Y-111814254D01*
X134634958Y-111970267D01*
X134634959Y-111970269D01*
X134722897Y-112110223D01*
X134839776Y-112227102D01*
X134958081Y-112301437D01*
X134979733Y-112315042D01*
X135135748Y-112369634D01*
X135300000Y-112388141D01*
X135464252Y-112369634D01*
X135620267Y-112315042D01*
X135760223Y-112227102D01*
X135877102Y-112110223D01*
X135965042Y-111970267D01*
X136019634Y-111814252D01*
X136038141Y-111650000D01*
X136019634Y-111485748D01*
X135965042Y-111329733D01*
X135951437Y-111308081D01*
X135877102Y-111189776D01*
X135760223Y-111072897D01*
X135620269Y-110984959D01*
X135620267Y-110984958D01*
X135620266Y-110984958D01*
X135464252Y-110930366D01*
X135300000Y-110911859D01*
X135135748Y-110930366D01*
X135135745Y-110930366D01*
X135135745Y-110930367D01*
X134979732Y-110984958D01*
X134979730Y-110984959D01*
X134839776Y-111072897D01*
X134722897Y-111189776D01*
X134634959Y-111329730D01*
X134634958Y-111329732D01*
X134603139Y-111420664D01*
X134580366Y-111485748D01*
X134561859Y-111650000D01*
X127000500Y-111650000D01*
X127001453Y-110176500D01*
X136091859Y-110176500D01*
X136110366Y-110340752D01*
X136110367Y-110340754D01*
X136164958Y-110496767D01*
X136164959Y-110496769D01*
X136252897Y-110636723D01*
X136369776Y-110753602D01*
X136488081Y-110827937D01*
X136509733Y-110841542D01*
X136665748Y-110896134D01*
X136830000Y-110914641D01*
X136994252Y-110896134D01*
X137150267Y-110841542D01*
X137290223Y-110753602D01*
X137407102Y-110636723D01*
X137486727Y-110510000D01*
X140101635Y-110510000D01*
X140121056Y-110731986D01*
X140126848Y-110753602D01*
X140178729Y-110947225D01*
X140178731Y-110947230D01*
X140272902Y-111149182D01*
X140400718Y-111331720D01*
X140558279Y-111489281D01*
X140558282Y-111489283D01*
X140558283Y-111489284D01*
X140740817Y-111617097D01*
X140942773Y-111711270D01*
X141158014Y-111768944D01*
X141380000Y-111788365D01*
X141601986Y-111768944D01*
X141817227Y-111711270D01*
X142019183Y-111617097D01*
X142201717Y-111489284D01*
X142359284Y-111331717D01*
X142487097Y-111149183D01*
X142581270Y-110947227D01*
X142638944Y-110731986D01*
X142658365Y-110510000D01*
X155341635Y-110510000D01*
X155361056Y-110731986D01*
X155366848Y-110753602D01*
X155418729Y-110947225D01*
X155418731Y-110947230D01*
X155512902Y-111149182D01*
X155640718Y-111331720D01*
X155798279Y-111489281D01*
X155798282Y-111489283D01*
X155798283Y-111489284D01*
X155980817Y-111617097D01*
X156182773Y-111711270D01*
X156398014Y-111768944D01*
X156620000Y-111788365D01*
X156841986Y-111768944D01*
X157057227Y-111711270D01*
X157259183Y-111617097D01*
X157441717Y-111489284D01*
X157599284Y-111331717D01*
X157727097Y-111149183D01*
X157821270Y-110947227D01*
X157878944Y-110731986D01*
X157898365Y-110510000D01*
X157878944Y-110288014D01*
X157821270Y-110072773D01*
X157727097Y-109870818D01*
X157599284Y-109688283D01*
X157599283Y-109688282D01*
X157599280Y-109688278D01*
X157441720Y-109530718D01*
X157309819Y-109438359D01*
X157259183Y-109402903D01*
X157259179Y-109402901D01*
X157259178Y-109402900D01*
X157154728Y-109354195D01*
X157101442Y-109307278D01*
X157081981Y-109239001D01*
X157102522Y-109171041D01*
X157154728Y-109125805D01*
X157239852Y-109086111D01*
X157259183Y-109077097D01*
X157441717Y-108949284D01*
X157599284Y-108791717D01*
X157727097Y-108609183D01*
X157821270Y-108407227D01*
X157878944Y-108191986D01*
X157898365Y-107970000D01*
X157878944Y-107748014D01*
X157821270Y-107532773D01*
X157727097Y-107330818D01*
X157599284Y-107148283D01*
X157599283Y-107148282D01*
X157599280Y-107148278D01*
X157441720Y-106990718D01*
X157321849Y-106906783D01*
X157259183Y-106862903D01*
X157259179Y-106862901D01*
X157259178Y-106862900D01*
X157154728Y-106814195D01*
X157101442Y-106767278D01*
X157081981Y-106699001D01*
X157102522Y-106631041D01*
X157154728Y-106585805D01*
X157231512Y-106550000D01*
X157259183Y-106537097D01*
X157312162Y-106500000D01*
X160961384Y-106500000D01*
X160981783Y-106681047D01*
X160981783Y-106681049D01*
X160981784Y-106681050D01*
X161041957Y-106853015D01*
X161041958Y-106853018D01*
X161138887Y-107007279D01*
X161138888Y-107007281D01*
X161267718Y-107136111D01*
X161267720Y-107136112D01*
X161421981Y-107233041D01*
X161421982Y-107233041D01*
X161421985Y-107233043D01*
X161593953Y-107293217D01*
X161775000Y-107313616D01*
X161956047Y-107293217D01*
X162128015Y-107233043D01*
X162282281Y-107136111D01*
X162411111Y-107007281D01*
X162508043Y-106853015D01*
X162568217Y-106681047D01*
X162588616Y-106500000D01*
X162568217Y-106318953D01*
X162508043Y-106146985D01*
X162508041Y-106146982D01*
X162508041Y-106146981D01*
X162411112Y-105992720D01*
X162411111Y-105992718D01*
X162282281Y-105863888D01*
X162282279Y-105863887D01*
X162128018Y-105766958D01*
X162128015Y-105766957D01*
X161956050Y-105706784D01*
X161956049Y-105706783D01*
X161956047Y-105706783D01*
X161775000Y-105686384D01*
X161593953Y-105706783D01*
X161593950Y-105706783D01*
X161593949Y-105706784D01*
X161421984Y-105766957D01*
X161421981Y-105766958D01*
X161267720Y-105863887D01*
X161267718Y-105863888D01*
X161138888Y-105992718D01*
X161138887Y-105992720D01*
X161041958Y-106146981D01*
X161041957Y-106146984D01*
X161005309Y-106251720D01*
X160981783Y-106318953D01*
X160961384Y-106500000D01*
X157312162Y-106500000D01*
X157441717Y-106409284D01*
X157599284Y-106251717D01*
X157727097Y-106069183D01*
X157821270Y-105867227D01*
X157878944Y-105651986D01*
X157898365Y-105430000D01*
X157878944Y-105208014D01*
X157821270Y-104992773D01*
X157727097Y-104790818D01*
X157599284Y-104608283D01*
X157599283Y-104608282D01*
X157599280Y-104608278D01*
X157441720Y-104450718D01*
X157405055Y-104425045D01*
X157259183Y-104322903D01*
X157259179Y-104322901D01*
X157259178Y-104322900D01*
X157154728Y-104274195D01*
X157101442Y-104227278D01*
X157081981Y-104159001D01*
X157102522Y-104091041D01*
X157154728Y-104045805D01*
X157188600Y-104030009D01*
X157259183Y-103997097D01*
X157441717Y-103869284D01*
X157599284Y-103711717D01*
X157727097Y-103529183D01*
X157821270Y-103327227D01*
X157878944Y-103111986D01*
X157898365Y-102890000D01*
X157886117Y-102750000D01*
X161286384Y-102750000D01*
X161306783Y-102931047D01*
X161306783Y-102931049D01*
X161306784Y-102931050D01*
X161366957Y-103103015D01*
X161366958Y-103103018D01*
X161463887Y-103257279D01*
X161463888Y-103257281D01*
X161592718Y-103386111D01*
X161592720Y-103386112D01*
X161746981Y-103483041D01*
X161746982Y-103483041D01*
X161746985Y-103483043D01*
X161918953Y-103543217D01*
X162100000Y-103563616D01*
X162281047Y-103543217D01*
X162453015Y-103483043D01*
X162607281Y-103386111D01*
X162736111Y-103257281D01*
X162833043Y-103103015D01*
X162893217Y-102931047D01*
X162913616Y-102750000D01*
X162910799Y-102725000D01*
X163311384Y-102725000D01*
X163331783Y-102906047D01*
X163331783Y-102906049D01*
X163331784Y-102906050D01*
X163391957Y-103078015D01*
X163391958Y-103078018D01*
X163488887Y-103232279D01*
X163488888Y-103232281D01*
X163617718Y-103361111D01*
X163617720Y-103361112D01*
X163771981Y-103458041D01*
X163771982Y-103458041D01*
X163771985Y-103458043D01*
X163943953Y-103518217D01*
X164125000Y-103538616D01*
X164306047Y-103518217D01*
X164478015Y-103458043D01*
X164632281Y-103361111D01*
X164761111Y-103232281D01*
X164858043Y-103078015D01*
X164918217Y-102906047D01*
X164938616Y-102725000D01*
X164918217Y-102543953D01*
X164858043Y-102371985D01*
X164858041Y-102371982D01*
X164858041Y-102371981D01*
X164761112Y-102217720D01*
X164761111Y-102217718D01*
X164632281Y-102088888D01*
X164632279Y-102088887D01*
X164478018Y-101991958D01*
X164478015Y-101991957D01*
X164306050Y-101931784D01*
X164306049Y-101931783D01*
X164306047Y-101931783D01*
X164125000Y-101911384D01*
X163943953Y-101931783D01*
X163943950Y-101931783D01*
X163943949Y-101931784D01*
X163771984Y-101991957D01*
X163771981Y-101991958D01*
X163617720Y-102088887D01*
X163617718Y-102088888D01*
X163488888Y-102217718D01*
X163488887Y-102217720D01*
X163391958Y-102371981D01*
X163391957Y-102371984D01*
X163363688Y-102452774D01*
X163331783Y-102543953D01*
X163311384Y-102725000D01*
X162910799Y-102725000D01*
X162893217Y-102568953D01*
X162833043Y-102396985D01*
X162833041Y-102396982D01*
X162833041Y-102396981D01*
X162736112Y-102242720D01*
X162736111Y-102242718D01*
X162607281Y-102113888D01*
X162607279Y-102113887D01*
X162453018Y-102016958D01*
X162453015Y-102016957D01*
X162281050Y-101956784D01*
X162281049Y-101956783D01*
X162281047Y-101956783D01*
X162100000Y-101936384D01*
X161918953Y-101956783D01*
X161918950Y-101956783D01*
X161918949Y-101956784D01*
X161746984Y-102016957D01*
X161746981Y-102016958D01*
X161592720Y-102113887D01*
X161592718Y-102113888D01*
X161463888Y-102242718D01*
X161463887Y-102242720D01*
X161366958Y-102396981D01*
X161366957Y-102396984D01*
X161315531Y-102543953D01*
X161306783Y-102568953D01*
X161286384Y-102750000D01*
X157886117Y-102750000D01*
X157878944Y-102668014D01*
X157821270Y-102452773D01*
X157727097Y-102250818D01*
X157599284Y-102068283D01*
X157599283Y-102068282D01*
X157599280Y-102068278D01*
X157441720Y-101910718D01*
X157405055Y-101885045D01*
X157259183Y-101782903D01*
X157259179Y-101782901D01*
X157259178Y-101782900D01*
X157154728Y-101734195D01*
X157101442Y-101687278D01*
X157081981Y-101619001D01*
X157102522Y-101551041D01*
X157154728Y-101505805D01*
X157188600Y-101490009D01*
X157259183Y-101457097D01*
X157441717Y-101329284D01*
X157599284Y-101171717D01*
X157727097Y-100989183D01*
X157821270Y-100787227D01*
X157878944Y-100571986D01*
X157898365Y-100350000D01*
X157878944Y-100128014D01*
X157821270Y-99912773D01*
X157727097Y-99710818D01*
X157599284Y-99528283D01*
X157599283Y-99528282D01*
X157599280Y-99528278D01*
X157441720Y-99370718D01*
X157315417Y-99282279D01*
X157259183Y-99242903D01*
X157259179Y-99242901D01*
X157259178Y-99242900D01*
X157154728Y-99194195D01*
X157101442Y-99147278D01*
X157081981Y-99079001D01*
X157102522Y-99011041D01*
X157154728Y-98965805D01*
X157188600Y-98950009D01*
X157259183Y-98917097D01*
X157441717Y-98789284D01*
X157456001Y-98775000D01*
X163236384Y-98775000D01*
X163256783Y-98956047D01*
X163256783Y-98956049D01*
X163256784Y-98956050D01*
X163316957Y-99128015D01*
X163316958Y-99128018D01*
X163413887Y-99282279D01*
X163413888Y-99282281D01*
X163542718Y-99411111D01*
X163542720Y-99411112D01*
X163696981Y-99508041D01*
X163696982Y-99508041D01*
X163696985Y-99508043D01*
X163868953Y-99568217D01*
X164050000Y-99588616D01*
X164231047Y-99568217D01*
X164403015Y-99508043D01*
X164557281Y-99411111D01*
X164686111Y-99282281D01*
X164783043Y-99128015D01*
X164843217Y-98956047D01*
X164863616Y-98775000D01*
X164843217Y-98593953D01*
X164783043Y-98421985D01*
X164783041Y-98421982D01*
X164783041Y-98421981D01*
X164686112Y-98267720D01*
X164686111Y-98267718D01*
X164557281Y-98138888D01*
X164557279Y-98138887D01*
X164403018Y-98041958D01*
X164403015Y-98041957D01*
X164231050Y-97981784D01*
X164231049Y-97981783D01*
X164231047Y-97981783D01*
X164050000Y-97961384D01*
X163868953Y-97981783D01*
X163868950Y-97981783D01*
X163868949Y-97981784D01*
X163696984Y-98041957D01*
X163696981Y-98041958D01*
X163542720Y-98138887D01*
X163542718Y-98138888D01*
X163413888Y-98267718D01*
X163413887Y-98267720D01*
X163316958Y-98421981D01*
X163316957Y-98421984D01*
X163262359Y-98578018D01*
X163256783Y-98593953D01*
X163236384Y-98775000D01*
X157456001Y-98775000D01*
X157599284Y-98631717D01*
X157727097Y-98449183D01*
X157821270Y-98247227D01*
X157878944Y-98031986D01*
X157898365Y-97810000D01*
X157878944Y-97588014D01*
X157821270Y-97372773D01*
X157727097Y-97170818D01*
X157599284Y-96988283D01*
X157599283Y-96988282D01*
X157599280Y-96988278D01*
X157441720Y-96830718D01*
X157263677Y-96706050D01*
X157259183Y-96702903D01*
X157259179Y-96702901D01*
X157259178Y-96702900D01*
X157154728Y-96654195D01*
X157101442Y-96607278D01*
X157081981Y-96539001D01*
X157102522Y-96471041D01*
X157154728Y-96425805D01*
X157188600Y-96410009D01*
X157259183Y-96377097D01*
X157441717Y-96249284D01*
X157599284Y-96091717D01*
X157727097Y-95909183D01*
X157821270Y-95707227D01*
X157878944Y-95491986D01*
X157898365Y-95270000D01*
X157878944Y-95048014D01*
X157821270Y-94832773D01*
X157727097Y-94630818D01*
X157599284Y-94448283D01*
X157599283Y-94448282D01*
X157599280Y-94448278D01*
X157441720Y-94290718D01*
X157405055Y-94265045D01*
X157259183Y-94162903D01*
X157259179Y-94162901D01*
X157259178Y-94162900D01*
X157154728Y-94114195D01*
X157101442Y-94067278D01*
X157081981Y-93999001D01*
X157102522Y-93931041D01*
X157154728Y-93885805D01*
X157188600Y-93870009D01*
X157259183Y-93837097D01*
X157441717Y-93709284D01*
X157599284Y-93551717D01*
X157727097Y-93369183D01*
X157821270Y-93167227D01*
X157878944Y-92951986D01*
X157898365Y-92730000D01*
X157878944Y-92508014D01*
X157821270Y-92292773D01*
X157727097Y-92090818D01*
X157599284Y-91908283D01*
X157599283Y-91908282D01*
X157599280Y-91908278D01*
X157441720Y-91750718D01*
X157380771Y-91708041D01*
X157259183Y-91622903D01*
X157259179Y-91622901D01*
X157259178Y-91622900D01*
X157154728Y-91574195D01*
X157101442Y-91527278D01*
X157081981Y-91459001D01*
X157102522Y-91391041D01*
X157154728Y-91345805D01*
X157192879Y-91328015D01*
X157259183Y-91297097D01*
X157441717Y-91169284D01*
X157599284Y-91011717D01*
X157727097Y-90829183D01*
X157821270Y-90627227D01*
X157878944Y-90411986D01*
X157898365Y-90190000D01*
X157878944Y-89968014D01*
X157821270Y-89752773D01*
X157727097Y-89550818D01*
X157599284Y-89368283D01*
X157599283Y-89368282D01*
X157599280Y-89368278D01*
X157441720Y-89210718D01*
X157293288Y-89106784D01*
X157259183Y-89082903D01*
X157259179Y-89082901D01*
X157259178Y-89082900D01*
X157154728Y-89034195D01*
X157101442Y-88987278D01*
X157081981Y-88919001D01*
X157102522Y-88851041D01*
X157154728Y-88805805D01*
X157188600Y-88790009D01*
X157259183Y-88757097D01*
X157441717Y-88629284D01*
X157599284Y-88471717D01*
X157727097Y-88289183D01*
X157821270Y-88087227D01*
X157878944Y-87871986D01*
X157898365Y-87650000D01*
X157878944Y-87428014D01*
X157821270Y-87212773D01*
X157727097Y-87010818D01*
X157599284Y-86828283D01*
X157599283Y-86828282D01*
X157599280Y-86828278D01*
X157441720Y-86670718D01*
X157340725Y-86600000D01*
X157259183Y-86542903D01*
X157259179Y-86542901D01*
X157259178Y-86542900D01*
X157154728Y-86494195D01*
X157101442Y-86447278D01*
X157081981Y-86379001D01*
X157102522Y-86311041D01*
X157154728Y-86265805D01*
X157188600Y-86250009D01*
X157259183Y-86217097D01*
X157441717Y-86089284D01*
X157599284Y-85931717D01*
X157727097Y-85749183D01*
X157821270Y-85547227D01*
X157878944Y-85331986D01*
X157898365Y-85110000D01*
X157878944Y-84888014D01*
X157821270Y-84672773D01*
X157727097Y-84470818D01*
X157720738Y-84461736D01*
X157698051Y-84394465D01*
X157702093Y-84378361D01*
X157649258Y-84353578D01*
X157629527Y-84331474D01*
X157599284Y-84288283D01*
X157599283Y-84288282D01*
X157599281Y-84288279D01*
X157441720Y-84130718D01*
X157405055Y-84105045D01*
X157259183Y-84002903D01*
X157259179Y-84002901D01*
X157259178Y-84002900D01*
X157154728Y-83954195D01*
X157101442Y-83907278D01*
X157081981Y-83839001D01*
X157102522Y-83771041D01*
X157154728Y-83725805D01*
X157188600Y-83710009D01*
X157259183Y-83677097D01*
X157441717Y-83549284D01*
X157593836Y-83397164D01*
X157656146Y-83363141D01*
X157726962Y-83368205D01*
X157783798Y-83410752D01*
X157808609Y-83477272D01*
X157801860Y-83527875D01*
X157756328Y-83658000D01*
X157755366Y-83660748D01*
X157736859Y-83825000D01*
X157755366Y-83989252D01*
X157760143Y-84002903D01*
X157809957Y-84145265D01*
X157839426Y-84192165D01*
X157858731Y-84260487D01*
X157855322Y-84271673D01*
X157902623Y-84291046D01*
X157913047Y-84300373D01*
X158014776Y-84402102D01*
X158109689Y-84461739D01*
X158154733Y-84490042D01*
X158310748Y-84544634D01*
X158475000Y-84563141D01*
X158639252Y-84544634D01*
X158795267Y-84490042D01*
X158900449Y-84423951D01*
X158968766Y-84404647D01*
X158981573Y-84405430D01*
X159050000Y-84413141D01*
X159214252Y-84394634D01*
X159370267Y-84340042D01*
X159510223Y-84252102D01*
X159627102Y-84135223D01*
X159715042Y-83995267D01*
X159769634Y-83839252D01*
X159788141Y-83675000D01*
X159769634Y-83510748D01*
X159715042Y-83354733D01*
X159685225Y-83307279D01*
X159627102Y-83214776D01*
X159510223Y-83097897D01*
X159370269Y-83009959D01*
X159370267Y-83009958D01*
X159362462Y-83007227D01*
X159214252Y-82955366D01*
X159050000Y-82936859D01*
X159049999Y-82936859D01*
X159026107Y-82939551D01*
X158885748Y-82955366D01*
X158885745Y-82955366D01*
X158885745Y-82955367D01*
X158729732Y-83009958D01*
X158624552Y-83076046D01*
X158556231Y-83095351D01*
X158543411Y-83094566D01*
X158475001Y-83086859D01*
X158475000Y-83086859D01*
X158310748Y-83105366D01*
X158310745Y-83105366D01*
X158310745Y-83105367D01*
X158154732Y-83159958D01*
X158154730Y-83159959D01*
X158014777Y-83247897D01*
X157947198Y-83315476D01*
X157884885Y-83349501D01*
X157814070Y-83344435D01*
X157757234Y-83301888D01*
X157732424Y-83235368D01*
X157743907Y-83173132D01*
X157821270Y-83007227D01*
X157878944Y-82791986D01*
X157897928Y-82575000D01*
X161061384Y-82575000D01*
X161081783Y-82756047D01*
X161081783Y-82756049D01*
X161081784Y-82756050D01*
X161141957Y-82928015D01*
X161141958Y-82928018D01*
X161238887Y-83082279D01*
X161238888Y-83082281D01*
X161367718Y-83211111D01*
X161367720Y-83211112D01*
X161521981Y-83308041D01*
X161521982Y-83308041D01*
X161521985Y-83308043D01*
X161693953Y-83368217D01*
X161875000Y-83388616D01*
X162056047Y-83368217D01*
X162228015Y-83308043D01*
X162382281Y-83211111D01*
X162394795Y-83198597D01*
X169592000Y-83198597D01*
X169598505Y-83259093D01*
X169649555Y-83395964D01*
X169649555Y-83395965D01*
X169737095Y-83512904D01*
X169854034Y-83600444D01*
X169990906Y-83651494D01*
X170051402Y-83657999D01*
X170051415Y-83658000D01*
X170746000Y-83658000D01*
X170746000Y-82794224D01*
X170843369Y-82834556D01*
X170960677Y-82850000D01*
X171039323Y-82850000D01*
X171156631Y-82834556D01*
X171254000Y-82794224D01*
X171254000Y-83658000D01*
X171948585Y-83658000D01*
X171948597Y-83657999D01*
X172009093Y-83651494D01*
X172145964Y-83600444D01*
X172145965Y-83600444D01*
X172262904Y-83512904D01*
X172350444Y-83395965D01*
X172350444Y-83395964D01*
X172401494Y-83259093D01*
X172407999Y-83198597D01*
X172408000Y-83198585D01*
X172408000Y-82504000D01*
X171544225Y-82504000D01*
X171584556Y-82406631D01*
X171605177Y-82250000D01*
X171584556Y-82093369D01*
X171544225Y-81996000D01*
X172408000Y-81996000D01*
X172408000Y-81301414D01*
X172407999Y-81301402D01*
X172401494Y-81240906D01*
X172350444Y-81104035D01*
X172350444Y-81104034D01*
X172262904Y-80987095D01*
X172145965Y-80899555D01*
X172009093Y-80848505D01*
X171948597Y-80842000D01*
X171254000Y-80842000D01*
X171254000Y-81705775D01*
X171156631Y-81665444D01*
X171039323Y-81650000D01*
X170960677Y-81650000D01*
X170843369Y-81665444D01*
X170746000Y-81705775D01*
X170746000Y-80842000D01*
X170051402Y-80842000D01*
X169990906Y-80848505D01*
X169854035Y-80899555D01*
X169854034Y-80899555D01*
X169737095Y-80987095D01*
X169649555Y-81104034D01*
X169649555Y-81104035D01*
X169598505Y-81240906D01*
X169592000Y-81301402D01*
X169592000Y-81996000D01*
X170455775Y-81996000D01*
X170415444Y-82093369D01*
X170394823Y-82250000D01*
X170415444Y-82406631D01*
X170455775Y-82504000D01*
X169592000Y-82504000D01*
X169592000Y-83198597D01*
X162394795Y-83198597D01*
X162511111Y-83082281D01*
X162608043Y-82928015D01*
X162668217Y-82756047D01*
X162688616Y-82575000D01*
X162668217Y-82393953D01*
X162608043Y-82221985D01*
X162608041Y-82221982D01*
X162608041Y-82221981D01*
X162511112Y-82067720D01*
X162511111Y-82067718D01*
X162382281Y-81938888D01*
X162382279Y-81938887D01*
X162228018Y-81841958D01*
X162228015Y-81841957D01*
X162056050Y-81781784D01*
X162056049Y-81781783D01*
X162056047Y-81781783D01*
X161875000Y-81761384D01*
X161693953Y-81781783D01*
X161693950Y-81781783D01*
X161693949Y-81781784D01*
X161521984Y-81841957D01*
X161521981Y-81841958D01*
X161367720Y-81938887D01*
X161367718Y-81938888D01*
X161238888Y-82067718D01*
X161238887Y-82067720D01*
X161141958Y-82221981D01*
X161141957Y-82221984D01*
X161097858Y-82348014D01*
X161081783Y-82393953D01*
X161061384Y-82575000D01*
X157897928Y-82575000D01*
X157898365Y-82570000D01*
X157878944Y-82348014D01*
X157821270Y-82132773D01*
X157727097Y-81930818D01*
X157599284Y-81748283D01*
X157599283Y-81748282D01*
X157599280Y-81748278D01*
X157441720Y-81590718D01*
X157405055Y-81565045D01*
X157259183Y-81462903D01*
X157259181Y-81462902D01*
X157259182Y-81462902D01*
X157154135Y-81413918D01*
X157100850Y-81367000D01*
X157081389Y-81298723D01*
X157101931Y-81230763D01*
X157154137Y-81185528D01*
X157258924Y-81136666D01*
X157258930Y-81136662D01*
X157322758Y-81091969D01*
X157322758Y-81091967D01*
X156756420Y-80525629D01*
X156765161Y-80524373D01*
X156898562Y-80463451D01*
X157009395Y-80367413D01*
X157088682Y-80244040D01*
X157112417Y-80163207D01*
X157681967Y-80732758D01*
X157681969Y-80732758D01*
X157726662Y-80668931D01*
X157820796Y-80467058D01*
X157820798Y-80467053D01*
X157878448Y-80251897D01*
X157897862Y-80029999D01*
X157878448Y-79808102D01*
X157820798Y-79592946D01*
X157820796Y-79592942D01*
X157726659Y-79391064D01*
X157726658Y-79391062D01*
X157681970Y-79327240D01*
X157681968Y-79327240D01*
X157112416Y-79896791D01*
X157088682Y-79815960D01*
X157009395Y-79692587D01*
X156898562Y-79596549D01*
X156765161Y-79535627D01*
X156756419Y-79534370D01*
X157322758Y-78968029D01*
X157322758Y-78968028D01*
X157258938Y-78923341D01*
X157258937Y-78923340D01*
X157154135Y-78874471D01*
X157100850Y-78827554D01*
X157081389Y-78759277D01*
X157084193Y-78750000D01*
X169586673Y-78750000D01*
X169604739Y-78968029D01*
X169605950Y-78982633D01*
X169663249Y-79208903D01*
X169663252Y-79208910D01*
X169757015Y-79422668D01*
X169884685Y-79618083D01*
X170042774Y-79789813D01*
X170042778Y-79789817D01*
X170066158Y-79808014D01*
X170226983Y-79933190D01*
X170432273Y-80044287D01*
X170653049Y-80120080D01*
X170883288Y-80158500D01*
X170883292Y-80158500D01*
X171116708Y-80158500D01*
X171116712Y-80158500D01*
X171346951Y-80120080D01*
X171567727Y-80044287D01*
X171773017Y-79933190D01*
X171957220Y-79789818D01*
X172115314Y-79618083D01*
X172242984Y-79422669D01*
X172336749Y-79208907D01*
X172394051Y-78982626D01*
X172413327Y-78750000D01*
X172394051Y-78517374D01*
X172381872Y-78469281D01*
X172336750Y-78291096D01*
X172336747Y-78291089D01*
X172242984Y-78077331D01*
X172115314Y-77881916D01*
X171957225Y-77710186D01*
X171957221Y-77710182D01*
X171865118Y-77638496D01*
X171773017Y-77566810D01*
X171567727Y-77455713D01*
X171567724Y-77455712D01*
X171567723Y-77455711D01*
X171346955Y-77379921D01*
X171346948Y-77379919D01*
X171248411Y-77363476D01*
X171116712Y-77341500D01*
X170883288Y-77341500D01*
X170768066Y-77360727D01*
X170653051Y-77379919D01*
X170653044Y-77379921D01*
X170432276Y-77455711D01*
X170432273Y-77455713D01*
X170226985Y-77566809D01*
X170226983Y-77566810D01*
X170042778Y-77710182D01*
X170042774Y-77710186D01*
X169884685Y-77881916D01*
X169757015Y-78077331D01*
X169663252Y-78291089D01*
X169663249Y-78291096D01*
X169605950Y-78517366D01*
X169605949Y-78517372D01*
X169605949Y-78517374D01*
X169586673Y-78750000D01*
X157084193Y-78750000D01*
X157101931Y-78691317D01*
X157154136Y-78646081D01*
X157179733Y-78634144D01*
X157259183Y-78597097D01*
X157441717Y-78469284D01*
X157599284Y-78311717D01*
X157727097Y-78129183D01*
X157821270Y-77927227D01*
X157878944Y-77711986D01*
X157898365Y-77490000D01*
X157878944Y-77268014D01*
X157821270Y-77052773D01*
X157727097Y-76850818D01*
X157599284Y-76668283D01*
X157599283Y-76668282D01*
X157599280Y-76668278D01*
X157441720Y-76510718D01*
X157323629Y-76428029D01*
X157259183Y-76382903D01*
X157259181Y-76382902D01*
X157259182Y-76382902D01*
X157057230Y-76288731D01*
X157057225Y-76288729D01*
X156957332Y-76261963D01*
X156841986Y-76231056D01*
X156620000Y-76211635D01*
X156619999Y-76211635D01*
X156509007Y-76221345D01*
X156398014Y-76231056D01*
X156340341Y-76246509D01*
X156182774Y-76288729D01*
X156182769Y-76288731D01*
X155980821Y-76382901D01*
X155980818Y-76382902D01*
X155980818Y-76382903D01*
X155957883Y-76398962D01*
X155798282Y-76510716D01*
X155798278Y-76510719D01*
X155640719Y-76668278D01*
X155640716Y-76668282D01*
X155512901Y-76850821D01*
X155418731Y-77052769D01*
X155418729Y-77052774D01*
X155376509Y-77210341D01*
X155361056Y-77268014D01*
X155341635Y-77490000D01*
X155361056Y-77711986D01*
X155391963Y-77827331D01*
X155418729Y-77927225D01*
X155418731Y-77927230D01*
X155512902Y-78129182D01*
X155640718Y-78311720D01*
X155798279Y-78469281D01*
X155798282Y-78469283D01*
X155798283Y-78469284D01*
X155980817Y-78597097D01*
X156085864Y-78646081D01*
X156139149Y-78692998D01*
X156158610Y-78761275D01*
X156138068Y-78829235D01*
X156085865Y-78874470D01*
X155981070Y-78923337D01*
X155981068Y-78923338D01*
X155917239Y-78968030D01*
X156483579Y-79534370D01*
X156474839Y-79535627D01*
X156341438Y-79596549D01*
X156230605Y-79692587D01*
X156151318Y-79815960D01*
X156127583Y-79896792D01*
X155558030Y-79327239D01*
X155513339Y-79391067D01*
X155419203Y-79592942D01*
X155419201Y-79592946D01*
X155361551Y-79808102D01*
X155342137Y-80029999D01*
X155361551Y-80251897D01*
X155419201Y-80467053D01*
X155419203Y-80467058D01*
X155513340Y-80668937D01*
X155513341Y-80668938D01*
X155558029Y-80732758D01*
X156127582Y-80163206D01*
X156151318Y-80244040D01*
X156230605Y-80367413D01*
X156341438Y-80463451D01*
X156474839Y-80524373D01*
X156483579Y-80525629D01*
X155917240Y-81091968D01*
X155917240Y-81091969D01*
X155981067Y-81136661D01*
X156085864Y-81185529D01*
X156139149Y-81232446D01*
X156158610Y-81300723D01*
X156138068Y-81368683D01*
X156085864Y-81413919D01*
X155980821Y-81462901D01*
X155798282Y-81590716D01*
X155798278Y-81590719D01*
X155640719Y-81748278D01*
X155640716Y-81748282D01*
X155512901Y-81930821D01*
X155418731Y-82132769D01*
X155418729Y-82132774D01*
X155388128Y-82246981D01*
X155361056Y-82348014D01*
X155341635Y-82570000D01*
X155361056Y-82791986D01*
X155372463Y-82834556D01*
X155418729Y-83007225D01*
X155418731Y-83007230D01*
X155512902Y-83209182D01*
X155640718Y-83391720D01*
X155798279Y-83549281D01*
X155798282Y-83549283D01*
X155798283Y-83549284D01*
X155980817Y-83677097D01*
X156085272Y-83725805D01*
X156138557Y-83772722D01*
X156158018Y-83840999D01*
X156137476Y-83908959D01*
X156085272Y-83954195D01*
X155980821Y-84002901D01*
X155798282Y-84130716D01*
X155798278Y-84130719D01*
X155640719Y-84288278D01*
X155640716Y-84288282D01*
X155512901Y-84470821D01*
X155418731Y-84672769D01*
X155418729Y-84672774D01*
X155376509Y-84830341D01*
X155361056Y-84888014D01*
X155341635Y-85110000D01*
X155361056Y-85331986D01*
X155391963Y-85447332D01*
X155418729Y-85547225D01*
X155418731Y-85547230D01*
X155512902Y-85749182D01*
X155640718Y-85931720D01*
X155798279Y-86089281D01*
X155798282Y-86089283D01*
X155798283Y-86089284D01*
X155980817Y-86217097D01*
X156085272Y-86265805D01*
X156138557Y-86312722D01*
X156158018Y-86380999D01*
X156137476Y-86448959D01*
X156085272Y-86494195D01*
X155980821Y-86542901D01*
X155798282Y-86670716D01*
X155798278Y-86670719D01*
X155640719Y-86828278D01*
X155640716Y-86828282D01*
X155512901Y-87010821D01*
X155418731Y-87212769D01*
X155418729Y-87212774D01*
X155376509Y-87370341D01*
X155361056Y-87428014D01*
X155341635Y-87650000D01*
X155361056Y-87871986D01*
X155385010Y-87961384D01*
X155418729Y-88087225D01*
X155418731Y-88087230D01*
X155512902Y-88289182D01*
X155640718Y-88471720D01*
X155798279Y-88629281D01*
X155798282Y-88629283D01*
X155798283Y-88629284D01*
X155980817Y-88757097D01*
X156085272Y-88805805D01*
X156138557Y-88852722D01*
X156158018Y-88920999D01*
X156137476Y-88988959D01*
X156085272Y-89034195D01*
X155980821Y-89082901D01*
X155798282Y-89210716D01*
X155798278Y-89210719D01*
X155640719Y-89368278D01*
X155640716Y-89368282D01*
X155512901Y-89550821D01*
X155418731Y-89752769D01*
X155418729Y-89752774D01*
X155361056Y-89968015D01*
X155344139Y-90161384D01*
X155341635Y-90190000D01*
X155361056Y-90411986D01*
X155375990Y-90467719D01*
X155418729Y-90627225D01*
X155418731Y-90627230D01*
X155512902Y-90829182D01*
X155640718Y-91011720D01*
X155798279Y-91169281D01*
X155798282Y-91169283D01*
X155798283Y-91169284D01*
X155980817Y-91297097D01*
X156085272Y-91345805D01*
X156138557Y-91392722D01*
X156158018Y-91460999D01*
X156137476Y-91528959D01*
X156085272Y-91574195D01*
X155980821Y-91622901D01*
X155798282Y-91750716D01*
X155798278Y-91750719D01*
X155640719Y-91908278D01*
X155640716Y-91908282D01*
X155512901Y-92090821D01*
X155418731Y-92292769D01*
X155418729Y-92292774D01*
X155394879Y-92381784D01*
X155361056Y-92508014D01*
X155341635Y-92730000D01*
X155361056Y-92951986D01*
X155372300Y-92993949D01*
X155418729Y-93167225D01*
X155418731Y-93167230D01*
X155512902Y-93369182D01*
X155640718Y-93551720D01*
X155798279Y-93709281D01*
X155798282Y-93709283D01*
X155798283Y-93709284D01*
X155980817Y-93837097D01*
X156085272Y-93885805D01*
X156138557Y-93932722D01*
X156158018Y-94000999D01*
X156137476Y-94068959D01*
X156085272Y-94114195D01*
X155980821Y-94162901D01*
X155798282Y-94290716D01*
X155798278Y-94290719D01*
X155640719Y-94448278D01*
X155640716Y-94448282D01*
X155512901Y-94630821D01*
X155418731Y-94832769D01*
X155418729Y-94832774D01*
X155376509Y-94990341D01*
X155361056Y-95048014D01*
X155341635Y-95270000D01*
X155361056Y-95491986D01*
X155391963Y-95607331D01*
X155418729Y-95707225D01*
X155418731Y-95707230D01*
X155512902Y-95909182D01*
X155640718Y-96091720D01*
X155798279Y-96249281D01*
X155798282Y-96249283D01*
X155798283Y-96249284D01*
X155980817Y-96377097D01*
X156085272Y-96425805D01*
X156138557Y-96472722D01*
X156158018Y-96540999D01*
X156137476Y-96608959D01*
X156085272Y-96654195D01*
X155980821Y-96702901D01*
X155798282Y-96830716D01*
X155798278Y-96830719D01*
X155640719Y-96988278D01*
X155640716Y-96988282D01*
X155512901Y-97170821D01*
X155418731Y-97372769D01*
X155418729Y-97372774D01*
X155386794Y-97491958D01*
X155361056Y-97588014D01*
X155341635Y-97810000D01*
X155361056Y-98031986D01*
X155389701Y-98138889D01*
X155418729Y-98247225D01*
X155418731Y-98247230D01*
X155512902Y-98449182D01*
X155640718Y-98631720D01*
X155798279Y-98789281D01*
X155798282Y-98789283D01*
X155798283Y-98789284D01*
X155980817Y-98917097D01*
X156085272Y-98965805D01*
X156138557Y-99012722D01*
X156158018Y-99080999D01*
X156137476Y-99148959D01*
X156085272Y-99194195D01*
X155980821Y-99242901D01*
X155798282Y-99370716D01*
X155798278Y-99370719D01*
X155640719Y-99528278D01*
X155640716Y-99528282D01*
X155512901Y-99710821D01*
X155418731Y-99912769D01*
X155418729Y-99912774D01*
X155376509Y-100070341D01*
X155361056Y-100128014D01*
X155341635Y-100350000D01*
X155361056Y-100571986D01*
X155391963Y-100687331D01*
X155418729Y-100787225D01*
X155418731Y-100787230D01*
X155512902Y-100989182D01*
X155640718Y-101171720D01*
X155798279Y-101329281D01*
X155798282Y-101329283D01*
X155798283Y-101329284D01*
X155980817Y-101457097D01*
X156085272Y-101505805D01*
X156138557Y-101552722D01*
X156158018Y-101620999D01*
X156137476Y-101688959D01*
X156085272Y-101734195D01*
X155980821Y-101782901D01*
X155798282Y-101910716D01*
X155798278Y-101910719D01*
X155640719Y-102068278D01*
X155640716Y-102068282D01*
X155512901Y-102250821D01*
X155418731Y-102452769D01*
X155418729Y-102452774D01*
X155387599Y-102568953D01*
X155361056Y-102668014D01*
X155341635Y-102890000D01*
X155361056Y-103111986D01*
X155391963Y-103227331D01*
X155418729Y-103327225D01*
X155418731Y-103327230D01*
X155512902Y-103529182D01*
X155640718Y-103711720D01*
X155798279Y-103869281D01*
X155798282Y-103869283D01*
X155798283Y-103869284D01*
X155980817Y-103997097D01*
X156085272Y-104045805D01*
X156138557Y-104092722D01*
X156158018Y-104160999D01*
X156137476Y-104228959D01*
X156085272Y-104274195D01*
X155980821Y-104322901D01*
X155798282Y-104450716D01*
X155798278Y-104450719D01*
X155640719Y-104608278D01*
X155640716Y-104608282D01*
X155512901Y-104790821D01*
X155418731Y-104992769D01*
X155418729Y-104992774D01*
X155376509Y-105150341D01*
X155361056Y-105208014D01*
X155341635Y-105430000D01*
X155361056Y-105651986D01*
X155376673Y-105710269D01*
X155418729Y-105867225D01*
X155418731Y-105867230D01*
X155512902Y-106069182D01*
X155640718Y-106251720D01*
X155798279Y-106409281D01*
X155798282Y-106409283D01*
X155798283Y-106409284D01*
X155980817Y-106537097D01*
X156085272Y-106585805D01*
X156138557Y-106632722D01*
X156158018Y-106700999D01*
X156137476Y-106768959D01*
X156085272Y-106814195D01*
X155980821Y-106862901D01*
X155798282Y-106990716D01*
X155798278Y-106990719D01*
X155640719Y-107148278D01*
X155640716Y-107148282D01*
X155512901Y-107330821D01*
X155418731Y-107532769D01*
X155418729Y-107532774D01*
X155390967Y-107636384D01*
X155361056Y-107748014D01*
X155341635Y-107970000D01*
X155361056Y-108191986D01*
X155391963Y-108307331D01*
X155418729Y-108407225D01*
X155418731Y-108407230D01*
X155512902Y-108609182D01*
X155640718Y-108791720D01*
X155798279Y-108949281D01*
X155798282Y-108949283D01*
X155798283Y-108949284D01*
X155980817Y-109077097D01*
X156085272Y-109125805D01*
X156138557Y-109172722D01*
X156158018Y-109240999D01*
X156137476Y-109308959D01*
X156085272Y-109354195D01*
X155980821Y-109402901D01*
X155798282Y-109530716D01*
X155798278Y-109530719D01*
X155640719Y-109688278D01*
X155640716Y-109688282D01*
X155512901Y-109870821D01*
X155418731Y-110072769D01*
X155418729Y-110072774D01*
X155361056Y-110288015D01*
X155342793Y-110496769D01*
X155341635Y-110510000D01*
X142658365Y-110510000D01*
X142638944Y-110288014D01*
X142581270Y-110072773D01*
X142487097Y-109870818D01*
X142359284Y-109688283D01*
X142359283Y-109688282D01*
X142359280Y-109688278D01*
X142201720Y-109530718D01*
X142069819Y-109438359D01*
X142019183Y-109402903D01*
X142019179Y-109402901D01*
X142019178Y-109402900D01*
X141914728Y-109354195D01*
X141861442Y-109307278D01*
X141841981Y-109239001D01*
X141862522Y-109171041D01*
X141914728Y-109125805D01*
X141999852Y-109086111D01*
X142019183Y-109077097D01*
X142044045Y-109059687D01*
X142111319Y-109036999D01*
X142180179Y-109054283D01*
X142205412Y-109073805D01*
X142217718Y-109086111D01*
X142217720Y-109086112D01*
X142371981Y-109183041D01*
X142371982Y-109183041D01*
X142371985Y-109183043D01*
X142543953Y-109243217D01*
X142725000Y-109263616D01*
X142906047Y-109243217D01*
X143078015Y-109183043D01*
X143232281Y-109086111D01*
X143361111Y-108957281D01*
X143458043Y-108803015D01*
X143518217Y-108631047D01*
X143538616Y-108450000D01*
X143518217Y-108268953D01*
X143458043Y-108096985D01*
X143458041Y-108096982D01*
X143458041Y-108096981D01*
X143361112Y-107942720D01*
X143361111Y-107942718D01*
X143232281Y-107813888D01*
X143232279Y-107813887D01*
X143078018Y-107716958D01*
X143078015Y-107716957D01*
X142906050Y-107656784D01*
X142906049Y-107656783D01*
X142906047Y-107656783D01*
X142725000Y-107636384D01*
X142724998Y-107636384D01*
X142724997Y-107636384D01*
X142720178Y-107636927D01*
X142650246Y-107624676D01*
X142598039Y-107576562D01*
X142584366Y-107544330D01*
X142581270Y-107532773D01*
X142487097Y-107330818D01*
X142359284Y-107148283D01*
X142359283Y-107148282D01*
X142359280Y-107148278D01*
X142201720Y-106990718D01*
X142081849Y-106906783D01*
X142019183Y-106862903D01*
X142019179Y-106862901D01*
X142019178Y-106862900D01*
X141914728Y-106814195D01*
X141861442Y-106767278D01*
X141841981Y-106699001D01*
X141862522Y-106631041D01*
X141914728Y-106585805D01*
X141991512Y-106550000D01*
X142019183Y-106537097D01*
X142201717Y-106409284D01*
X142359284Y-106251717D01*
X142487097Y-106069183D01*
X142581270Y-105867227D01*
X142638944Y-105651986D01*
X142658365Y-105430000D01*
X142638944Y-105208014D01*
X142581270Y-104992773D01*
X142487097Y-104790818D01*
X142359284Y-104608283D01*
X142359283Y-104608282D01*
X142359280Y-104608278D01*
X142201720Y-104450718D01*
X142165055Y-104425045D01*
X142019183Y-104322903D01*
X142019179Y-104322901D01*
X142019178Y-104322900D01*
X141914728Y-104274195D01*
X141861442Y-104227278D01*
X141841981Y-104159001D01*
X141862522Y-104091041D01*
X141914728Y-104045805D01*
X141948600Y-104030009D01*
X142019183Y-103997097D01*
X142201717Y-103869284D01*
X142359284Y-103711717D01*
X142487097Y-103529183D01*
X142581270Y-103327227D01*
X142638944Y-103111986D01*
X142658365Y-102890000D01*
X142638944Y-102668014D01*
X142581270Y-102452773D01*
X142487097Y-102250818D01*
X142359284Y-102068283D01*
X142359283Y-102068282D01*
X142359280Y-102068278D01*
X142201720Y-101910718D01*
X142165055Y-101885045D01*
X142019183Y-101782903D01*
X142019179Y-101782901D01*
X142019178Y-101782900D01*
X141914728Y-101734195D01*
X141861442Y-101687278D01*
X141841981Y-101619001D01*
X141862522Y-101551041D01*
X141914728Y-101505805D01*
X141948600Y-101490009D01*
X142019183Y-101457097D01*
X142201717Y-101329284D01*
X142359284Y-101171717D01*
X142487097Y-100989183D01*
X142581270Y-100787227D01*
X142638944Y-100571986D01*
X142658365Y-100350000D01*
X142638944Y-100128014D01*
X142581270Y-99912773D01*
X142487097Y-99710818D01*
X142359284Y-99528283D01*
X142359283Y-99528282D01*
X142359280Y-99528278D01*
X142201720Y-99370718D01*
X142075417Y-99282279D01*
X142019183Y-99242903D01*
X142019179Y-99242901D01*
X142019178Y-99242900D01*
X141914728Y-99194195D01*
X141861442Y-99147278D01*
X141841981Y-99079001D01*
X141862522Y-99011041D01*
X141914728Y-98965805D01*
X141948600Y-98950009D01*
X142019183Y-98917097D01*
X142201717Y-98789284D01*
X142359284Y-98631717D01*
X142487097Y-98449183D01*
X142581270Y-98247227D01*
X142638944Y-98031986D01*
X142658365Y-97810000D01*
X142638944Y-97588014D01*
X142581270Y-97372773D01*
X142487097Y-97170818D01*
X142359284Y-96988283D01*
X142359283Y-96988282D01*
X142359280Y-96988278D01*
X142201720Y-96830718D01*
X142023677Y-96706050D01*
X142019183Y-96702903D01*
X142019179Y-96702901D01*
X142019178Y-96702900D01*
X141914728Y-96654195D01*
X141861442Y-96607278D01*
X141841981Y-96539001D01*
X141862522Y-96471041D01*
X141914728Y-96425805D01*
X141948600Y-96410009D01*
X142019183Y-96377097D01*
X142201717Y-96249284D01*
X142359284Y-96091717D01*
X142487097Y-95909183D01*
X142581270Y-95707227D01*
X142638944Y-95491986D01*
X142658365Y-95270000D01*
X142638944Y-95048014D01*
X142581270Y-94832773D01*
X142487097Y-94630818D01*
X142359284Y-94448283D01*
X142359283Y-94448282D01*
X142359280Y-94448278D01*
X142201720Y-94290718D01*
X142165055Y-94265045D01*
X142019183Y-94162903D01*
X142019179Y-94162901D01*
X142019178Y-94162900D01*
X141914728Y-94114195D01*
X141861442Y-94067278D01*
X141841981Y-93999001D01*
X141862522Y-93931041D01*
X141914728Y-93885805D01*
X141948600Y-93870009D01*
X142019183Y-93837097D01*
X142201717Y-93709284D01*
X142359284Y-93551717D01*
X142487097Y-93369183D01*
X142581270Y-93167227D01*
X142638944Y-92951986D01*
X142658365Y-92730000D01*
X142638944Y-92508014D01*
X142581270Y-92292773D01*
X142487097Y-92090818D01*
X142359284Y-91908283D01*
X142359283Y-91908282D01*
X142359280Y-91908278D01*
X142201720Y-91750718D01*
X142140771Y-91708041D01*
X142019183Y-91622903D01*
X142019179Y-91622901D01*
X142019178Y-91622900D01*
X141914728Y-91574195D01*
X141861442Y-91527278D01*
X141841981Y-91459001D01*
X141862522Y-91391041D01*
X141914728Y-91345805D01*
X141952879Y-91328015D01*
X142019183Y-91297097D01*
X142201717Y-91169284D01*
X142359284Y-91011717D01*
X142487097Y-90829183D01*
X142581270Y-90627227D01*
X142638944Y-90411986D01*
X142658365Y-90190000D01*
X142638944Y-89968014D01*
X142581270Y-89752773D01*
X142487097Y-89550818D01*
X142359284Y-89368283D01*
X142359283Y-89368282D01*
X142359280Y-89368278D01*
X142201720Y-89210718D01*
X142053288Y-89106784D01*
X142019183Y-89082903D01*
X142019179Y-89082901D01*
X142019178Y-89082900D01*
X141914728Y-89034195D01*
X141861442Y-88987278D01*
X141841981Y-88919001D01*
X141862522Y-88851041D01*
X141914728Y-88805805D01*
X141948600Y-88790009D01*
X142019183Y-88757097D01*
X142201717Y-88629284D01*
X142359284Y-88471717D01*
X142487097Y-88289183D01*
X142581270Y-88087227D01*
X142638944Y-87871986D01*
X142658365Y-87650000D01*
X142638944Y-87428014D01*
X142581270Y-87212773D01*
X142487097Y-87010818D01*
X142359284Y-86828283D01*
X142359283Y-86828282D01*
X142359280Y-86828278D01*
X142201720Y-86670718D01*
X142100725Y-86600000D01*
X142019183Y-86542903D01*
X142019179Y-86542901D01*
X142019178Y-86542900D01*
X141914728Y-86494195D01*
X141861442Y-86447278D01*
X141841981Y-86379001D01*
X141862522Y-86311041D01*
X141914728Y-86265805D01*
X141948600Y-86250009D01*
X142019183Y-86217097D01*
X142201717Y-86089284D01*
X142359284Y-85931717D01*
X142487097Y-85749183D01*
X142581270Y-85547227D01*
X142638944Y-85331986D01*
X142658365Y-85110000D01*
X142638944Y-84888014D01*
X142581270Y-84672773D01*
X142487097Y-84470818D01*
X142359284Y-84288283D01*
X142359283Y-84288282D01*
X142359280Y-84288278D01*
X142201720Y-84130718D01*
X142165055Y-84105045D01*
X142019183Y-84002903D01*
X142019179Y-84002901D01*
X142019178Y-84002900D01*
X141914728Y-83954195D01*
X141861442Y-83907278D01*
X141841981Y-83839001D01*
X141862522Y-83771041D01*
X141914728Y-83725805D01*
X141948600Y-83710009D01*
X142019183Y-83677097D01*
X142201717Y-83549284D01*
X142359284Y-83391717D01*
X142487097Y-83209183D01*
X142581270Y-83007227D01*
X142638944Y-82791986D01*
X142655740Y-82600000D01*
X146186384Y-82600000D01*
X146206783Y-82781047D01*
X146206783Y-82781049D01*
X146206784Y-82781050D01*
X146266957Y-82953015D01*
X146266958Y-82953018D01*
X146363887Y-83107279D01*
X146363888Y-83107281D01*
X146492718Y-83236111D01*
X146492720Y-83236112D01*
X146646981Y-83333041D01*
X146646982Y-83333041D01*
X146646985Y-83333043D01*
X146818953Y-83393217D01*
X147000000Y-83413616D01*
X147181047Y-83393217D01*
X147353015Y-83333043D01*
X147507281Y-83236111D01*
X147636111Y-83107281D01*
X147733043Y-82953015D01*
X147793217Y-82781047D01*
X147813616Y-82600000D01*
X147793217Y-82418953D01*
X147733043Y-82246985D01*
X147733041Y-82246982D01*
X147733041Y-82246981D01*
X147636112Y-82092720D01*
X147636111Y-82092718D01*
X147507281Y-81963888D01*
X147507279Y-81963887D01*
X147353018Y-81866958D01*
X147353015Y-81866957D01*
X147181050Y-81806784D01*
X147181049Y-81806783D01*
X147181047Y-81806783D01*
X147000000Y-81786384D01*
X146818953Y-81806783D01*
X146818950Y-81806783D01*
X146818949Y-81806784D01*
X146646984Y-81866957D01*
X146646981Y-81866958D01*
X146492720Y-81963887D01*
X146492718Y-81963888D01*
X146363888Y-82092718D01*
X146363887Y-82092720D01*
X146266958Y-82246981D01*
X146266957Y-82246984D01*
X146211095Y-82406631D01*
X146206783Y-82418953D01*
X146186384Y-82600000D01*
X142655740Y-82600000D01*
X142658365Y-82570000D01*
X142638944Y-82348014D01*
X142581270Y-82132773D01*
X142487097Y-81930818D01*
X142359284Y-81748283D01*
X142359283Y-81748282D01*
X142359280Y-81748278D01*
X142201720Y-81590718D01*
X142165055Y-81565045D01*
X142019183Y-81462903D01*
X142019179Y-81462901D01*
X142019178Y-81462900D01*
X141914728Y-81414195D01*
X141861442Y-81367278D01*
X141841981Y-81299001D01*
X141862522Y-81231041D01*
X141914728Y-81185805D01*
X141948600Y-81170009D01*
X142019183Y-81137097D01*
X142201717Y-81009284D01*
X142359284Y-80851717D01*
X142487097Y-80669183D01*
X142581270Y-80467227D01*
X142638944Y-80251986D01*
X142658365Y-80030000D01*
X142638944Y-79808014D01*
X142581270Y-79592773D01*
X142487097Y-79390818D01*
X142359284Y-79208283D01*
X142359283Y-79208282D01*
X142359280Y-79208278D01*
X142201720Y-79050718D01*
X142083629Y-78968029D01*
X142019183Y-78922903D01*
X142019181Y-78922902D01*
X142019182Y-78922902D01*
X141914135Y-78873918D01*
X141860850Y-78827000D01*
X141841389Y-78758723D01*
X141861931Y-78690763D01*
X141914137Y-78645528D01*
X142018924Y-78596666D01*
X142018930Y-78596662D01*
X142082758Y-78551969D01*
X142082758Y-78551967D01*
X141516420Y-77985629D01*
X141525161Y-77984373D01*
X141658562Y-77923451D01*
X141769395Y-77827413D01*
X141848682Y-77704040D01*
X141872416Y-77623207D01*
X142441967Y-78192758D01*
X142441969Y-78192758D01*
X142486662Y-78128931D01*
X142580796Y-77927058D01*
X142580798Y-77927053D01*
X142638448Y-77711897D01*
X142657862Y-77490000D01*
X142638448Y-77268102D01*
X142580798Y-77052946D01*
X142580796Y-77052942D01*
X142486659Y-76851064D01*
X142486658Y-76851062D01*
X142441970Y-76787240D01*
X142441968Y-76787240D01*
X141872416Y-77356791D01*
X141848682Y-77275960D01*
X141769395Y-77152587D01*
X141658562Y-77056549D01*
X141525161Y-76995627D01*
X141516419Y-76994370D01*
X142082758Y-76428029D01*
X142082758Y-76428028D01*
X142018938Y-76383341D01*
X142018937Y-76383340D01*
X141817058Y-76289203D01*
X141817053Y-76289201D01*
X141601897Y-76231551D01*
X141379999Y-76212137D01*
X141158102Y-76231551D01*
X140942946Y-76289201D01*
X140942942Y-76289203D01*
X140741067Y-76383339D01*
X140677239Y-76428030D01*
X141243579Y-76994370D01*
X141234839Y-76995627D01*
X141101438Y-77056549D01*
X140990605Y-77152587D01*
X140911318Y-77275960D01*
X140887583Y-77356792D01*
X140318030Y-76787239D01*
X140273339Y-76851067D01*
X140179203Y-77052942D01*
X140179201Y-77052946D01*
X140121551Y-77268102D01*
X140102137Y-77490000D01*
X140121551Y-77711897D01*
X140179201Y-77927053D01*
X140179203Y-77927058D01*
X140273340Y-78128937D01*
X140273341Y-78128938D01*
X140318029Y-78192758D01*
X140887582Y-77623206D01*
X140911318Y-77704040D01*
X140990605Y-77827413D01*
X141101438Y-77923451D01*
X141234839Y-77984373D01*
X141243579Y-77985629D01*
X140677240Y-78551968D01*
X140677240Y-78551969D01*
X140741067Y-78596661D01*
X140845864Y-78645529D01*
X140899149Y-78692446D01*
X140918610Y-78760723D01*
X140898068Y-78828683D01*
X140845864Y-78873919D01*
X140740821Y-78922901D01*
X140740818Y-78922902D01*
X140740818Y-78922903D01*
X140717883Y-78938962D01*
X140558282Y-79050716D01*
X140558278Y-79050719D01*
X140400719Y-79208278D01*
X140400716Y-79208282D01*
X140272901Y-79390821D01*
X140178731Y-79592769D01*
X140178729Y-79592774D01*
X140136509Y-79750340D01*
X140121056Y-79808014D01*
X140101635Y-80030000D01*
X140121056Y-80251986D01*
X140151963Y-80367331D01*
X140178729Y-80467225D01*
X140178731Y-80467230D01*
X140272902Y-80669182D01*
X140400718Y-80851720D01*
X140558279Y-81009281D01*
X140558282Y-81009283D01*
X140558283Y-81009284D01*
X140740817Y-81137097D01*
X140845272Y-81185805D01*
X140898557Y-81232722D01*
X140918018Y-81300999D01*
X140897476Y-81368959D01*
X140845272Y-81414195D01*
X140740821Y-81462901D01*
X140558282Y-81590716D01*
X140558278Y-81590719D01*
X140400719Y-81748278D01*
X140400716Y-81748282D01*
X140272901Y-81930821D01*
X140178731Y-82132769D01*
X140178729Y-82132774D01*
X140148128Y-82246981D01*
X140121056Y-82348014D01*
X140101635Y-82570000D01*
X140121056Y-82791986D01*
X140132463Y-82834556D01*
X140178729Y-83007225D01*
X140178731Y-83007230D01*
X140272902Y-83209182D01*
X140400718Y-83391720D01*
X140558279Y-83549281D01*
X140558282Y-83549283D01*
X140558283Y-83549284D01*
X140740817Y-83677097D01*
X140845272Y-83725805D01*
X140898557Y-83772722D01*
X140918018Y-83840999D01*
X140897476Y-83908959D01*
X140845272Y-83954195D01*
X140740821Y-84002901D01*
X140558282Y-84130716D01*
X140558278Y-84130719D01*
X140400719Y-84288278D01*
X140400716Y-84288282D01*
X140272901Y-84470821D01*
X140178731Y-84672769D01*
X140178729Y-84672774D01*
X140136509Y-84830340D01*
X140121056Y-84888014D01*
X140101635Y-85110000D01*
X140121056Y-85331986D01*
X140151963Y-85447331D01*
X140178729Y-85547225D01*
X140178731Y-85547230D01*
X140272902Y-85749182D01*
X140400718Y-85931720D01*
X140558279Y-86089281D01*
X140558282Y-86089283D01*
X140558283Y-86089284D01*
X140740817Y-86217097D01*
X140845272Y-86265805D01*
X140898557Y-86312722D01*
X140918018Y-86380999D01*
X140897476Y-86448959D01*
X140845272Y-86494195D01*
X140740821Y-86542901D01*
X140558282Y-86670716D01*
X140558278Y-86670719D01*
X140400719Y-86828278D01*
X140400716Y-86828282D01*
X140272901Y-87010821D01*
X140178731Y-87212769D01*
X140178729Y-87212774D01*
X140136509Y-87370340D01*
X140121056Y-87428014D01*
X140101635Y-87650000D01*
X140121056Y-87871986D01*
X140145010Y-87961384D01*
X140178729Y-88087225D01*
X140178731Y-88087230D01*
X140272902Y-88289182D01*
X140400718Y-88471720D01*
X140558279Y-88629281D01*
X140558282Y-88629283D01*
X140558283Y-88629284D01*
X140740817Y-88757097D01*
X140845272Y-88805805D01*
X140898557Y-88852722D01*
X140918018Y-88920999D01*
X140897476Y-88988959D01*
X140845272Y-89034195D01*
X140740821Y-89082901D01*
X140558282Y-89210716D01*
X140558278Y-89210719D01*
X140400719Y-89368278D01*
X140400716Y-89368282D01*
X140272901Y-89550821D01*
X140178731Y-89752769D01*
X140178729Y-89752774D01*
X140139280Y-89900000D01*
X140121056Y-89968014D01*
X140101635Y-90190000D01*
X140121056Y-90411986D01*
X140135990Y-90467719D01*
X140178729Y-90627225D01*
X140178731Y-90627230D01*
X140272902Y-90829182D01*
X140400718Y-91011720D01*
X140558279Y-91169281D01*
X140558282Y-91169283D01*
X140558283Y-91169284D01*
X140740817Y-91297097D01*
X140845272Y-91345805D01*
X140898557Y-91392722D01*
X140918018Y-91460999D01*
X140897476Y-91528959D01*
X140845272Y-91574195D01*
X140740821Y-91622901D01*
X140558282Y-91750716D01*
X140558278Y-91750719D01*
X140400719Y-91908278D01*
X140400716Y-91908282D01*
X140272901Y-92090821D01*
X140178731Y-92292769D01*
X140178729Y-92292774D01*
X140154879Y-92381784D01*
X140121056Y-92508014D01*
X140101635Y-92730000D01*
X140121056Y-92951986D01*
X140132300Y-92993949D01*
X140178729Y-93167225D01*
X140178731Y-93167230D01*
X140272902Y-93369182D01*
X140400718Y-93551720D01*
X140558279Y-93709281D01*
X140558282Y-93709283D01*
X140558283Y-93709284D01*
X140740817Y-93837097D01*
X140845272Y-93885805D01*
X140898557Y-93932722D01*
X140918018Y-94000999D01*
X140897476Y-94068959D01*
X140845272Y-94114195D01*
X140740821Y-94162901D01*
X140558282Y-94290716D01*
X140558278Y-94290719D01*
X140400719Y-94448278D01*
X140400716Y-94448282D01*
X140272901Y-94630821D01*
X140178731Y-94832769D01*
X140178729Y-94832774D01*
X140136509Y-94990341D01*
X140121056Y-95048014D01*
X140101635Y-95270000D01*
X140121056Y-95491986D01*
X140151963Y-95607331D01*
X140178729Y-95707225D01*
X140178731Y-95707230D01*
X140272902Y-95909182D01*
X140400718Y-96091720D01*
X140558279Y-96249281D01*
X140558282Y-96249283D01*
X140558283Y-96249284D01*
X140740817Y-96377097D01*
X140845272Y-96425805D01*
X140898557Y-96472722D01*
X140918018Y-96540999D01*
X140897476Y-96608959D01*
X140845272Y-96654195D01*
X140740821Y-96702901D01*
X140558282Y-96830716D01*
X140558278Y-96830719D01*
X140400719Y-96988278D01*
X140400716Y-96988282D01*
X140272901Y-97170821D01*
X140178731Y-97372769D01*
X140178729Y-97372774D01*
X140146794Y-97491958D01*
X140121056Y-97588014D01*
X140101635Y-97810000D01*
X140121056Y-98031986D01*
X140149701Y-98138889D01*
X140178729Y-98247225D01*
X140178731Y-98247230D01*
X140272902Y-98449182D01*
X140400718Y-98631720D01*
X140558279Y-98789281D01*
X140558282Y-98789283D01*
X140558283Y-98789284D01*
X140740817Y-98917097D01*
X140845272Y-98965805D01*
X140898557Y-99012722D01*
X140918018Y-99080999D01*
X140897476Y-99148959D01*
X140845272Y-99194195D01*
X140740821Y-99242901D01*
X140558282Y-99370716D01*
X140558278Y-99370719D01*
X140400719Y-99528278D01*
X140400716Y-99528282D01*
X140272901Y-99710821D01*
X140178731Y-99912769D01*
X140178729Y-99912774D01*
X140136509Y-100070341D01*
X140121056Y-100128014D01*
X140101635Y-100350000D01*
X140121056Y-100571986D01*
X140151963Y-100687331D01*
X140178729Y-100787225D01*
X140178731Y-100787230D01*
X140272902Y-100989182D01*
X140400718Y-101171720D01*
X140558279Y-101329281D01*
X140558282Y-101329283D01*
X140558283Y-101329284D01*
X140740817Y-101457097D01*
X140845272Y-101505805D01*
X140898557Y-101552722D01*
X140918018Y-101620999D01*
X140897476Y-101688959D01*
X140845272Y-101734195D01*
X140740821Y-101782901D01*
X140558282Y-101910716D01*
X140558278Y-101910719D01*
X140400719Y-102068278D01*
X140400716Y-102068282D01*
X140272901Y-102250821D01*
X140178731Y-102452769D01*
X140178729Y-102452774D01*
X140147599Y-102568953D01*
X140121056Y-102668014D01*
X140101635Y-102890000D01*
X140121056Y-103111986D01*
X140151963Y-103227331D01*
X140178729Y-103327225D01*
X140178731Y-103327230D01*
X140272902Y-103529182D01*
X140400718Y-103711720D01*
X140558279Y-103869281D01*
X140558282Y-103869283D01*
X140558283Y-103869284D01*
X140740817Y-103997097D01*
X140845272Y-104045805D01*
X140898557Y-104092722D01*
X140918018Y-104160999D01*
X140897476Y-104228959D01*
X140845272Y-104274195D01*
X140740821Y-104322901D01*
X140558282Y-104450716D01*
X140558278Y-104450719D01*
X140400719Y-104608278D01*
X140400716Y-104608282D01*
X140272901Y-104790821D01*
X140178731Y-104992769D01*
X140178729Y-104992774D01*
X140136509Y-105150341D01*
X140121056Y-105208014D01*
X140101635Y-105430000D01*
X140121056Y-105651986D01*
X140136673Y-105710269D01*
X140178729Y-105867225D01*
X140178731Y-105867230D01*
X140272902Y-106069182D01*
X140400718Y-106251720D01*
X140558279Y-106409281D01*
X140558282Y-106409283D01*
X140558283Y-106409284D01*
X140740817Y-106537097D01*
X140845272Y-106585805D01*
X140898557Y-106632722D01*
X140918018Y-106700999D01*
X140897476Y-106768959D01*
X140845272Y-106814195D01*
X140740821Y-106862901D01*
X140558282Y-106990716D01*
X140558278Y-106990719D01*
X140400719Y-107148278D01*
X140400716Y-107148282D01*
X140272901Y-107330821D01*
X140178731Y-107532769D01*
X140178729Y-107532774D01*
X140150967Y-107636384D01*
X140121056Y-107748014D01*
X140101635Y-107970000D01*
X140121056Y-108191986D01*
X140151963Y-108307331D01*
X140178729Y-108407225D01*
X140178731Y-108407230D01*
X140272902Y-108609182D01*
X140400718Y-108791720D01*
X140558279Y-108949281D01*
X140558282Y-108949283D01*
X140558283Y-108949284D01*
X140740817Y-109077097D01*
X140845272Y-109125805D01*
X140898557Y-109172722D01*
X140918018Y-109240999D01*
X140897476Y-109308959D01*
X140845272Y-109354195D01*
X140740821Y-109402901D01*
X140558282Y-109530716D01*
X140558278Y-109530719D01*
X140400719Y-109688278D01*
X140400716Y-109688282D01*
X140272901Y-109870821D01*
X140178731Y-110072769D01*
X140178729Y-110072774D01*
X140150936Y-110176500D01*
X140121056Y-110288014D01*
X140101635Y-110510000D01*
X137486727Y-110510000D01*
X137495042Y-110496767D01*
X137549634Y-110340752D01*
X137568141Y-110176500D01*
X137549634Y-110012248D01*
X137495042Y-109856233D01*
X137481437Y-109834581D01*
X137407102Y-109716276D01*
X137290223Y-109599397D01*
X137150269Y-109511459D01*
X137150267Y-109511458D01*
X137150266Y-109511458D01*
X136994252Y-109456866D01*
X136830000Y-109438359D01*
X136665748Y-109456866D01*
X136665745Y-109456866D01*
X136665745Y-109456867D01*
X136509732Y-109511458D01*
X136509730Y-109511459D01*
X136369776Y-109599397D01*
X136252897Y-109716276D01*
X136164959Y-109856230D01*
X136164958Y-109856232D01*
X136164958Y-109856233D01*
X136110366Y-110012248D01*
X136091859Y-110176500D01*
X127001453Y-110176500D01*
X127003055Y-107700000D01*
X129986384Y-107700000D01*
X130006783Y-107881047D01*
X130006783Y-107881049D01*
X130006784Y-107881050D01*
X130066957Y-108053015D01*
X130066958Y-108053018D01*
X130163887Y-108207279D01*
X130163888Y-108207281D01*
X130292718Y-108336111D01*
X130292720Y-108336112D01*
X130446981Y-108433041D01*
X130446982Y-108433041D01*
X130446985Y-108433043D01*
X130618953Y-108493217D01*
X130800000Y-108513616D01*
X130981047Y-108493217D01*
X131153015Y-108433043D01*
X131307281Y-108336111D01*
X131436111Y-108207281D01*
X131533043Y-108053015D01*
X131593217Y-107881047D01*
X131613616Y-107700000D01*
X131593217Y-107518953D01*
X131533043Y-107346985D01*
X131533041Y-107346982D01*
X131533041Y-107346981D01*
X131436112Y-107192720D01*
X131436111Y-107192718D01*
X131307281Y-107063888D01*
X131307279Y-107063887D01*
X131153018Y-106966958D01*
X131153015Y-106966957D01*
X130981050Y-106906784D01*
X130981049Y-106906783D01*
X130981047Y-106906783D01*
X130800000Y-106886384D01*
X130618953Y-106906783D01*
X130618950Y-106906783D01*
X130618949Y-106906784D01*
X130446984Y-106966957D01*
X130446981Y-106966958D01*
X130292720Y-107063887D01*
X130292718Y-107063888D01*
X130163888Y-107192718D01*
X130163887Y-107192720D01*
X130066958Y-107346981D01*
X130066957Y-107346984D01*
X130061138Y-107363616D01*
X130006783Y-107518953D01*
X129986384Y-107700000D01*
X127003055Y-107700000D01*
X127003799Y-106550000D01*
X127286384Y-106550000D01*
X127306783Y-106731047D01*
X127306783Y-106731049D01*
X127306784Y-106731050D01*
X127366957Y-106903015D01*
X127366958Y-106903018D01*
X127463887Y-107057279D01*
X127463888Y-107057281D01*
X127592718Y-107186111D01*
X127592720Y-107186112D01*
X127746981Y-107283041D01*
X127746982Y-107283041D01*
X127746985Y-107283043D01*
X127918953Y-107343217D01*
X128100000Y-107363616D01*
X128281047Y-107343217D01*
X128453015Y-107283043D01*
X128607281Y-107186111D01*
X128736111Y-107057281D01*
X128833043Y-106903015D01*
X128893217Y-106731047D01*
X128913616Y-106550000D01*
X128893217Y-106368953D01*
X128833043Y-106196985D01*
X128833041Y-106196982D01*
X128833041Y-106196981D01*
X128736112Y-106042720D01*
X128736111Y-106042718D01*
X128607281Y-105913888D01*
X128607279Y-105913887D01*
X128453018Y-105816958D01*
X128453015Y-105816957D01*
X128281050Y-105756784D01*
X128281049Y-105756783D01*
X128281047Y-105756783D01*
X128100000Y-105736384D01*
X127918953Y-105756783D01*
X127918950Y-105756783D01*
X127918949Y-105756784D01*
X127746984Y-105816957D01*
X127746981Y-105816958D01*
X127592720Y-105913887D01*
X127592718Y-105913888D01*
X127463888Y-106042718D01*
X127463887Y-106042720D01*
X127366958Y-106196981D01*
X127366957Y-106196984D01*
X127324279Y-106318953D01*
X127306783Y-106368953D01*
X127286384Y-106550000D01*
X127003799Y-106550000D01*
X127004549Y-105390000D01*
X136371859Y-105390000D01*
X136390366Y-105554252D01*
X136390367Y-105554254D01*
X136444958Y-105710267D01*
X136444959Y-105710269D01*
X136532897Y-105850223D01*
X136649776Y-105967102D01*
X136768081Y-106041437D01*
X136789733Y-106055042D01*
X136945748Y-106109634D01*
X137110000Y-106128141D01*
X137274252Y-106109634D01*
X137430267Y-106055042D01*
X137570223Y-105967102D01*
X137687102Y-105850223D01*
X137775042Y-105710267D01*
X137829634Y-105554252D01*
X137848141Y-105390000D01*
X137829634Y-105225748D01*
X137775042Y-105069733D01*
X137726685Y-104992773D01*
X137687102Y-104929776D01*
X137570223Y-104812897D01*
X137430269Y-104724959D01*
X137430267Y-104724958D01*
X137430267Y-104724957D01*
X137274252Y-104670366D01*
X137110000Y-104651859D01*
X136945748Y-104670366D01*
X136945745Y-104670366D01*
X136945745Y-104670367D01*
X136789732Y-104724958D01*
X136789730Y-104724959D01*
X136649776Y-104812897D01*
X136532897Y-104929776D01*
X136444959Y-105069730D01*
X136444958Y-105069732D01*
X136444958Y-105069733D01*
X136390366Y-105225748D01*
X136371859Y-105390000D01*
X127004549Y-105390000D01*
X127009183Y-98225000D01*
X136861384Y-98225000D01*
X136881783Y-98406047D01*
X136881783Y-98406049D01*
X136881784Y-98406050D01*
X136941957Y-98578015D01*
X136941958Y-98578018D01*
X137038887Y-98732279D01*
X137038888Y-98732281D01*
X137167718Y-98861111D01*
X137167720Y-98861112D01*
X137321981Y-98958041D01*
X137321982Y-98958041D01*
X137321985Y-98958043D01*
X137493953Y-99018217D01*
X137675000Y-99038616D01*
X137856047Y-99018217D01*
X138028015Y-98958043D01*
X138182281Y-98861111D01*
X138311111Y-98732281D01*
X138408043Y-98578015D01*
X138468217Y-98406047D01*
X138488616Y-98225000D01*
X138468217Y-98043953D01*
X138408043Y-97871985D01*
X138408041Y-97871982D01*
X138408041Y-97871981D01*
X138311112Y-97717720D01*
X138311111Y-97717718D01*
X138182281Y-97588888D01*
X138182279Y-97588887D01*
X138028018Y-97491958D01*
X138028015Y-97491957D01*
X137856050Y-97431784D01*
X137856049Y-97431783D01*
X137856047Y-97431783D01*
X137675000Y-97411384D01*
X137493953Y-97431783D01*
X137493950Y-97431783D01*
X137493949Y-97431784D01*
X137321984Y-97491957D01*
X137321981Y-97491958D01*
X137167720Y-97588887D01*
X137167718Y-97588888D01*
X137038888Y-97717718D01*
X137038887Y-97717720D01*
X136941958Y-97871981D01*
X136941957Y-97871984D01*
X136903537Y-97981784D01*
X136881783Y-98043953D01*
X136861384Y-98225000D01*
X127009183Y-98225000D01*
X127010283Y-96525000D01*
X129861384Y-96525000D01*
X129881783Y-96706047D01*
X129881783Y-96706049D01*
X129881784Y-96706050D01*
X129941957Y-96878015D01*
X129941958Y-96878018D01*
X130038887Y-97032279D01*
X130038888Y-97032281D01*
X130167718Y-97161111D01*
X130167720Y-97161112D01*
X130321981Y-97258041D01*
X130321982Y-97258041D01*
X130321985Y-97258043D01*
X130493953Y-97318217D01*
X130675000Y-97338616D01*
X130856047Y-97318217D01*
X131028015Y-97258043D01*
X131182281Y-97161111D01*
X131311111Y-97032281D01*
X131408043Y-96878015D01*
X131468217Y-96706047D01*
X131488616Y-96525000D01*
X131468217Y-96343953D01*
X131408043Y-96171985D01*
X131408041Y-96171982D01*
X131408041Y-96171981D01*
X131311112Y-96017720D01*
X131311111Y-96017718D01*
X131182281Y-95888888D01*
X131182279Y-95888887D01*
X131028018Y-95791958D01*
X131028015Y-95791957D01*
X130856050Y-95731784D01*
X130856049Y-95731783D01*
X130856047Y-95731783D01*
X130675000Y-95711384D01*
X130493953Y-95731783D01*
X130493950Y-95731783D01*
X130493949Y-95731784D01*
X130321984Y-95791957D01*
X130321981Y-95791958D01*
X130167720Y-95888887D01*
X130167718Y-95888888D01*
X130038888Y-96017718D01*
X130038887Y-96017720D01*
X129941958Y-96171981D01*
X129941957Y-96171984D01*
X129941957Y-96171985D01*
X129881783Y-96343953D01*
X129861384Y-96525000D01*
X127010283Y-96525000D01*
X127012450Y-93175000D01*
X130136384Y-93175000D01*
X130156783Y-93356047D01*
X130156783Y-93356049D01*
X130156784Y-93356050D01*
X130216957Y-93528015D01*
X130216958Y-93528018D01*
X130313887Y-93682279D01*
X130313888Y-93682281D01*
X130442718Y-93811111D01*
X130442720Y-93811112D01*
X130596981Y-93908041D01*
X130596982Y-93908041D01*
X130596985Y-93908043D01*
X130768953Y-93968217D01*
X130950000Y-93988616D01*
X131131047Y-93968217D01*
X131303015Y-93908043D01*
X131457281Y-93811111D01*
X131586111Y-93682281D01*
X131683043Y-93528015D01*
X131743217Y-93356047D01*
X131763616Y-93175000D01*
X131743217Y-92993953D01*
X131683043Y-92821985D01*
X131683041Y-92821982D01*
X131683041Y-92821981D01*
X131586112Y-92667720D01*
X131586111Y-92667718D01*
X131457281Y-92538888D01*
X131457279Y-92538887D01*
X131303018Y-92441958D01*
X131303015Y-92441957D01*
X131131050Y-92381784D01*
X131131049Y-92381783D01*
X131131047Y-92381783D01*
X130950000Y-92361384D01*
X130768953Y-92381783D01*
X130768950Y-92381783D01*
X130768949Y-92381784D01*
X130596984Y-92441957D01*
X130596981Y-92441958D01*
X130442720Y-92538887D01*
X130442718Y-92538888D01*
X130313888Y-92667718D01*
X130313887Y-92667720D01*
X130216958Y-92821981D01*
X130216957Y-92821984D01*
X130171468Y-92951986D01*
X130156783Y-92993953D01*
X130136384Y-93175000D01*
X127012450Y-93175000D01*
X127015296Y-88775000D01*
X128661384Y-88775000D01*
X128681783Y-88956047D01*
X128681783Y-88956049D01*
X128681784Y-88956050D01*
X128741957Y-89128015D01*
X128741958Y-89128018D01*
X128838887Y-89282279D01*
X128838888Y-89282281D01*
X128967718Y-89411111D01*
X128967720Y-89411112D01*
X129121981Y-89508041D01*
X129121982Y-89508041D01*
X129121985Y-89508043D01*
X129293953Y-89568217D01*
X129475000Y-89588616D01*
X129567635Y-89578178D01*
X129637564Y-89590427D01*
X129689772Y-89638540D01*
X129707681Y-89707240D01*
X129706948Y-89717494D01*
X129706784Y-89718949D01*
X129706783Y-89718953D01*
X129686384Y-89900000D01*
X129700048Y-90021277D01*
X129687798Y-90091209D01*
X129639685Y-90143417D01*
X129581900Y-90159427D01*
X129582032Y-90160592D01*
X129575001Y-90161384D01*
X129575000Y-90161384D01*
X129393953Y-90181783D01*
X129393950Y-90181783D01*
X129393949Y-90181784D01*
X129221984Y-90241957D01*
X129221981Y-90241958D01*
X129067720Y-90338887D01*
X129067718Y-90338888D01*
X128938888Y-90467718D01*
X128938887Y-90467720D01*
X128841958Y-90621981D01*
X128841957Y-90621984D01*
X128803607Y-90731584D01*
X128781783Y-90793953D01*
X128761384Y-90975000D01*
X128781783Y-91156047D01*
X128781783Y-91156049D01*
X128781784Y-91156050D01*
X128841957Y-91328015D01*
X128841958Y-91328018D01*
X128938887Y-91482279D01*
X128938888Y-91482281D01*
X129067718Y-91611111D01*
X129067720Y-91611112D01*
X129221981Y-91708041D01*
X129221982Y-91708041D01*
X129221985Y-91708043D01*
X129393953Y-91768217D01*
X129575000Y-91788616D01*
X129756047Y-91768217D01*
X129928015Y-91708043D01*
X130082281Y-91611111D01*
X130211111Y-91482281D01*
X130308043Y-91328015D01*
X130368217Y-91156047D01*
X130388616Y-90975000D01*
X130374951Y-90853722D01*
X130387200Y-90783792D01*
X130435313Y-90731584D01*
X130493099Y-90715572D01*
X130492968Y-90714408D01*
X130499998Y-90713615D01*
X130500000Y-90713616D01*
X130681047Y-90693217D01*
X130853015Y-90633043D01*
X131007281Y-90536111D01*
X131136111Y-90407281D01*
X131233043Y-90253015D01*
X131293217Y-90081047D01*
X131313616Y-89900000D01*
X131293217Y-89718953D01*
X131233043Y-89546985D01*
X131233041Y-89546982D01*
X131233041Y-89546981D01*
X131136112Y-89392720D01*
X131136111Y-89392718D01*
X131007281Y-89263888D01*
X131007279Y-89263887D01*
X130853018Y-89166958D01*
X130853015Y-89166957D01*
X130681050Y-89106784D01*
X130681049Y-89106783D01*
X130681047Y-89106783D01*
X130500000Y-89086384D01*
X130499999Y-89086384D01*
X130407366Y-89096821D01*
X130337434Y-89084571D01*
X130285226Y-89036458D01*
X130267318Y-88967757D01*
X130268051Y-88957505D01*
X130268214Y-88956054D01*
X130268217Y-88956047D01*
X130288616Y-88775000D01*
X130268217Y-88593953D01*
X130208043Y-88421985D01*
X130208041Y-88421982D01*
X130208041Y-88421981D01*
X130111112Y-88267720D01*
X130111111Y-88267718D01*
X129982281Y-88138888D01*
X129982279Y-88138887D01*
X129828018Y-88041958D01*
X129828015Y-88041957D01*
X129656050Y-87981784D01*
X129656049Y-87981783D01*
X129656047Y-87981783D01*
X129475000Y-87961384D01*
X129293953Y-87981783D01*
X129293950Y-87981783D01*
X129293949Y-87981784D01*
X129121984Y-88041957D01*
X129121981Y-88041958D01*
X128967720Y-88138887D01*
X128967718Y-88138888D01*
X128838888Y-88267718D01*
X128838887Y-88267720D01*
X128741958Y-88421981D01*
X128741957Y-88421984D01*
X128741957Y-88421985D01*
X128681783Y-88593953D01*
X128661384Y-88775000D01*
X127015296Y-88775000D01*
X127016703Y-86600000D01*
X130686384Y-86600000D01*
X130706783Y-86781047D01*
X130706783Y-86781049D01*
X130706784Y-86781050D01*
X130766957Y-86953015D01*
X130766958Y-86953018D01*
X130863887Y-87107279D01*
X130863888Y-87107281D01*
X130992718Y-87236111D01*
X130992720Y-87236112D01*
X131146981Y-87333041D01*
X131146982Y-87333041D01*
X131146985Y-87333043D01*
X131318953Y-87393217D01*
X131500000Y-87413616D01*
X131681047Y-87393217D01*
X131853015Y-87333043D01*
X132007281Y-87236111D01*
X132136111Y-87107281D01*
X132233043Y-86953015D01*
X132293217Y-86781047D01*
X132313616Y-86600000D01*
X132293217Y-86418953D01*
X132233043Y-86246985D01*
X132233041Y-86246982D01*
X132233041Y-86246981D01*
X132136112Y-86092720D01*
X132136111Y-86092718D01*
X132007281Y-85963888D01*
X132007279Y-85963887D01*
X131853018Y-85866958D01*
X131853015Y-85866957D01*
X131681050Y-85806784D01*
X131681049Y-85806783D01*
X131681047Y-85806783D01*
X131500000Y-85786384D01*
X131318953Y-85806783D01*
X131318950Y-85806783D01*
X131318949Y-85806784D01*
X131146984Y-85866957D01*
X131146981Y-85866958D01*
X130992720Y-85963887D01*
X130992718Y-85963888D01*
X130863888Y-86092718D01*
X130863887Y-86092720D01*
X130766958Y-86246981D01*
X130766957Y-86246984D01*
X130716545Y-86391056D01*
X130706783Y-86418953D01*
X130686384Y-86600000D01*
X127016703Y-86600000D01*
X127019274Y-82625000D01*
X130036384Y-82625000D01*
X130056783Y-82806047D01*
X130056783Y-82806049D01*
X130056784Y-82806050D01*
X130116957Y-82978015D01*
X130116958Y-82978018D01*
X130213887Y-83132279D01*
X130213888Y-83132281D01*
X130342718Y-83261111D01*
X130342720Y-83261112D01*
X130496981Y-83358041D01*
X130496982Y-83358041D01*
X130496985Y-83358043D01*
X130668953Y-83418217D01*
X130850000Y-83438616D01*
X131031047Y-83418217D01*
X131203015Y-83358043D01*
X131357281Y-83261111D01*
X131486111Y-83132281D01*
X131583043Y-82978015D01*
X131643217Y-82806047D01*
X131643898Y-82800000D01*
X137786384Y-82800000D01*
X137806783Y-82981047D01*
X137806783Y-82981049D01*
X137806784Y-82981050D01*
X137866957Y-83153015D01*
X137866958Y-83153018D01*
X137963887Y-83307279D01*
X137963888Y-83307281D01*
X138092718Y-83436111D01*
X138092720Y-83436112D01*
X138246981Y-83533041D01*
X138246982Y-83533041D01*
X138246985Y-83533043D01*
X138418953Y-83593217D01*
X138600000Y-83613616D01*
X138781047Y-83593217D01*
X138953015Y-83533043D01*
X139107281Y-83436111D01*
X139236111Y-83307281D01*
X139333043Y-83153015D01*
X139393217Y-82981047D01*
X139413616Y-82800000D01*
X139393217Y-82618953D01*
X139333043Y-82446985D01*
X139333041Y-82446982D01*
X139333041Y-82446981D01*
X139236112Y-82292720D01*
X139236111Y-82292718D01*
X139107281Y-82163888D01*
X139107279Y-82163887D01*
X138953018Y-82066958D01*
X138953015Y-82066957D01*
X138781050Y-82006784D01*
X138781049Y-82006783D01*
X138781047Y-82006783D01*
X138600000Y-81986384D01*
X138418953Y-82006783D01*
X138418950Y-82006783D01*
X138418949Y-82006784D01*
X138246984Y-82066957D01*
X138246981Y-82066958D01*
X138092720Y-82163887D01*
X138092718Y-82163888D01*
X137963888Y-82292718D01*
X137963887Y-82292720D01*
X137866958Y-82446981D01*
X137866957Y-82446984D01*
X137822163Y-82575000D01*
X137806783Y-82618953D01*
X137786384Y-82800000D01*
X131643898Y-82800000D01*
X131663616Y-82625000D01*
X131643217Y-82443953D01*
X131583043Y-82271985D01*
X131583041Y-82271982D01*
X131583041Y-82271981D01*
X131486112Y-82117720D01*
X131486111Y-82117718D01*
X131357281Y-81988888D01*
X131357279Y-81988887D01*
X131203018Y-81891958D01*
X131203015Y-81891957D01*
X131031050Y-81831784D01*
X131031049Y-81831783D01*
X131031047Y-81831783D01*
X130850000Y-81811384D01*
X130668953Y-81831783D01*
X130668950Y-81831783D01*
X130668949Y-81831784D01*
X130496984Y-81891957D01*
X130496981Y-81891958D01*
X130342720Y-81988887D01*
X130342718Y-81988888D01*
X130213888Y-82117718D01*
X130213887Y-82117720D01*
X130116958Y-82271981D01*
X130116957Y-82271984D01*
X130065531Y-82418953D01*
X130056783Y-82443953D01*
X130036384Y-82625000D01*
X127019274Y-82625000D01*
X127025479Y-73030814D01*
X127025500Y-73030703D01*
X127025500Y-73001465D01*
X127025534Y-73000003D01*
X127636641Y-73000003D01*
X127656064Y-73358237D01*
X127714103Y-73712269D01*
X127810084Y-74057959D01*
X127810085Y-74057961D01*
X127942877Y-74391243D01*
X128110925Y-74708215D01*
X128312258Y-75005159D01*
X128544515Y-75278595D01*
X128544516Y-75278595D01*
X128804962Y-75525304D01*
X128804977Y-75525317D01*
X129090586Y-75742431D01*
X129397995Y-75927393D01*
X129723599Y-76078033D01*
X130063583Y-76192587D01*
X130413958Y-76269711D01*
X130770618Y-76308500D01*
X130770626Y-76308500D01*
X131129374Y-76308500D01*
X131129382Y-76308500D01*
X131486042Y-76269711D01*
X131836417Y-76192587D01*
X132176401Y-76078033D01*
X132502005Y-75927393D01*
X132809414Y-75742431D01*
X133095023Y-75525317D01*
X133355484Y-75278595D01*
X133587742Y-75005159D01*
X133789075Y-74708215D01*
X133957123Y-74391243D01*
X134089915Y-74057961D01*
X134185895Y-73712274D01*
X134243936Y-73358237D01*
X134261694Y-73030703D01*
X134263359Y-73000003D01*
X167686641Y-73000003D01*
X167706064Y-73358237D01*
X167764103Y-73712269D01*
X167860084Y-74057959D01*
X167860085Y-74057961D01*
X167992877Y-74391243D01*
X168160925Y-74708215D01*
X168362258Y-75005159D01*
X168594515Y-75278595D01*
X168594516Y-75278595D01*
X168854962Y-75525304D01*
X168854977Y-75525317D01*
X169140586Y-75742431D01*
X169447995Y-75927393D01*
X169773599Y-76078033D01*
X170113583Y-76192587D01*
X170463958Y-76269711D01*
X170820618Y-76308500D01*
X170820626Y-76308500D01*
X171179374Y-76308500D01*
X171179382Y-76308500D01*
X171536042Y-76269711D01*
X171886417Y-76192587D01*
X172226401Y-76078033D01*
X172552005Y-75927393D01*
X172859414Y-75742431D01*
X173145023Y-75525317D01*
X173405484Y-75278595D01*
X173637742Y-75005159D01*
X173839075Y-74708215D01*
X174007123Y-74391243D01*
X174139915Y-74057961D01*
X174235895Y-73712274D01*
X174293936Y-73358237D01*
X174311694Y-73030703D01*
X174313359Y-73000003D01*
X174313359Y-72999996D01*
X174303268Y-72813890D01*
X174293936Y-72641763D01*
X174235895Y-72287726D01*
X174139915Y-71942039D01*
X174007123Y-71608757D01*
X173839075Y-71291785D01*
X173637742Y-70994841D01*
X173405484Y-70721405D01*
X173405483Y-70721404D01*
X173145037Y-70474695D01*
X173145022Y-70474682D01*
X172859418Y-70257572D01*
X172859412Y-70257568D01*
X172552010Y-70072610D01*
X172552009Y-70072609D01*
X172552005Y-70072607D01*
X172226401Y-69921967D01*
X171886417Y-69807413D01*
X171838915Y-69796956D01*
X171536054Y-69730291D01*
X171536030Y-69730287D01*
X171179389Y-69691500D01*
X171179382Y-69691500D01*
X170820618Y-69691500D01*
X170820610Y-69691500D01*
X170463969Y-69730287D01*
X170463945Y-69730291D01*
X170113587Y-69807412D01*
X170113573Y-69807416D01*
X169773601Y-69921966D01*
X169773598Y-69921967D01*
X169773599Y-69921967D01*
X169464708Y-70064875D01*
X169447989Y-70072610D01*
X169140587Y-70257568D01*
X169140581Y-70257572D01*
X168854977Y-70474682D01*
X168854962Y-70474695D01*
X168594516Y-70721404D01*
X168362256Y-70994843D01*
X168160924Y-71291785D01*
X168160922Y-71291789D01*
X167992876Y-71608759D01*
X167992872Y-71608768D01*
X167860084Y-71942040D01*
X167764103Y-72287730D01*
X167706064Y-72641762D01*
X167686641Y-72999996D01*
X167686641Y-73000003D01*
X134263359Y-73000003D01*
X134263359Y-72999996D01*
X134253268Y-72813890D01*
X134243936Y-72641763D01*
X134185895Y-72287726D01*
X134089915Y-71942039D01*
X133957123Y-71608757D01*
X133789075Y-71291785D01*
X133587742Y-70994841D01*
X133355484Y-70721405D01*
X133355483Y-70721404D01*
X133095037Y-70474695D01*
X133095022Y-70474682D01*
X132809418Y-70257572D01*
X132809412Y-70257568D01*
X132502010Y-70072610D01*
X132502009Y-70072609D01*
X132502005Y-70072607D01*
X132176401Y-69921967D01*
X131836417Y-69807413D01*
X131788915Y-69796956D01*
X131486054Y-69730291D01*
X131486030Y-69730287D01*
X131129389Y-69691500D01*
X131129382Y-69691500D01*
X130770618Y-69691500D01*
X130770610Y-69691500D01*
X130413969Y-69730287D01*
X130413945Y-69730291D01*
X130063587Y-69807412D01*
X130063573Y-69807416D01*
X129723601Y-69921966D01*
X129723598Y-69921967D01*
X129723599Y-69921967D01*
X129414708Y-70064875D01*
X129397989Y-70072610D01*
X129090587Y-70257568D01*
X129090581Y-70257572D01*
X128804977Y-70474682D01*
X128804962Y-70474695D01*
X128544516Y-70721404D01*
X128312256Y-70994843D01*
X128110924Y-71291785D01*
X128110922Y-71291789D01*
X127942876Y-71608759D01*
X127942872Y-71608768D01*
X127810084Y-71942040D01*
X127714103Y-72287730D01*
X127656064Y-72641762D01*
X127636641Y-72999996D01*
X127636641Y-73000003D01*
X127025534Y-73000003D01*
X127025567Y-72998555D01*
X127042321Y-72636187D01*
X127042858Y-72630390D01*
X127068961Y-72443258D01*
X127092773Y-72272549D01*
X127093835Y-72266871D01*
X127176561Y-71915142D01*
X127178150Y-71909563D01*
X127278969Y-71608759D01*
X127292968Y-71566990D01*
X127295056Y-71561600D01*
X127441006Y-71231055D01*
X127443575Y-71225894D01*
X127619406Y-70910218D01*
X127622445Y-70905310D01*
X127826643Y-70607219D01*
X127830126Y-70602606D01*
X128060953Y-70324630D01*
X128064854Y-70320351D01*
X128320351Y-70064854D01*
X128324632Y-70060953D01*
X128602606Y-69830126D01*
X128607219Y-69826643D01*
X128905310Y-69622445D01*
X128910218Y-69619406D01*
X129225894Y-69443575D01*
X129231055Y-69441006D01*
X129561600Y-69295056D01*
X129566990Y-69292968D01*
X129909564Y-69178149D01*
X129915142Y-69176561D01*
X130266871Y-69093835D01*
X130272549Y-69092773D01*
X130630389Y-69042858D01*
X130636187Y-69042321D01*
X130998556Y-69025567D01*
X131001466Y-69025500D01*
X131008285Y-69025500D01*
X170991715Y-69025500D01*
X170998534Y-69025500D01*
X171001444Y-69025567D01*
G37*
%TD.AperFunction*%
%TD*%
M02*
