M48
; DRILL file {KiCad 7.0.5} date Mon Jul 17 20:29:56 2023
; FORMAT={3:3/ absolute / metric / suppress leading zeros}
; #@! TF.CreationDate,2023-07-17T20:29:56+05:30
; #@! TF.GenerationSoftware,Kicad,Pcbnew,7.0.5
; #@! TF.FileFunction,MixedPlating,1,4
FMAT,2
METRIC,TZ
; #@! TA.AperFunction,Plated,PTH,ViaDrill
T1C0.200
; #@! TA.AperFunction,Plated,PTH,ViaDrill
T2C0.300
; #@! TA.AperFunction,Plated,PTH,ViaDrill
T3C0.400
; #@! TA.AperFunction,Plated,PTH,ComponentDrill
T4C1.000
; #@! TA.AperFunction,Plated,PTH,ComponentDrill
T5C1.020
; #@! TA.AperFunction,Plated,PTH,ComponentDrill
T6C1.200
; #@! TA.AperFunction,Plated,PTH,ComponentDrill
T7C3.200
%
G90
G05
T1
X135300Y-111650
X136830Y-110176
X137110Y-105390
X137825Y-114275
X139150Y-113825
X139626Y-114325
X140101Y-113349
X151400Y-115050
X151675Y-114301
X151950Y-116775
X153400Y-115173
X154400Y-116025
X158475Y-83825
X159050Y-83675
X160700Y-107575
X161600Y-119325
X161700Y-116050
X161750Y-118025
X161836Y-115097
X162325Y-121525
X163850Y-116075
X163850Y-121550
X164550Y-119325
X170275Y-100900
T2
X127875Y-112425
X128100Y-101600
X128100Y-106550
X128225Y-82725
X129475Y-88775
X129500Y-95500
X129575Y-90975
X130375Y-92125
X130500Y-89900
X130675Y-96525
X130800Y-107700
X130850Y-82625
X130950Y-93175
X130960Y-79610
X131500Y-86600
X133500Y-92700
X134300Y-106700
X135025Y-99750
X135900Y-94875
X136075Y-84950
X136200Y-150400
X136525Y-133350
X136625Y-137850
X136675Y-129300
X136975Y-141900
X137075Y-77525
X137200Y-148150
X137675Y-98225
X138200Y-148150
X138375Y-120475
X138600Y-82800
X139200Y-150400
X139450Y-142375
X139525Y-133725
X140575Y-129525
X140650Y-138150
X140975Y-115150
X141850Y-120475
X142725Y-108450
X144306Y-122725
X144800Y-90200
X146539Y-128526
X146539Y-134290
X147000Y-82600
X147750Y-106150
X149400Y-134200
X149850Y-118600
X150404Y-134200
X150500Y-120350
X151400Y-134200
X152750Y-134250
X152750Y-135750
X153500Y-135000
X153975Y-120350
X154250Y-134250
X154250Y-135750
X155380Y-127523
X156116Y-127700
X159900Y-85350
X159900Y-86050
X159900Y-86750
X159900Y-87500
X159900Y-88250
X159900Y-89000
X159900Y-89750
X159900Y-90500
X159900Y-91250
X160600Y-85350
X160600Y-91250
X161300Y-85350
X161300Y-91250
X161775Y-106500
X161875Y-82575
X162000Y-85350
X162000Y-91250
X162100Y-102750
X162700Y-85350
X162700Y-91250
X163400Y-85350
X163400Y-91250
X163600Y-144050
X164050Y-98775
X164075Y-86875
X164075Y-107650
X164100Y-85350
X164100Y-86150
X164100Y-89750
X164100Y-90500
X164100Y-91250
X164125Y-102725
X164550Y-117550
X164750Y-86875
X164800Y-89750
X165425Y-86875
X165500Y-89750
X165500Y-90500
X165500Y-91250
X165500Y-92000
X165500Y-92750
X165500Y-93500
X165500Y-94250
X165635Y-127285
X165680Y-123740
X165750Y-95000
X166100Y-86875
X166250Y-95500
X166775Y-86875
X167000Y-95750
X167450Y-86875
X167750Y-89750
X167750Y-90500
X167750Y-91250
X167750Y-92000
X167750Y-92750
X167750Y-93500
X167750Y-95750
X168125Y-86875
X168500Y-93500
X168500Y-95750
X168800Y-86875
X169250Y-93500
X169250Y-95750
X170000Y-93500
X170000Y-95750
T3
X133175Y-127600
X133200Y-136425
X134850Y-145250
X135050Y-127600
X135100Y-136350
X142870Y-140360
X149500Y-125750
X151375Y-129976
X153275Y-129976
X156000Y-125798
X162550Y-138100
X162550Y-141725
T4
X145334Y-147486
X145334Y-150026
X145334Y-152566
X149034Y-147486
X149034Y-150026
X149034Y-152566
X152744Y-147486
X152744Y-150026
X152744Y-152566
X156444Y-147486
X156444Y-150026
X156444Y-152566
T5
X141380Y-77490
X141380Y-80030
X141380Y-82570
X141380Y-85110
X141380Y-87650
X141380Y-90190
X141380Y-92730
X141380Y-95270
X141380Y-97810
X141380Y-100350
X141380Y-102890
X141380Y-105430
X141380Y-107970
X141380Y-110510
X156620Y-77490
X156620Y-80030
X156620Y-82570
X156620Y-85110
X156620Y-87650
X156620Y-90190
X156620Y-92730
X156620Y-95270
X156620Y-97810
X156620Y-100350
X156620Y-102890
X156620Y-105430
X156620Y-107970
X156620Y-110510
T6
X130928Y-116702
X130928Y-120202
X130928Y-123702
X130928Y-127202
X130928Y-130702
X130928Y-134202
X130928Y-137702
X130928Y-141202
X171000Y-78750
X171000Y-82250
X171125Y-116702
X171125Y-120202
X171125Y-123702
X171125Y-127202
X171125Y-130702
X171125Y-134202
X171125Y-137702
X171125Y-141202
T7
X130950Y-73000
X130950Y-150300
X170950Y-150300
X171000Y-73000
T0
M30
