%TF.GenerationSoftware,KiCad,Pcbnew,7.0.5*%
%TF.CreationDate,2023-07-17T20:29:58+05:30*%
%TF.ProjectId,Flight_Computer,466c6967-6874-45f4-936f-6d7075746572,rev?*%
%TF.SameCoordinates,Original*%
%TF.FileFunction,Paste,Top*%
%TF.FilePolarity,Positive*%
%FSLAX46Y46*%
G04 Gerber Fmt 4.6, Leading zero omitted, Abs format (unit mm)*
G04 Created by KiCad (PCBNEW 7.0.5) date 2023-07-17 20:29:58*
%MOMM*%
%LPD*%
G01*
G04 APERTURE LIST*
G04 Aperture macros list*
%AMRoundRect*
0 Rectangle with rounded corners*
0 $1 Rounding radius*
0 $2 $3 $4 $5 $6 $7 $8 $9 X,Y pos of 4 corners*
0 Add a 4 corners polygon primitive as box body*
4,1,4,$2,$3,$4,$5,$6,$7,$8,$9,$2,$3,0*
0 Add four circle primitives for the rounded corners*
1,1,$1+$1,$2,$3*
1,1,$1+$1,$4,$5*
1,1,$1+$1,$6,$7*
1,1,$1+$1,$8,$9*
0 Add four rect primitives between the rounded corners*
20,1,$1+$1,$2,$3,$4,$5,0*
20,1,$1+$1,$4,$5,$6,$7,0*
20,1,$1+$1,$6,$7,$8,$9,0*
20,1,$1+$1,$8,$9,$2,$3,0*%
G04 Aperture macros list end*
%ADD10C,0.100000*%
%ADD11R,1.550000X0.600000*%
%ADD12R,1.800000X1.200000*%
%ADD13RoundRect,0.250000X0.250000X0.475000X-0.250000X0.475000X-0.250000X-0.475000X0.250000X-0.475000X0*%
%ADD14RoundRect,0.218750X-0.218750X-0.381250X0.218750X-0.381250X0.218750X0.381250X-0.218750X0.381250X0*%
%ADD15R,0.700000X0.700000*%
%ADD16R,1.050000X1.000000*%
%ADD17R,2.200000X1.050000*%
%ADD18RoundRect,0.250000X-0.262500X-0.450000X0.262500X-0.450000X0.262500X0.450000X-0.262500X0.450000X0*%
%ADD19RoundRect,0.150000X-0.625000X0.150000X-0.625000X-0.150000X0.625000X-0.150000X0.625000X0.150000X0*%
%ADD20RoundRect,0.250000X-0.650000X0.350000X-0.650000X-0.350000X0.650000X-0.350000X0.650000X0.350000X0*%
%ADD21RoundRect,0.250000X-0.250000X-0.475000X0.250000X-0.475000X0.250000X0.475000X-0.250000X0.475000X0*%
%ADD22RoundRect,0.225000X-0.250000X0.225000X-0.250000X-0.225000X0.250000X-0.225000X0.250000X0.225000X0*%
%ADD23RoundRect,0.200000X0.700000X0.200000X-0.700000X0.200000X-0.700000X-0.200000X0.700000X-0.200000X0*%
G04 APERTURE END LIST*
%TO.C,U1*%
D10*
X162435000Y-118175000D02*
X162185000Y-118175000D01*
X162185000Y-117925000D01*
X162435000Y-117925000D01*
X162435000Y-118175000D01*
G36*
X162435000Y-118175000D02*
G01*
X162185000Y-118175000D01*
X162185000Y-117925000D01*
X162435000Y-117925000D01*
X162435000Y-118175000D01*
G37*
X162445000Y-116675000D02*
X162195000Y-116675000D01*
X162195000Y-116425000D01*
X162445000Y-116425000D01*
X162445000Y-116675000D01*
G36*
X162445000Y-116675000D02*
G01*
X162195000Y-116675000D01*
X162195000Y-116425000D01*
X162445000Y-116425000D01*
X162445000Y-116675000D01*
G37*
X162475000Y-117640000D02*
X162125000Y-117640000D01*
X162125000Y-117460000D01*
X162475000Y-117460000D01*
X162475000Y-117640000D01*
G36*
X162475000Y-117640000D02*
G01*
X162125000Y-117640000D01*
X162125000Y-117460000D01*
X162475000Y-117460000D01*
X162475000Y-117640000D01*
G37*
X162485000Y-117140000D02*
X162135000Y-117140000D01*
X162135000Y-116960000D01*
X162485000Y-116960000D01*
X162485000Y-117140000D01*
G36*
X162485000Y-117140000D02*
G01*
X162135000Y-117140000D01*
X162135000Y-116960000D01*
X162485000Y-116960000D01*
X162485000Y-117140000D01*
G37*
X162915000Y-116710000D02*
X162735000Y-116710000D01*
X162735000Y-116360000D01*
X162915000Y-116360000D01*
X162915000Y-116710000D01*
G36*
X162915000Y-116710000D02*
G01*
X162735000Y-116710000D01*
X162735000Y-116360000D01*
X162915000Y-116360000D01*
X162915000Y-116710000D01*
G37*
X162915000Y-118240000D02*
X162735000Y-118240000D01*
X162735000Y-117890000D01*
X162915000Y-117890000D01*
X162915000Y-118240000D01*
G36*
X162915000Y-118240000D02*
G01*
X162735000Y-118240000D01*
X162735000Y-117890000D01*
X162915000Y-117890000D01*
X162915000Y-118240000D01*
G37*
X163415000Y-116710000D02*
X163235000Y-116710000D01*
X163235000Y-116360000D01*
X163415000Y-116360000D01*
X163415000Y-116710000D01*
G36*
X163415000Y-116710000D02*
G01*
X163235000Y-116710000D01*
X163235000Y-116360000D01*
X163415000Y-116360000D01*
X163415000Y-116710000D01*
G37*
X163415000Y-118240000D02*
X163235000Y-118240000D01*
X163235000Y-117890000D01*
X163415000Y-117890000D01*
X163415000Y-118240000D01*
G36*
X163415000Y-118240000D02*
G01*
X163235000Y-118240000D01*
X163235000Y-117890000D01*
X163415000Y-117890000D01*
X163415000Y-118240000D01*
G37*
X163965000Y-116675000D02*
X163715000Y-116675000D01*
X163715000Y-116425000D01*
X163965000Y-116425000D01*
X163965000Y-116675000D01*
G36*
X163965000Y-116675000D02*
G01*
X163715000Y-116675000D01*
X163715000Y-116425000D01*
X163965000Y-116425000D01*
X163965000Y-116675000D01*
G37*
X163965000Y-118175000D02*
X163715000Y-118175000D01*
X163715000Y-117925000D01*
X163965000Y-117925000D01*
X163965000Y-118175000D01*
G36*
X163965000Y-118175000D02*
G01*
X163715000Y-118175000D01*
X163715000Y-117925000D01*
X163965000Y-117925000D01*
X163965000Y-118175000D01*
G37*
X164005000Y-117640000D02*
X163655000Y-117640000D01*
X163655000Y-117460000D01*
X164005000Y-117460000D01*
X164005000Y-117640000D01*
G36*
X164005000Y-117640000D02*
G01*
X163655000Y-117640000D01*
X163655000Y-117460000D01*
X164005000Y-117460000D01*
X164005000Y-117640000D01*
G37*
X164015000Y-117140000D02*
X163665000Y-117140000D01*
X163665000Y-116960000D01*
X164015000Y-116960000D01*
X164015000Y-117140000D01*
G36*
X164015000Y-117140000D02*
G01*
X163665000Y-117140000D01*
X163665000Y-116960000D01*
X164015000Y-116960000D01*
X164015000Y-117140000D01*
G37*
%TO.C,U7*%
X153950000Y-116275000D02*
X153850000Y-116275000D01*
X153850000Y-115800000D01*
X153950000Y-115800000D01*
X153950000Y-116275000D01*
G36*
X153950000Y-116275000D02*
G01*
X153850000Y-116275000D01*
X153850000Y-115800000D01*
X153950000Y-115800000D01*
X153950000Y-116275000D01*
G37*
X153450000Y-116275000D02*
X153350000Y-116275000D01*
X153350000Y-115800000D01*
X153450000Y-115800000D01*
X153450000Y-116275000D01*
G36*
X153450000Y-116275000D02*
G01*
X153350000Y-116275000D01*
X153350000Y-115800000D01*
X153450000Y-115800000D01*
X153450000Y-116275000D01*
G37*
X152950000Y-116275000D02*
X152850000Y-116275000D01*
X152850000Y-115800000D01*
X152950000Y-115800000D01*
X152950000Y-116275000D01*
G36*
X152950000Y-116275000D02*
G01*
X152850000Y-116275000D01*
X152850000Y-115800000D01*
X152950000Y-115800000D01*
X152950000Y-116275000D01*
G37*
X152450000Y-116275000D02*
X152350000Y-116275000D01*
X152350000Y-115800000D01*
X152450000Y-115800000D01*
X152450000Y-116275000D01*
G36*
X152450000Y-116275000D02*
G01*
X152350000Y-116275000D01*
X152350000Y-115800000D01*
X152450000Y-115800000D01*
X152450000Y-116275000D01*
G37*
X151950000Y-116275000D02*
X151850000Y-116275000D01*
X151850000Y-115800000D01*
X151950000Y-115800000D01*
X151950000Y-116275000D01*
G36*
X151950000Y-116275000D02*
G01*
X151850000Y-116275000D01*
X151850000Y-115800000D01*
X151950000Y-115800000D01*
X151950000Y-116275000D01*
G37*
X151450000Y-116275000D02*
X151350000Y-116275000D01*
X151350000Y-115800000D01*
X151450000Y-115800000D01*
X151450000Y-116275000D01*
G36*
X151450000Y-116275000D02*
G01*
X151350000Y-116275000D01*
X151350000Y-115800000D01*
X151450000Y-115800000D01*
X151450000Y-116275000D01*
G37*
X150950000Y-116275000D02*
X150850000Y-116275000D01*
X150850000Y-115800000D01*
X150950000Y-115800000D01*
X150950000Y-116275000D01*
G36*
X150950000Y-116275000D02*
G01*
X150850000Y-116275000D01*
X150850000Y-115800000D01*
X150950000Y-115800000D01*
X150950000Y-116275000D01*
G37*
X154650000Y-117350000D02*
X154175000Y-117350000D01*
X154175000Y-117250000D01*
X154650000Y-117250000D01*
X154650000Y-117350000D01*
G36*
X154650000Y-117350000D02*
G01*
X154175000Y-117350000D01*
X154175000Y-117250000D01*
X154650000Y-117250000D01*
X154650000Y-117350000D01*
G37*
X150625000Y-117350000D02*
X150150000Y-117350000D01*
X150150000Y-117250000D01*
X150625000Y-117250000D01*
X150625000Y-117350000D01*
G36*
X150625000Y-117350000D02*
G01*
X150150000Y-117350000D01*
X150150000Y-117250000D01*
X150625000Y-117250000D01*
X150625000Y-117350000D01*
G37*
X153950000Y-118800000D02*
X153850000Y-118800000D01*
X153850000Y-118325000D01*
X153950000Y-118325000D01*
X153950000Y-118800000D01*
G36*
X153950000Y-118800000D02*
G01*
X153850000Y-118800000D01*
X153850000Y-118325000D01*
X153950000Y-118325000D01*
X153950000Y-118800000D01*
G37*
X153450000Y-118800000D02*
X153350000Y-118800000D01*
X153350000Y-118325000D01*
X153450000Y-118325000D01*
X153450000Y-118800000D01*
G36*
X153450000Y-118800000D02*
G01*
X153350000Y-118800000D01*
X153350000Y-118325000D01*
X153450000Y-118325000D01*
X153450000Y-118800000D01*
G37*
X152950000Y-118800000D02*
X152850000Y-118800000D01*
X152850000Y-118325000D01*
X152950000Y-118325000D01*
X152950000Y-118800000D01*
G36*
X152950000Y-118800000D02*
G01*
X152850000Y-118800000D01*
X152850000Y-118325000D01*
X152950000Y-118325000D01*
X152950000Y-118800000D01*
G37*
X152450000Y-118800000D02*
X152350000Y-118800000D01*
X152350000Y-118325000D01*
X152450000Y-118325000D01*
X152450000Y-118800000D01*
G36*
X152450000Y-118800000D02*
G01*
X152350000Y-118800000D01*
X152350000Y-118325000D01*
X152450000Y-118325000D01*
X152450000Y-118800000D01*
G37*
X151950000Y-118800000D02*
X151850000Y-118800000D01*
X151850000Y-118325000D01*
X151950000Y-118325000D01*
X151950000Y-118800000D01*
G36*
X151950000Y-118800000D02*
G01*
X151850000Y-118800000D01*
X151850000Y-118325000D01*
X151950000Y-118325000D01*
X151950000Y-118800000D01*
G37*
X151450000Y-118800000D02*
X151350000Y-118800000D01*
X151350000Y-118325000D01*
X151450000Y-118325000D01*
X151450000Y-118800000D01*
G36*
X151450000Y-118800000D02*
G01*
X151350000Y-118800000D01*
X151350000Y-118325000D01*
X151450000Y-118325000D01*
X151450000Y-118800000D01*
G37*
X150950000Y-118800000D02*
X150850000Y-118800000D01*
X150850000Y-118325000D01*
X150950000Y-118325000D01*
X150950000Y-118800000D01*
G36*
X150950000Y-118800000D02*
G01*
X150850000Y-118800000D01*
X150850000Y-118325000D01*
X150950000Y-118325000D01*
X150950000Y-118800000D01*
G37*
%TO.C,U8*%
X138050000Y-119050000D02*
X137750000Y-119050000D01*
X137750000Y-117950000D01*
X138050000Y-117950000D01*
X138050000Y-119050000D01*
G36*
X138050000Y-119050000D02*
G01*
X137750000Y-119050000D01*
X137750000Y-117950000D01*
X138050000Y-117950000D01*
X138050000Y-119050000D01*
G37*
X139300000Y-119050000D02*
X139000000Y-119050000D01*
X139000000Y-117950000D01*
X139300000Y-117950000D01*
X139300000Y-119050000D01*
G36*
X139300000Y-119050000D02*
G01*
X139000000Y-119050000D01*
X139000000Y-117950000D01*
X139300000Y-117950000D01*
X139300000Y-119050000D01*
G37*
X140550000Y-119050000D02*
X140250000Y-119050000D01*
X140250000Y-117950000D01*
X140550000Y-117950000D01*
X140550000Y-119050000D01*
G36*
X140550000Y-119050000D02*
G01*
X140250000Y-119050000D01*
X140250000Y-117950000D01*
X140550000Y-117950000D01*
X140550000Y-119050000D01*
G37*
X141800000Y-119050000D02*
X141500000Y-119050000D01*
X141500000Y-117950000D01*
X141800000Y-117950000D01*
X141800000Y-119050000D01*
G36*
X141800000Y-119050000D02*
G01*
X141500000Y-119050000D01*
X141500000Y-117950000D01*
X141800000Y-117950000D01*
X141800000Y-119050000D01*
G37*
X138050000Y-116650000D02*
X137750000Y-116650000D01*
X137750000Y-115550000D01*
X138050000Y-115550000D01*
X138050000Y-116650000D01*
G36*
X138050000Y-116650000D02*
G01*
X137750000Y-116650000D01*
X137750000Y-115550000D01*
X138050000Y-115550000D01*
X138050000Y-116650000D01*
G37*
X139300000Y-116650000D02*
X139000000Y-116650000D01*
X139000000Y-115550000D01*
X139300000Y-115550000D01*
X139300000Y-116650000D01*
G36*
X139300000Y-116650000D02*
G01*
X139000000Y-116650000D01*
X139000000Y-115550000D01*
X139300000Y-115550000D01*
X139300000Y-116650000D01*
G37*
X140550000Y-116650000D02*
X140250000Y-116650000D01*
X140250000Y-115550000D01*
X140550000Y-115550000D01*
X140550000Y-116650000D01*
G36*
X140550000Y-116650000D02*
G01*
X140250000Y-116650000D01*
X140250000Y-115550000D01*
X140550000Y-115550000D01*
X140550000Y-116650000D01*
G37*
X141800000Y-116650000D02*
X141500000Y-116650000D01*
X141500000Y-115550000D01*
X141800000Y-115550000D01*
X141800000Y-116650000D01*
G36*
X141800000Y-116650000D02*
G01*
X141500000Y-116650000D01*
X141500000Y-115550000D01*
X141800000Y-115550000D01*
X141800000Y-116650000D01*
G37*
%TD*%
D11*
%TO.C,HD4*%
X132100000Y-98600000D03*
X132100000Y-99600000D03*
X132100000Y-100600000D03*
X132100000Y-101600000D03*
D12*
X128225000Y-97300000D03*
X128225000Y-102900000D03*
%TD*%
D13*
%TO.C,C13*%
X153175000Y-120375000D03*
X151275000Y-120375000D03*
%TD*%
D14*
%TO.C,L2*%
X166662500Y-88475000D03*
X168787500Y-88475000D03*
%TD*%
D11*
%TO.C,HD2*%
X132000000Y-106700000D03*
X132000000Y-107700000D03*
X132000000Y-108700000D03*
X132000000Y-109700000D03*
D12*
X128125000Y-105400000D03*
X128125000Y-111000000D03*
%TD*%
D15*
%TO.C,D1*%
X136732500Y-83875000D03*
X136732500Y-84975000D03*
X138562500Y-84975000D03*
X138562500Y-83875000D03*
%TD*%
D11*
%TO.C,HD1*%
X132170000Y-79500000D03*
X132170000Y-80500000D03*
X132170000Y-81500000D03*
X132170000Y-82500000D03*
D12*
X128295000Y-78200000D03*
X128295000Y-83800000D03*
%TD*%
D16*
%TO.C,U6*%
X163375000Y-88425000D03*
D17*
X161850000Y-89900000D03*
X161850000Y-86950000D03*
%TD*%
D18*
%TO.C,R3*%
X170562500Y-89425000D03*
X172387500Y-89425000D03*
%TD*%
D19*
%TO.C,U9*%
X132300000Y-87900000D03*
X132300000Y-88900000D03*
X132300000Y-89900000D03*
X132300000Y-90900000D03*
X132300000Y-91900000D03*
X132300000Y-92900000D03*
D20*
X128425000Y-86600000D03*
X128425000Y-94200000D03*
%TD*%
D21*
%TO.C,C12*%
X139150000Y-120475000D03*
X141050000Y-120475000D03*
%TD*%
D22*
%TO.C,C2*%
X162325000Y-119325000D03*
X162325000Y-120875000D03*
%TD*%
D23*
%TO.C,U4*%
X171500000Y-107500000D03*
X171500000Y-106400000D03*
X171500000Y-105300000D03*
X171500000Y-104200000D03*
X171500000Y-103100000D03*
X171500000Y-102000000D03*
X171500000Y-100900000D03*
X171500000Y-97900000D03*
X171500000Y-96800000D03*
X171500000Y-95700000D03*
X171500000Y-94600000D03*
X171500000Y-93500000D03*
X159500000Y-93500000D03*
X159500000Y-94600000D03*
X159500000Y-95700000D03*
X159500000Y-96800000D03*
X159500000Y-97900000D03*
X159500000Y-100900000D03*
X159500000Y-102000000D03*
X159500000Y-103100000D03*
X159500000Y-104200000D03*
X159500000Y-105300000D03*
X159500000Y-106400000D03*
X159500000Y-107500000D03*
%TD*%
D21*
%TO.C,C6*%
X170550000Y-87375000D03*
X172450000Y-87375000D03*
%TD*%
D22*
%TO.C,C3*%
X163850000Y-119325000D03*
X163850000Y-120875000D03*
%TD*%
M02*
