%TF.GenerationSoftware,KiCad,Pcbnew,7.0.5*%
%TF.CreationDate,2023-07-17T20:29:58+05:30*%
%TF.ProjectId,Flight_Computer,466c6967-6874-45f4-936f-6d7075746572,rev?*%
%TF.SameCoordinates,Original*%
%TF.FileFunction,Legend,Bot*%
%TF.FilePolarity,Positive*%
%FSLAX46Y46*%
G04 Gerber Fmt 4.6, Leading zero omitted, Abs format (unit mm)*
G04 Created by KiCad (PCBNEW 7.0.5) date 2023-07-17 20:29:58*
%MOMM*%
%LPD*%
G01*
G04 APERTURE LIST*
%ADD10C,0.300000*%
%ADD11C,0.187500*%
%ADD12C,0.125000*%
%ADD13C,0.250000*%
%ADD14C,0.120000*%
%ADD15C,0.127000*%
%ADD16C,0.200000*%
G04 APERTURE END LIST*
D10*
X153388346Y-96982971D02*
X153459774Y-97054400D01*
X153459774Y-97054400D02*
X153674060Y-97125828D01*
X153674060Y-97125828D02*
X153816917Y-97125828D01*
X153816917Y-97125828D02*
X154031203Y-97054400D01*
X154031203Y-97054400D02*
X154174060Y-96911542D01*
X154174060Y-96911542D02*
X154245489Y-96768685D01*
X154245489Y-96768685D02*
X154316917Y-96482971D01*
X154316917Y-96482971D02*
X154316917Y-96268685D01*
X154316917Y-96268685D02*
X154245489Y-95982971D01*
X154245489Y-95982971D02*
X154174060Y-95840114D01*
X154174060Y-95840114D02*
X154031203Y-95697257D01*
X154031203Y-95697257D02*
X153816917Y-95625828D01*
X153816917Y-95625828D02*
X153674060Y-95625828D01*
X153674060Y-95625828D02*
X153459774Y-95697257D01*
X153459774Y-95697257D02*
X153388346Y-95768685D01*
X152531203Y-97125828D02*
X152674060Y-97054400D01*
X152674060Y-97054400D02*
X152745489Y-96911542D01*
X152745489Y-96911542D02*
X152745489Y-95625828D01*
X151316918Y-97125828D02*
X151316918Y-96340114D01*
X151316918Y-96340114D02*
X151388346Y-96197257D01*
X151388346Y-96197257D02*
X151531203Y-96125828D01*
X151531203Y-96125828D02*
X151816918Y-96125828D01*
X151816918Y-96125828D02*
X151959775Y-96197257D01*
X151316918Y-97054400D02*
X151459775Y-97125828D01*
X151459775Y-97125828D02*
X151816918Y-97125828D01*
X151816918Y-97125828D02*
X151959775Y-97054400D01*
X151959775Y-97054400D02*
X152031203Y-96911542D01*
X152031203Y-96911542D02*
X152031203Y-96768685D01*
X152031203Y-96768685D02*
X151959775Y-96625828D01*
X151959775Y-96625828D02*
X151816918Y-96554400D01*
X151816918Y-96554400D02*
X151459775Y-96554400D01*
X151459775Y-96554400D02*
X151316918Y-96482971D01*
X150745489Y-96125828D02*
X150459775Y-97125828D01*
X150459775Y-97125828D02*
X150174060Y-96411542D01*
X150174060Y-96411542D02*
X149888346Y-97125828D01*
X149888346Y-97125828D02*
X149602632Y-96125828D01*
X149102631Y-97054400D02*
X148959774Y-97125828D01*
X148959774Y-97125828D02*
X148674060Y-97125828D01*
X148674060Y-97125828D02*
X148531203Y-97054400D01*
X148531203Y-97054400D02*
X148459774Y-96911542D01*
X148459774Y-96911542D02*
X148459774Y-96840114D01*
X148459774Y-96840114D02*
X148531203Y-96697257D01*
X148531203Y-96697257D02*
X148674060Y-96625828D01*
X148674060Y-96625828D02*
X148888346Y-96625828D01*
X148888346Y-96625828D02*
X149031203Y-96554400D01*
X149031203Y-96554400D02*
X149102631Y-96411542D01*
X149102631Y-96411542D02*
X149102631Y-96340114D01*
X149102631Y-96340114D02*
X149031203Y-96197257D01*
X149031203Y-96197257D02*
X148888346Y-96125828D01*
X148888346Y-96125828D02*
X148674060Y-96125828D01*
X148674060Y-96125828D02*
X148531203Y-96197257D01*
X146674060Y-95625828D02*
X146674060Y-96840114D01*
X146674060Y-96840114D02*
X146602631Y-96982971D01*
X146602631Y-96982971D02*
X146531203Y-97054400D01*
X146531203Y-97054400D02*
X146388345Y-97125828D01*
X146388345Y-97125828D02*
X146102631Y-97125828D01*
X146102631Y-97125828D02*
X145959774Y-97054400D01*
X145959774Y-97054400D02*
X145888345Y-96982971D01*
X145888345Y-96982971D02*
X145816917Y-96840114D01*
X145816917Y-96840114D02*
X145816917Y-95625828D01*
X145102631Y-96125828D02*
X145102631Y-97625828D01*
X145102631Y-96197257D02*
X144959774Y-96125828D01*
X144959774Y-96125828D02*
X144674059Y-96125828D01*
X144674059Y-96125828D02*
X144531202Y-96197257D01*
X144531202Y-96197257D02*
X144459774Y-96268685D01*
X144459774Y-96268685D02*
X144388345Y-96411542D01*
X144388345Y-96411542D02*
X144388345Y-96840114D01*
X144388345Y-96840114D02*
X144459774Y-96982971D01*
X144459774Y-96982971D02*
X144531202Y-97054400D01*
X144531202Y-97054400D02*
X144674059Y-97125828D01*
X144674059Y-97125828D02*
X144959774Y-97125828D01*
X144959774Y-97125828D02*
X145102631Y-97054400D01*
X143745488Y-96982971D02*
X143674059Y-97054400D01*
X143674059Y-97054400D02*
X143745488Y-97125828D01*
X143745488Y-97125828D02*
X143816916Y-97054400D01*
X143816916Y-97054400D02*
X143745488Y-96982971D01*
X143745488Y-96982971D02*
X143745488Y-97125828D01*
X143745488Y-96554400D02*
X143816916Y-95697257D01*
X143816916Y-95697257D02*
X143745488Y-95625828D01*
X143745488Y-95625828D02*
X143674059Y-95697257D01*
X143674059Y-95697257D02*
X143745488Y-96554400D01*
X143745488Y-96554400D02*
X143745488Y-95625828D01*
D11*
X142774285Y-142837214D02*
X143202856Y-142837214D01*
X142988571Y-142837214D02*
X142988571Y-142087214D01*
X142988571Y-142087214D02*
X143059999Y-142194357D01*
X143059999Y-142194357D02*
X143131428Y-142265785D01*
X143131428Y-142265785D02*
X143202856Y-142301500D01*
X142488570Y-142158642D02*
X142452856Y-142122928D01*
X142452856Y-142122928D02*
X142381428Y-142087214D01*
X142381428Y-142087214D02*
X142202856Y-142087214D01*
X142202856Y-142087214D02*
X142131428Y-142122928D01*
X142131428Y-142122928D02*
X142095713Y-142158642D01*
X142095713Y-142158642D02*
X142059999Y-142230071D01*
X142059999Y-142230071D02*
X142059999Y-142301500D01*
X142059999Y-142301500D02*
X142095713Y-142408642D01*
X142095713Y-142408642D02*
X142524285Y-142837214D01*
X142524285Y-142837214D02*
X142059999Y-142837214D01*
X141845713Y-142087214D02*
X141595713Y-142837214D01*
X141595713Y-142837214D02*
X141345713Y-142087214D01*
D12*
X139234333Y-147209523D02*
X139234333Y-147590476D01*
X163681952Y-146780953D02*
X163681952Y-147019048D01*
X163824809Y-146733334D02*
X163324809Y-146900000D01*
X163324809Y-146900000D02*
X163824809Y-147066667D01*
X163324809Y-147233333D02*
X163729571Y-147233333D01*
X163729571Y-147233333D02*
X163777190Y-147257143D01*
X163777190Y-147257143D02*
X163801000Y-147280952D01*
X163801000Y-147280952D02*
X163824809Y-147328571D01*
X163824809Y-147328571D02*
X163824809Y-147423809D01*
X163824809Y-147423809D02*
X163801000Y-147471428D01*
X163801000Y-147471428D02*
X163777190Y-147495238D01*
X163777190Y-147495238D02*
X163729571Y-147519047D01*
X163729571Y-147519047D02*
X163324809Y-147519047D01*
X163324809Y-147709524D02*
X163824809Y-148042857D01*
X163324809Y-148042857D02*
X163824809Y-147709524D01*
X131983331Y-145191476D02*
X131792855Y-145191476D01*
X131911903Y-145024809D02*
X131911903Y-145453380D01*
X131911903Y-145453380D02*
X131888093Y-145501000D01*
X131888093Y-145501000D02*
X131840474Y-145524809D01*
X131840474Y-145524809D02*
X131792855Y-145524809D01*
X131626189Y-145524809D02*
X131626189Y-145024809D01*
X131411903Y-145524809D02*
X131411903Y-145262904D01*
X131411903Y-145262904D02*
X131435713Y-145215285D01*
X131435713Y-145215285D02*
X131483332Y-145191476D01*
X131483332Y-145191476D02*
X131554760Y-145191476D01*
X131554760Y-145191476D02*
X131602379Y-145215285D01*
X131602379Y-145215285D02*
X131626189Y-145239095D01*
X131173808Y-145524809D02*
X131173808Y-145191476D01*
X131173808Y-145024809D02*
X131197617Y-145048619D01*
X131197617Y-145048619D02*
X131173808Y-145072428D01*
X131173808Y-145072428D02*
X131149998Y-145048619D01*
X131149998Y-145048619D02*
X131173808Y-145024809D01*
X131173808Y-145024809D02*
X131173808Y-145072428D01*
X130721427Y-145501000D02*
X130769046Y-145524809D01*
X130769046Y-145524809D02*
X130864284Y-145524809D01*
X130864284Y-145524809D02*
X130911903Y-145501000D01*
X130911903Y-145501000D02*
X130935713Y-145477190D01*
X130935713Y-145477190D02*
X130959522Y-145429571D01*
X130959522Y-145429571D02*
X130959522Y-145286714D01*
X130959522Y-145286714D02*
X130935713Y-145239095D01*
X130935713Y-145239095D02*
X130911903Y-145215285D01*
X130911903Y-145215285D02*
X130864284Y-145191476D01*
X130864284Y-145191476D02*
X130769046Y-145191476D01*
X130769046Y-145191476D02*
X130721427Y-145215285D01*
X130292856Y-145501000D02*
X130340475Y-145524809D01*
X130340475Y-145524809D02*
X130435713Y-145524809D01*
X130435713Y-145524809D02*
X130483332Y-145501000D01*
X130483332Y-145501000D02*
X130507142Y-145477190D01*
X130507142Y-145477190D02*
X130530951Y-145429571D01*
X130530951Y-145429571D02*
X130530951Y-145286714D01*
X130530951Y-145286714D02*
X130507142Y-145239095D01*
X130507142Y-145239095D02*
X130483332Y-145215285D01*
X130483332Y-145215285D02*
X130435713Y-145191476D01*
X130435713Y-145191476D02*
X130340475Y-145191476D01*
X130340475Y-145191476D02*
X130292856Y-145215285D01*
X129864285Y-145501000D02*
X129911904Y-145524809D01*
X129911904Y-145524809D02*
X130007142Y-145524809D01*
X130007142Y-145524809D02*
X130054761Y-145501000D01*
X130054761Y-145501000D02*
X130078571Y-145477190D01*
X130078571Y-145477190D02*
X130102380Y-145429571D01*
X130102380Y-145429571D02*
X130102380Y-145286714D01*
X130102380Y-145286714D02*
X130078571Y-145239095D01*
X130078571Y-145239095D02*
X130054761Y-145215285D01*
X130054761Y-145215285D02*
X130007142Y-145191476D01*
X130007142Y-145191476D02*
X129911904Y-145191476D01*
X129911904Y-145191476D02*
X129864285Y-145215285D01*
X136234333Y-147209523D02*
X136234333Y-147590476D01*
X136424809Y-147399999D02*
X136043857Y-147399999D01*
X138449809Y-147216666D02*
X138211714Y-147050000D01*
X138449809Y-146930952D02*
X137949809Y-146930952D01*
X137949809Y-146930952D02*
X137949809Y-147121428D01*
X137949809Y-147121428D02*
X137973619Y-147169047D01*
X137973619Y-147169047D02*
X137997428Y-147192857D01*
X137997428Y-147192857D02*
X138045047Y-147216666D01*
X138045047Y-147216666D02*
X138116476Y-147216666D01*
X138116476Y-147216666D02*
X138164095Y-147192857D01*
X138164095Y-147192857D02*
X138187904Y-147169047D01*
X138187904Y-147169047D02*
X138211714Y-147121428D01*
X138211714Y-147121428D02*
X138211714Y-146930952D01*
X137949809Y-147383333D02*
X138449809Y-147716666D01*
X137949809Y-147716666D02*
X138449809Y-147383333D01*
D11*
X144892856Y-142177214D02*
X145249999Y-142177214D01*
X145249999Y-142177214D02*
X145285713Y-142534357D01*
X145285713Y-142534357D02*
X145249999Y-142498642D01*
X145249999Y-142498642D02*
X145178571Y-142462928D01*
X145178571Y-142462928D02*
X144999999Y-142462928D01*
X144999999Y-142462928D02*
X144928571Y-142498642D01*
X144928571Y-142498642D02*
X144892856Y-142534357D01*
X144892856Y-142534357D02*
X144857142Y-142605785D01*
X144857142Y-142605785D02*
X144857142Y-142784357D01*
X144857142Y-142784357D02*
X144892856Y-142855785D01*
X144892856Y-142855785D02*
X144928571Y-142891500D01*
X144928571Y-142891500D02*
X144999999Y-142927214D01*
X144999999Y-142927214D02*
X145178571Y-142927214D01*
X145178571Y-142927214D02*
X145249999Y-142891500D01*
X145249999Y-142891500D02*
X145285713Y-142855785D01*
X144642856Y-142177214D02*
X144392856Y-142927214D01*
X144392856Y-142927214D02*
X144142856Y-142177214D01*
D12*
X165824809Y-147195238D02*
X165324809Y-147195238D01*
X165324809Y-147195238D02*
X165681952Y-147361905D01*
X165681952Y-147361905D02*
X165324809Y-147528571D01*
X165324809Y-147528571D02*
X165824809Y-147528571D01*
X165824809Y-148028572D02*
X165824809Y-147742858D01*
X165824809Y-147885715D02*
X165324809Y-147885715D01*
X165324809Y-147885715D02*
X165396238Y-147838096D01*
X165396238Y-147838096D02*
X165443857Y-147790477D01*
X165443857Y-147790477D02*
X165467666Y-147742858D01*
D13*
X165295238Y-146249619D02*
X165771428Y-146249619D01*
X165771428Y-146249619D02*
X165771428Y-145249619D01*
X164819047Y-146249619D02*
X164914285Y-146202000D01*
X164914285Y-146202000D02*
X164961904Y-146154380D01*
X164961904Y-146154380D02*
X165009523Y-146059142D01*
X165009523Y-146059142D02*
X165009523Y-145773428D01*
X165009523Y-145773428D02*
X164961904Y-145678190D01*
X164961904Y-145678190D02*
X164914285Y-145630571D01*
X164914285Y-145630571D02*
X164819047Y-145582952D01*
X164819047Y-145582952D02*
X164676190Y-145582952D01*
X164676190Y-145582952D02*
X164580952Y-145630571D01*
X164580952Y-145630571D02*
X164533333Y-145678190D01*
X164533333Y-145678190D02*
X164485714Y-145773428D01*
X164485714Y-145773428D02*
X164485714Y-146059142D01*
X164485714Y-146059142D02*
X164533333Y-146154380D01*
X164533333Y-146154380D02*
X164580952Y-146202000D01*
X164580952Y-146202000D02*
X164676190Y-146249619D01*
X164676190Y-146249619D02*
X164819047Y-146249619D01*
X163485714Y-146249619D02*
X163819047Y-145773428D01*
X164057142Y-146249619D02*
X164057142Y-145249619D01*
X164057142Y-145249619D02*
X163676190Y-145249619D01*
X163676190Y-145249619D02*
X163580952Y-145297238D01*
X163580952Y-145297238D02*
X163533333Y-145344857D01*
X163533333Y-145344857D02*
X163485714Y-145440095D01*
X163485714Y-145440095D02*
X163485714Y-145582952D01*
X163485714Y-145582952D02*
X163533333Y-145678190D01*
X163533333Y-145678190D02*
X163580952Y-145725809D01*
X163580952Y-145725809D02*
X163676190Y-145773428D01*
X163676190Y-145773428D02*
X164057142Y-145773428D01*
X162628571Y-146249619D02*
X162628571Y-145725809D01*
X162628571Y-145725809D02*
X162676190Y-145630571D01*
X162676190Y-145630571D02*
X162771428Y-145582952D01*
X162771428Y-145582952D02*
X162961904Y-145582952D01*
X162961904Y-145582952D02*
X163057142Y-145630571D01*
X162628571Y-146202000D02*
X162723809Y-146249619D01*
X162723809Y-146249619D02*
X162961904Y-146249619D01*
X162961904Y-146249619D02*
X163057142Y-146202000D01*
X163057142Y-146202000D02*
X163104761Y-146106761D01*
X163104761Y-146106761D02*
X163104761Y-146011523D01*
X163104761Y-146011523D02*
X163057142Y-145916285D01*
X163057142Y-145916285D02*
X162961904Y-145868666D01*
X162961904Y-145868666D02*
X162723809Y-145868666D01*
X162723809Y-145868666D02*
X162628571Y-145821047D01*
D12*
X162324809Y-147604762D02*
X162324809Y-147366667D01*
X162324809Y-147366667D02*
X162562904Y-147342858D01*
X162562904Y-147342858D02*
X162539095Y-147366667D01*
X162539095Y-147366667D02*
X162515285Y-147414286D01*
X162515285Y-147414286D02*
X162515285Y-147533334D01*
X162515285Y-147533334D02*
X162539095Y-147580953D01*
X162539095Y-147580953D02*
X162562904Y-147604762D01*
X162562904Y-147604762D02*
X162610523Y-147628572D01*
X162610523Y-147628572D02*
X162729571Y-147628572D01*
X162729571Y-147628572D02*
X162777190Y-147604762D01*
X162777190Y-147604762D02*
X162801000Y-147580953D01*
X162801000Y-147580953D02*
X162824809Y-147533334D01*
X162824809Y-147533334D02*
X162824809Y-147414286D01*
X162824809Y-147414286D02*
X162801000Y-147366667D01*
X162801000Y-147366667D02*
X162777190Y-147342858D01*
X162324809Y-147771429D02*
X162824809Y-147938095D01*
X162824809Y-147938095D02*
X162324809Y-148104762D01*
D13*
X139295237Y-145449619D02*
X139295237Y-146259142D01*
X139295237Y-146259142D02*
X139247618Y-146354380D01*
X139247618Y-146354380D02*
X139199999Y-146402000D01*
X139199999Y-146402000D02*
X139104761Y-146449619D01*
X139104761Y-146449619D02*
X138914285Y-146449619D01*
X138914285Y-146449619D02*
X138819047Y-146402000D01*
X138819047Y-146402000D02*
X138771428Y-146354380D01*
X138771428Y-146354380D02*
X138723809Y-146259142D01*
X138723809Y-146259142D02*
X138723809Y-145449619D01*
X138295237Y-146163904D02*
X137819047Y-146163904D01*
X138390475Y-146449619D02*
X138057142Y-145449619D01*
X138057142Y-145449619D02*
X137723809Y-146449619D01*
X136819047Y-146449619D02*
X137152380Y-145973428D01*
X137390475Y-146449619D02*
X137390475Y-145449619D01*
X137390475Y-145449619D02*
X137009523Y-145449619D01*
X137009523Y-145449619D02*
X136914285Y-145497238D01*
X136914285Y-145497238D02*
X136866666Y-145544857D01*
X136866666Y-145544857D02*
X136819047Y-145640095D01*
X136819047Y-145640095D02*
X136819047Y-145782952D01*
X136819047Y-145782952D02*
X136866666Y-145878190D01*
X136866666Y-145878190D02*
X136914285Y-145925809D01*
X136914285Y-145925809D02*
X137009523Y-145973428D01*
X137009523Y-145973428D02*
X137390475Y-145973428D01*
X136533332Y-145449619D02*
X135961904Y-145449619D01*
X136247618Y-146449619D02*
X136247618Y-145449619D01*
D12*
X136924809Y-146919048D02*
X136924809Y-147204762D01*
X137424809Y-147061905D02*
X136924809Y-147061905D01*
X136924809Y-147323809D02*
X137424809Y-147657142D01*
X136924809Y-147657142D02*
X137424809Y-147323809D01*
X164824809Y-147195238D02*
X164324809Y-147195238D01*
X164324809Y-147195238D02*
X164681952Y-147361905D01*
X164681952Y-147361905D02*
X164324809Y-147528571D01*
X164324809Y-147528571D02*
X164824809Y-147528571D01*
X164324809Y-147861905D02*
X164324809Y-147909524D01*
X164324809Y-147909524D02*
X164348619Y-147957143D01*
X164348619Y-147957143D02*
X164372428Y-147980953D01*
X164372428Y-147980953D02*
X164420047Y-148004762D01*
X164420047Y-148004762D02*
X164515285Y-148028572D01*
X164515285Y-148028572D02*
X164634333Y-148028572D01*
X164634333Y-148028572D02*
X164729571Y-148004762D01*
X164729571Y-148004762D02*
X164777190Y-147980953D01*
X164777190Y-147980953D02*
X164801000Y-147957143D01*
X164801000Y-147957143D02*
X164824809Y-147909524D01*
X164824809Y-147909524D02*
X164824809Y-147861905D01*
X164824809Y-147861905D02*
X164801000Y-147814286D01*
X164801000Y-147814286D02*
X164777190Y-147790477D01*
X164777190Y-147790477D02*
X164729571Y-147766667D01*
X164729571Y-147766667D02*
X164634333Y-147742858D01*
X164634333Y-147742858D02*
X164515285Y-147742858D01*
X164515285Y-147742858D02*
X164420047Y-147766667D01*
X164420047Y-147766667D02*
X164372428Y-147790477D01*
X164372428Y-147790477D02*
X164348619Y-147814286D01*
X164348619Y-147814286D02*
X164324809Y-147861905D01*
D10*
X163571428Y-71792257D02*
X162857143Y-71792257D01*
X163714285Y-72220828D02*
X163214285Y-70720828D01*
X163214285Y-70720828D02*
X162714285Y-72220828D01*
X162214286Y-72220828D02*
X162214286Y-70720828D01*
X162214286Y-71292257D02*
X162071429Y-71220828D01*
X162071429Y-71220828D02*
X161785714Y-71220828D01*
X161785714Y-71220828D02*
X161642857Y-71292257D01*
X161642857Y-71292257D02*
X161571429Y-71363685D01*
X161571429Y-71363685D02*
X161500000Y-71506542D01*
X161500000Y-71506542D02*
X161500000Y-71935114D01*
X161500000Y-71935114D02*
X161571429Y-72077971D01*
X161571429Y-72077971D02*
X161642857Y-72149400D01*
X161642857Y-72149400D02*
X161785714Y-72220828D01*
X161785714Y-72220828D02*
X162071429Y-72220828D01*
X162071429Y-72220828D02*
X162214286Y-72149400D01*
X160857143Y-72220828D02*
X160857143Y-70720828D01*
X160214286Y-72220828D02*
X160214286Y-71435114D01*
X160214286Y-71435114D02*
X160285714Y-71292257D01*
X160285714Y-71292257D02*
X160428571Y-71220828D01*
X160428571Y-71220828D02*
X160642857Y-71220828D01*
X160642857Y-71220828D02*
X160785714Y-71292257D01*
X160785714Y-71292257D02*
X160857143Y-71363685D01*
X159500000Y-72220828D02*
X159500000Y-71220828D01*
X159500000Y-70720828D02*
X159571428Y-70792257D01*
X159571428Y-70792257D02*
X159500000Y-70863685D01*
X159500000Y-70863685D02*
X159428571Y-70792257D01*
X159428571Y-70792257D02*
X159500000Y-70720828D01*
X159500000Y-70720828D02*
X159500000Y-70863685D01*
X158142857Y-71220828D02*
X158142857Y-72435114D01*
X158142857Y-72435114D02*
X158214285Y-72577971D01*
X158214285Y-72577971D02*
X158285714Y-72649400D01*
X158285714Y-72649400D02*
X158428571Y-72720828D01*
X158428571Y-72720828D02*
X158642857Y-72720828D01*
X158642857Y-72720828D02*
X158785714Y-72649400D01*
X158142857Y-72149400D02*
X158285714Y-72220828D01*
X158285714Y-72220828D02*
X158571428Y-72220828D01*
X158571428Y-72220828D02*
X158714285Y-72149400D01*
X158714285Y-72149400D02*
X158785714Y-72077971D01*
X158785714Y-72077971D02*
X158857142Y-71935114D01*
X158857142Y-71935114D02*
X158857142Y-71506542D01*
X158857142Y-71506542D02*
X158785714Y-71363685D01*
X158785714Y-71363685D02*
X158714285Y-71292257D01*
X158714285Y-71292257D02*
X158571428Y-71220828D01*
X158571428Y-71220828D02*
X158285714Y-71220828D01*
X158285714Y-71220828D02*
X158142857Y-71292257D01*
X157428571Y-71220828D02*
X157428571Y-72220828D01*
X157428571Y-71363685D02*
X157357142Y-71292257D01*
X157357142Y-71292257D02*
X157214285Y-71220828D01*
X157214285Y-71220828D02*
X156999999Y-71220828D01*
X156999999Y-71220828D02*
X156857142Y-71292257D01*
X156857142Y-71292257D02*
X156785714Y-71435114D01*
X156785714Y-71435114D02*
X156785714Y-72220828D01*
X155428571Y-72220828D02*
X155428571Y-71435114D01*
X155428571Y-71435114D02*
X155499999Y-71292257D01*
X155499999Y-71292257D02*
X155642856Y-71220828D01*
X155642856Y-71220828D02*
X155928571Y-71220828D01*
X155928571Y-71220828D02*
X156071428Y-71292257D01*
X155428571Y-72149400D02*
X155571428Y-72220828D01*
X155571428Y-72220828D02*
X155928571Y-72220828D01*
X155928571Y-72220828D02*
X156071428Y-72149400D01*
X156071428Y-72149400D02*
X156142856Y-72006542D01*
X156142856Y-72006542D02*
X156142856Y-71863685D01*
X156142856Y-71863685D02*
X156071428Y-71720828D01*
X156071428Y-71720828D02*
X155928571Y-71649400D01*
X155928571Y-71649400D02*
X155571428Y-71649400D01*
X155571428Y-71649400D02*
X155428571Y-71577971D01*
X153285713Y-71506542D02*
X153285713Y-72220828D01*
X153785713Y-70720828D02*
X153285713Y-71506542D01*
X153285713Y-71506542D02*
X152785713Y-70720828D01*
X166035712Y-73135828D02*
X166035712Y-74207257D01*
X166035712Y-74207257D02*
X166107141Y-74421542D01*
X166107141Y-74421542D02*
X166249998Y-74564400D01*
X166249998Y-74564400D02*
X166464284Y-74635828D01*
X166464284Y-74635828D02*
X166607141Y-74635828D01*
X164678570Y-73635828D02*
X164678570Y-74635828D01*
X165321427Y-73635828D02*
X165321427Y-74421542D01*
X165321427Y-74421542D02*
X165249998Y-74564400D01*
X165249998Y-74564400D02*
X165107141Y-74635828D01*
X165107141Y-74635828D02*
X164892855Y-74635828D01*
X164892855Y-74635828D02*
X164749998Y-74564400D01*
X164749998Y-74564400D02*
X164678570Y-74492971D01*
X163749998Y-74635828D02*
X163892855Y-74564400D01*
X163892855Y-74564400D02*
X163964284Y-74421542D01*
X163964284Y-74421542D02*
X163964284Y-73135828D01*
X163321427Y-73635828D02*
X162964284Y-74635828D01*
X162607141Y-73635828D02*
X162964284Y-74635828D01*
X162964284Y-74635828D02*
X163107141Y-74992971D01*
X163107141Y-74992971D02*
X163178570Y-75064400D01*
X163178570Y-75064400D02*
X163321427Y-75135828D01*
X161964284Y-74564400D02*
X161964284Y-74635828D01*
X161964284Y-74635828D02*
X162035713Y-74778685D01*
X162035713Y-74778685D02*
X162107141Y-74850114D01*
X160249998Y-74207257D02*
X159535713Y-74207257D01*
X160392855Y-74635828D02*
X159892855Y-73135828D01*
X159892855Y-73135828D02*
X159392855Y-74635828D01*
X158249999Y-73635828D02*
X158249999Y-74635828D01*
X158892856Y-73635828D02*
X158892856Y-74421542D01*
X158892856Y-74421542D02*
X158821427Y-74564400D01*
X158821427Y-74564400D02*
X158678570Y-74635828D01*
X158678570Y-74635828D02*
X158464284Y-74635828D01*
X158464284Y-74635828D02*
X158321427Y-74564400D01*
X158321427Y-74564400D02*
X158249999Y-74492971D01*
X156892856Y-73635828D02*
X156892856Y-74850114D01*
X156892856Y-74850114D02*
X156964284Y-74992971D01*
X156964284Y-74992971D02*
X157035713Y-75064400D01*
X157035713Y-75064400D02*
X157178570Y-75135828D01*
X157178570Y-75135828D02*
X157392856Y-75135828D01*
X157392856Y-75135828D02*
X157535713Y-75064400D01*
X156892856Y-74564400D02*
X157035713Y-74635828D01*
X157035713Y-74635828D02*
X157321427Y-74635828D01*
X157321427Y-74635828D02*
X157464284Y-74564400D01*
X157464284Y-74564400D02*
X157535713Y-74492971D01*
X157535713Y-74492971D02*
X157607141Y-74350114D01*
X157607141Y-74350114D02*
X157607141Y-73921542D01*
X157607141Y-73921542D02*
X157535713Y-73778685D01*
X157535713Y-73778685D02*
X157464284Y-73707257D01*
X157464284Y-73707257D02*
X157321427Y-73635828D01*
X157321427Y-73635828D02*
X157035713Y-73635828D01*
X157035713Y-73635828D02*
X156892856Y-73707257D01*
X155107141Y-73278685D02*
X155035713Y-73207257D01*
X155035713Y-73207257D02*
X154892856Y-73135828D01*
X154892856Y-73135828D02*
X154535713Y-73135828D01*
X154535713Y-73135828D02*
X154392856Y-73207257D01*
X154392856Y-73207257D02*
X154321427Y-73278685D01*
X154321427Y-73278685D02*
X154249998Y-73421542D01*
X154249998Y-73421542D02*
X154249998Y-73564400D01*
X154249998Y-73564400D02*
X154321427Y-73778685D01*
X154321427Y-73778685D02*
X155178570Y-74635828D01*
X155178570Y-74635828D02*
X154249998Y-74635828D01*
X153321427Y-73135828D02*
X153178570Y-73135828D01*
X153178570Y-73135828D02*
X153035713Y-73207257D01*
X153035713Y-73207257D02*
X152964285Y-73278685D01*
X152964285Y-73278685D02*
X152892856Y-73421542D01*
X152892856Y-73421542D02*
X152821427Y-73707257D01*
X152821427Y-73707257D02*
X152821427Y-74064400D01*
X152821427Y-74064400D02*
X152892856Y-74350114D01*
X152892856Y-74350114D02*
X152964285Y-74492971D01*
X152964285Y-74492971D02*
X153035713Y-74564400D01*
X153035713Y-74564400D02*
X153178570Y-74635828D01*
X153178570Y-74635828D02*
X153321427Y-74635828D01*
X153321427Y-74635828D02*
X153464285Y-74564400D01*
X153464285Y-74564400D02*
X153535713Y-74492971D01*
X153535713Y-74492971D02*
X153607142Y-74350114D01*
X153607142Y-74350114D02*
X153678570Y-74064400D01*
X153678570Y-74064400D02*
X153678570Y-73707257D01*
X153678570Y-73707257D02*
X153607142Y-73421542D01*
X153607142Y-73421542D02*
X153535713Y-73278685D01*
X153535713Y-73278685D02*
X153464285Y-73207257D01*
X153464285Y-73207257D02*
X153321427Y-73135828D01*
X152249999Y-73278685D02*
X152178571Y-73207257D01*
X152178571Y-73207257D02*
X152035714Y-73135828D01*
X152035714Y-73135828D02*
X151678571Y-73135828D01*
X151678571Y-73135828D02*
X151535714Y-73207257D01*
X151535714Y-73207257D02*
X151464285Y-73278685D01*
X151464285Y-73278685D02*
X151392856Y-73421542D01*
X151392856Y-73421542D02*
X151392856Y-73564400D01*
X151392856Y-73564400D02*
X151464285Y-73778685D01*
X151464285Y-73778685D02*
X152321428Y-74635828D01*
X152321428Y-74635828D02*
X151392856Y-74635828D01*
X150892857Y-73135828D02*
X149964285Y-73135828D01*
X149964285Y-73135828D02*
X150464285Y-73707257D01*
X150464285Y-73707257D02*
X150250000Y-73707257D01*
X150250000Y-73707257D02*
X150107143Y-73778685D01*
X150107143Y-73778685D02*
X150035714Y-73850114D01*
X150035714Y-73850114D02*
X149964285Y-73992971D01*
X149964285Y-73992971D02*
X149964285Y-74350114D01*
X149964285Y-74350114D02*
X150035714Y-74492971D01*
X150035714Y-74492971D02*
X150107143Y-74564400D01*
X150107143Y-74564400D02*
X150250000Y-74635828D01*
X150250000Y-74635828D02*
X150678571Y-74635828D01*
X150678571Y-74635828D02*
X150821428Y-74564400D01*
X150821428Y-74564400D02*
X150892857Y-74492971D01*
D14*
%TO.C,TP3*%
X160200000Y-81000000D02*
G75*
G03*
X160200000Y-81000000I-700000J0D01*
G01*
%TO.C,kibuzzard-6177F1EE*%
G36*
X138163450Y-74653194D02*
G01*
X138738125Y-73970569D01*
X138950850Y-73970569D01*
X138950850Y-75029431D01*
X138706375Y-75029431D01*
X138706375Y-74343631D01*
X138131700Y-75029431D01*
X137918975Y-75029431D01*
X137918975Y-73970569D01*
X138163450Y-73970569D01*
X138163450Y-74653194D01*
G37*
G36*
X137687200Y-73970569D02*
G01*
X137687200Y-75029431D01*
X137344300Y-75029431D01*
X137220574Y-75019509D01*
X137109747Y-74989744D01*
X137011818Y-74940134D01*
X136926787Y-74870681D01*
X136863585Y-74793092D01*
X136818441Y-74704788D01*
X136791354Y-74605767D01*
X136782325Y-74496031D01*
X137033150Y-74496031D01*
X137044615Y-74599924D01*
X137079011Y-74685120D01*
X137136337Y-74751619D01*
X137201249Y-74791306D01*
X137281682Y-74815119D01*
X137377637Y-74823056D01*
X137442725Y-74823056D01*
X137442725Y-74176944D01*
X137377637Y-74176944D01*
X137274979Y-74186998D01*
X137189254Y-74217160D01*
X137120462Y-74267431D01*
X137071956Y-74331637D01*
X137042851Y-74407837D01*
X137033150Y-74496031D01*
X136782325Y-74496031D01*
X136791850Y-74385402D01*
X136820425Y-74285291D01*
X136868050Y-74195696D01*
X136934725Y-74116619D01*
X137017374Y-74052722D01*
X137114509Y-74007081D01*
X137226130Y-73979697D01*
X137352237Y-73970569D01*
X137687200Y-73970569D01*
G37*
G36*
X139775358Y-73956380D02*
G01*
X139886681Y-73985253D01*
X139983320Y-74033374D01*
X140065275Y-74100744D01*
X140131950Y-74184187D01*
X140179575Y-74278941D01*
X140208150Y-74385005D01*
X140217675Y-74502381D01*
X140207952Y-74618666D01*
X140178781Y-74724631D01*
X140130164Y-74820278D01*
X140062100Y-74905606D01*
X139975184Y-74978631D01*
X139882713Y-75023081D01*
X139783097Y-75045703D01*
X139674750Y-75053244D01*
X139561244Y-75044215D01*
X139460438Y-75017128D01*
X139372331Y-74971984D01*
X139296925Y-74908781D01*
X139225884Y-74814127D01*
X139174688Y-74698438D01*
X139143731Y-74576398D01*
X139133413Y-74462694D01*
X139133413Y-74451581D01*
X139658875Y-74451581D01*
X139658875Y-74648431D01*
X139403288Y-74648431D01*
X139433450Y-74721059D01*
X139479488Y-74773844D01*
X139558863Y-74816706D01*
X139663638Y-74830994D01*
X139783891Y-74810356D01*
X139877950Y-74748444D01*
X139927339Y-74681945D01*
X139956972Y-74600983D01*
X139966850Y-74505556D01*
X139956796Y-74408542D01*
X139926633Y-74324934D01*
X139876363Y-74254731D01*
X139781113Y-74190437D01*
X139657288Y-74169006D01*
X139570769Y-74181706D01*
X139495363Y-74219806D01*
X139443372Y-74269019D01*
X139401700Y-74334106D01*
X139181038Y-74215044D01*
X139258031Y-74107491D01*
X139352488Y-74026131D01*
X139439094Y-73982034D01*
X139538049Y-73955576D01*
X139649350Y-73946756D01*
X139775358Y-73956380D01*
G37*
%TO.C,kibuzzard-6177C39A*%
G36*
X132709769Y-76780123D02*
G01*
X132858597Y-76780123D01*
X132990418Y-76786599D01*
X133120969Y-76805964D01*
X133248994Y-76838033D01*
X133373259Y-76882496D01*
X133492568Y-76938924D01*
X133605771Y-77006776D01*
X133711778Y-77085396D01*
X133809569Y-77174028D01*
X133898201Y-77271819D01*
X133976821Y-77377826D01*
X134044673Y-77491029D01*
X134101101Y-77610338D01*
X134145564Y-77734603D01*
X134177633Y-77862627D01*
X134196998Y-77993179D01*
X134203474Y-78125000D01*
X134196998Y-78256821D01*
X134177633Y-78387373D01*
X134145564Y-78515397D01*
X134101101Y-78639662D01*
X134044673Y-78758971D01*
X133976821Y-78872174D01*
X133898201Y-78978181D01*
X133809569Y-79075972D01*
X133711778Y-79164604D01*
X133605771Y-79243224D01*
X133492568Y-79311076D01*
X133373259Y-79367504D01*
X133248994Y-79411967D01*
X133120969Y-79444036D01*
X132990418Y-79463401D01*
X132858597Y-79469877D01*
X132709769Y-79469877D01*
X128790231Y-79469877D01*
X128641403Y-79469877D01*
X128509582Y-79463401D01*
X128379031Y-79444036D01*
X128251006Y-79411967D01*
X128126741Y-79367504D01*
X128007432Y-79311076D01*
X127894229Y-79243224D01*
X127788222Y-79164604D01*
X127690431Y-79075972D01*
X127601799Y-78978181D01*
X127523179Y-78872174D01*
X127455327Y-78758971D01*
X127398899Y-78639662D01*
X127354436Y-78515397D01*
X127349995Y-78497666D01*
X128790231Y-78497666D01*
X128821187Y-78666734D01*
X128916437Y-78803656D01*
X129081934Y-78895334D01*
X129193555Y-78920337D01*
X129326012Y-78928672D01*
X130138019Y-78928672D01*
X130471394Y-78928672D01*
X130750000Y-78928672D01*
X130750000Y-77666609D01*
X130779766Y-77591600D01*
X130864300Y-77564216D01*
X130940500Y-77586837D01*
X130976219Y-77649941D01*
X131207200Y-78633397D01*
X131257802Y-78773593D01*
X131333406Y-78875094D01*
X131441158Y-78936709D01*
X131588200Y-78957247D01*
X131737921Y-78936411D01*
X131848947Y-78873903D01*
X131926635Y-78772105D01*
X131976344Y-78633397D01*
X132204944Y-77649941D01*
X132241853Y-77586837D01*
X132316863Y-77564216D01*
X132401397Y-77591600D01*
X132431163Y-77666609D01*
X132431163Y-78928672D01*
X132709769Y-78928672D01*
X132709769Y-77652322D01*
X132685956Y-77506173D01*
X132614519Y-77391575D01*
X132494266Y-77317459D01*
X132324006Y-77292753D01*
X132170416Y-77313291D01*
X132052544Y-77374906D01*
X131969200Y-77474621D01*
X131919194Y-77609459D01*
X131692975Y-78592916D01*
X131585819Y-78683403D01*
X131478663Y-78592916D01*
X131252444Y-77609459D01*
X131203926Y-77474621D01*
X131125047Y-77374906D01*
X131011045Y-77313291D01*
X130857156Y-77292753D01*
X130686897Y-77317459D01*
X130566644Y-77391575D01*
X130495206Y-77506173D01*
X130471394Y-77652322D01*
X130471394Y-78928672D01*
X130138019Y-78928672D01*
X130138019Y-78647684D01*
X129326012Y-78647684D01*
X129218261Y-78634290D01*
X129142656Y-78594106D01*
X129083125Y-78442897D01*
X129110377Y-78335741D01*
X129192133Y-78271447D01*
X129328394Y-78250016D01*
X129823694Y-78250016D01*
X129823694Y-77995222D01*
X129335537Y-77995222D01*
X129227488Y-77983613D01*
X129150991Y-77948787D01*
X129090269Y-77802341D01*
X129147419Y-77657084D01*
X129222428Y-77616008D01*
X129333156Y-77602316D01*
X130135637Y-77602316D01*
X130135637Y-77321328D01*
X129333156Y-77321328D01*
X129200699Y-77329365D01*
X129089078Y-77353475D01*
X128922391Y-77443962D01*
X128825950Y-77580884D01*
X128794994Y-77752334D01*
X128809579Y-77881815D01*
X128853334Y-77984506D01*
X128925070Y-78063385D01*
X129023594Y-78121428D01*
X128922986Y-78180066D01*
X128849762Y-78260731D01*
X128805114Y-78365804D01*
X128790231Y-78497666D01*
X127349995Y-78497666D01*
X127322367Y-78387373D01*
X127303002Y-78256821D01*
X127296526Y-78125000D01*
X127303002Y-77993179D01*
X127322367Y-77862627D01*
X127354436Y-77734603D01*
X127398899Y-77610338D01*
X127455327Y-77491029D01*
X127523179Y-77377826D01*
X127601799Y-77271819D01*
X127690431Y-77174028D01*
X127788222Y-77085396D01*
X127894229Y-77006776D01*
X128007432Y-76938924D01*
X128126741Y-76882496D01*
X128251006Y-76838033D01*
X128379031Y-76805964D01*
X128509582Y-76786599D01*
X128641403Y-76780123D01*
X128790231Y-76780123D01*
X132709769Y-76780123D01*
G37*
D15*
%TO.C,U5*%
X134450000Y-99575000D02*
X134450000Y-105575000D01*
X129450000Y-99575000D02*
X129450000Y-105575000D01*
D16*
X130145000Y-98460000D02*
G75*
G03*
X130145000Y-98460000I-100000J0D01*
G01*
D14*
%TO.C,R26*%
X129372936Y-113665000D02*
X129827064Y-113665000D01*
X129372936Y-115135000D02*
X129827064Y-115135000D01*
%TO.C,R24*%
X154235000Y-127797936D02*
X154235000Y-128252064D01*
X152765000Y-127797936D02*
X152765000Y-128252064D01*
%TO.C,R4*%
X148877064Y-105835000D02*
X148422936Y-105835000D01*
X148877064Y-104365000D02*
X148422936Y-104365000D01*
D16*
%TO.C,B1*%
X143000000Y-102250000D02*
X145650000Y-102250000D01*
X152350000Y-102250000D02*
X155000000Y-102250000D01*
X155000000Y-102250000D02*
X155000000Y-90250000D01*
X143000000Y-90250000D02*
X143000000Y-102250000D01*
X145650000Y-90250000D02*
X143000000Y-90250000D01*
X155000000Y-90250000D02*
X152350000Y-90250000D01*
D14*
%TO.C,U13*%
X136450000Y-129075000D02*
X136950000Y-129075000D01*
X136450000Y-129575000D02*
X136450000Y-129075000D01*
%TO.C,TP2*%
X161600000Y-128400000D02*
G75*
G03*
X161600000Y-128400000I-700000J0D01*
G01*
%TO.C,C10*%
X127365000Y-104736252D02*
X127365000Y-104213748D01*
X128835000Y-104736252D02*
X128835000Y-104213748D01*
%TO.C,R7*%
X134272936Y-80490000D02*
X134727064Y-80490000D01*
X134272936Y-81960000D02*
X134727064Y-81960000D01*
%TO.C,R12*%
X139335436Y-135690000D02*
X139789564Y-135690000D01*
X139335436Y-137160000D02*
X139789564Y-137160000D01*
%TO.C,C17*%
X148335000Y-138063748D02*
X148335000Y-138586252D01*
X146865000Y-138063748D02*
X146865000Y-138586252D01*
%TO.C,R6*%
X137187258Y-113722500D02*
X136712742Y-113722500D01*
X137187258Y-112677500D02*
X136712742Y-112677500D01*
%TO.C,R14*%
X134415000Y-140377064D02*
X134415000Y-139922936D01*
X135885000Y-140377064D02*
X135885000Y-139922936D01*
%TO.C,R18*%
X135922936Y-134165000D02*
X136377064Y-134165000D01*
X135922936Y-135635000D02*
X136377064Y-135635000D01*
%TO.C,C4*%
X163159420Y-104490000D02*
X163440580Y-104490000D01*
X163159420Y-105510000D02*
X163440580Y-105510000D01*
D15*
%TO.C,U2*%
X152024000Y-133400000D02*
X152024000Y-135000000D01*
X148784000Y-133400000D02*
X148784000Y-135000000D01*
D16*
X149554000Y-131900000D02*
G75*
G03*
X149554000Y-131900000I-100000J0D01*
G01*
D14*
%TO.C,R15*%
X134390000Y-131602064D02*
X134390000Y-131147936D01*
X135860000Y-131602064D02*
X135860000Y-131147936D01*
%TO.C,C25*%
X134411252Y-138160000D02*
X133888748Y-138160000D01*
X134411252Y-136690000D02*
X133888748Y-136690000D01*
%TO.C,R13*%
X139322936Y-127065000D02*
X139777064Y-127065000D01*
X139322936Y-128535000D02*
X139777064Y-128535000D01*
%TO.C,R19*%
X133102064Y-146960000D02*
X128747936Y-146960000D01*
X133102064Y-143540000D02*
X128747936Y-143540000D01*
%TO.C,R5*%
X128897936Y-97115000D02*
X129352064Y-97115000D01*
X128897936Y-98585000D02*
X129352064Y-98585000D01*
%TO.C,R2*%
X161315000Y-101077064D02*
X161315000Y-100622936D01*
X162785000Y-101077064D02*
X162785000Y-100622936D01*
%TO.C,C20*%
X159438748Y-137190000D02*
X160861252Y-137190000D01*
X159438748Y-139010000D02*
X160861252Y-139010000D01*
%TO.C,C5*%
X163159420Y-106015000D02*
X163440580Y-106015000D01*
X163159420Y-107035000D02*
X163440580Y-107035000D01*
%TO.C,L1*%
X149717800Y-136543600D02*
X156982200Y-136543600D01*
X149717800Y-138115860D02*
X149717800Y-136543600D01*
X149717800Y-143706400D02*
X149717800Y-142134140D01*
X156982200Y-136543600D02*
X156982200Y-138115860D01*
X156982200Y-142134140D02*
X156982200Y-143706400D01*
X156982200Y-143706400D02*
X149717800Y-143706400D01*
%TO.C,JP1*%
X145240000Y-145280000D02*
X145240000Y-143280000D01*
X145240000Y-143280000D02*
X141140000Y-143280000D01*
X141140000Y-145280000D02*
X145240000Y-145280000D01*
X141140000Y-143280000D02*
X141140000Y-145280000D01*
%TO.C,C1*%
X160490000Y-116990580D02*
X160490000Y-116709420D01*
X161510000Y-116990580D02*
X161510000Y-116709420D01*
%TO.C,C26*%
X134386252Y-129385000D02*
X133863748Y-129385000D01*
X134386252Y-127915000D02*
X133863748Y-127915000D01*
%TO.C,R10*%
X141565000Y-137452064D02*
X141565000Y-136997936D01*
X143035000Y-137452064D02*
X143035000Y-136997936D01*
%TO.C,C14*%
X152609420Y-115490000D02*
X152890580Y-115490000D01*
X152609420Y-116510000D02*
X152890580Y-116510000D01*
%TO.C,C8*%
X152235000Y-127738748D02*
X152235000Y-128261252D01*
X150765000Y-127738748D02*
X150765000Y-128261252D01*
%TO.C,C7*%
X131311252Y-81910000D02*
X130788748Y-81910000D01*
X131311252Y-80440000D02*
X130788748Y-80440000D01*
%TO.C,C28*%
X132390000Y-131611252D02*
X132390000Y-131088748D01*
X133860000Y-131611252D02*
X133860000Y-131088748D01*
%TO.C,R11*%
X141515000Y-128852064D02*
X141515000Y-128397936D01*
X142985000Y-128852064D02*
X142985000Y-128397936D01*
%TO.C,kibuzzard-630E1258*%
G36*
X160394727Y-79553467D02*
G01*
X160433871Y-79648810D01*
X160394727Y-79741827D01*
X160300546Y-79780585D01*
X160205978Y-79742215D01*
X160167221Y-79648810D01*
X160206366Y-79553467D01*
X160300546Y-79513934D01*
X160394727Y-79553467D01*
G37*
G36*
X158505307Y-79323248D02*
G01*
X158528949Y-79416266D01*
X158551041Y-79545715D01*
X158565381Y-79474596D01*
X158578946Y-79411615D01*
X158598325Y-79331000D01*
X158819241Y-78623291D01*
X159087442Y-78623291D01*
X158668088Y-79758105D01*
X158438644Y-79758105D01*
X158016190Y-78623291D01*
X158281290Y-78623291D01*
X158505307Y-79323248D01*
G37*
G36*
X161126939Y-78620320D02*
G01*
X161216339Y-78646287D01*
X161288858Y-78689566D01*
X161343204Y-78748865D01*
X161378086Y-78822891D01*
X161393503Y-78911646D01*
X161178012Y-78911646D01*
X161133054Y-78824829D01*
X161028409Y-78794598D01*
X160927252Y-78831805D01*
X160888882Y-78929474D01*
X160931128Y-79036444D01*
X160983741Y-79063187D01*
X161057089Y-79072101D01*
X161070267Y-79071326D01*
X161084219Y-79070551D01*
X161084219Y-79268988D01*
X161068716Y-79268213D01*
X161053989Y-79267438D01*
X160971532Y-79278096D01*
X160911749Y-79310071D01*
X160875414Y-79362781D01*
X160863303Y-79435645D01*
X160875027Y-79505020D01*
X160910199Y-79556567D01*
X160966882Y-79588542D01*
X161043137Y-79599200D01*
X161110477Y-79589608D01*
X161163672Y-79560831D01*
X161209793Y-79461224D01*
X161209793Y-79458124D01*
X161433810Y-79458124D01*
X161433810Y-79467426D01*
X161422054Y-79557343D01*
X161386785Y-79634857D01*
X161328003Y-79699969D01*
X161249842Y-79749062D01*
X161156437Y-79778518D01*
X161047787Y-79788336D01*
X160929104Y-79778302D01*
X160828335Y-79748201D01*
X160745480Y-79698032D01*
X160683899Y-79630551D01*
X160646951Y-79548514D01*
X160634634Y-79451923D01*
X160649362Y-79348053D01*
X160693546Y-79261237D01*
X160762727Y-79197093D01*
X160852451Y-79161243D01*
X160774839Y-79132659D01*
X160714087Y-79077914D01*
X160674845Y-79002822D01*
X160661765Y-78913196D01*
X160672530Y-78827068D01*
X160704828Y-78753688D01*
X160758658Y-78693054D01*
X160830833Y-78647837D01*
X160918166Y-78620707D01*
X161020657Y-78611664D01*
X161126939Y-78620320D01*
G37*
G36*
X159666563Y-78620320D02*
G01*
X159755963Y-78646287D01*
X159828482Y-78689566D01*
X159882828Y-78748865D01*
X159917710Y-78822891D01*
X159933127Y-78911646D01*
X159717636Y-78911646D01*
X159672678Y-78824829D01*
X159568033Y-78794598D01*
X159466876Y-78831805D01*
X159428506Y-78929474D01*
X159470752Y-79036444D01*
X159523365Y-79063187D01*
X159596713Y-79072101D01*
X159609891Y-79071326D01*
X159623843Y-79070551D01*
X159623843Y-79268988D01*
X159608340Y-79268213D01*
X159593613Y-79267438D01*
X159511156Y-79278096D01*
X159451373Y-79310071D01*
X159415038Y-79362781D01*
X159402927Y-79435645D01*
X159414651Y-79505020D01*
X159449823Y-79556567D01*
X159506506Y-79588542D01*
X159582761Y-79599200D01*
X159650101Y-79589608D01*
X159703296Y-79560831D01*
X159749417Y-79461224D01*
X159749417Y-79458124D01*
X159973434Y-79458124D01*
X159973434Y-79467426D01*
X159961678Y-79557343D01*
X159926409Y-79634857D01*
X159867627Y-79699969D01*
X159789466Y-79749062D01*
X159696061Y-79778518D01*
X159587411Y-79788336D01*
X159468728Y-79778302D01*
X159367959Y-79748201D01*
X159285104Y-79698032D01*
X159223523Y-79630551D01*
X159186575Y-79548514D01*
X159174258Y-79451923D01*
X159188986Y-79348053D01*
X159233170Y-79261237D01*
X159302351Y-79197093D01*
X159392075Y-79161243D01*
X159314463Y-79132659D01*
X159253711Y-79077914D01*
X159214469Y-79002822D01*
X159201389Y-78913196D01*
X159212154Y-78827068D01*
X159244452Y-78753688D01*
X159298282Y-78693054D01*
X159370457Y-78647837D01*
X159457790Y-78620707D01*
X159560281Y-78611664D01*
X159666563Y-78620320D01*
G37*
%TO.C,TP4*%
X139250000Y-76225000D02*
G75*
G03*
X139250000Y-76225000I-700000J0D01*
G01*
%TO.C,R17*%
X137622936Y-142790000D02*
X138077064Y-142790000D01*
X137622936Y-144260000D02*
X138077064Y-144260000D01*
D15*
%TO.C,U10*%
X134700000Y-95725000D02*
X129400000Y-95725000D01*
X139175000Y-95725000D02*
X138250000Y-95725000D01*
X139175000Y-95725000D02*
X139175000Y-85075000D01*
X135350000Y-83775000D02*
X129400000Y-83775000D01*
D16*
X126800000Y-86375000D02*
G75*
G03*
X126800000Y-86375000I-100000J0D01*
G01*
D14*
%TO.C,C21*%
X159438748Y-140815000D02*
X160861252Y-140815000D01*
X159438748Y-142635000D02*
X160861252Y-142635000D01*
%TO.C,U12*%
X136450000Y-137725000D02*
X136950000Y-137725000D01*
X136450000Y-138225000D02*
X136450000Y-137725000D01*
%TO.C,C15*%
X152063748Y-130190000D02*
X152586252Y-130190000D01*
X152063748Y-131660000D02*
X152586252Y-131660000D01*
%TO.C,R25*%
X148765000Y-128252064D02*
X148765000Y-127797936D01*
X150235000Y-128252064D02*
X150235000Y-127797936D01*
D15*
%TO.C,HD5*%
X167100000Y-149575000D02*
X167100000Y-151850000D01*
X166300000Y-149575000D02*
X167100000Y-149575000D01*
X165900000Y-153825000D02*
X162300000Y-153825000D01*
X161900000Y-149575000D02*
X161100000Y-149575000D01*
X161100000Y-149575000D02*
X161100000Y-151850000D01*
D10*
X166650000Y-148865000D02*
G75*
G03*
X166650000Y-148865000I-100000J0D01*
G01*
D14*
%TO.C,R1*%
X163290000Y-101077064D02*
X163290000Y-100622936D01*
X164760000Y-101077064D02*
X164760000Y-100622936D01*
D15*
%TO.C,HD6*%
X140700000Y-149575000D02*
X140700000Y-151850000D01*
X139900000Y-149575000D02*
X140700000Y-149575000D01*
X139500000Y-153825000D02*
X135900000Y-153825000D01*
X135500000Y-149575000D02*
X134700000Y-149575000D01*
X134700000Y-149575000D02*
X134700000Y-151850000D01*
D10*
X140250000Y-148865000D02*
G75*
G03*
X140250000Y-148865000I-100000J0D01*
G01*
D14*
%TO.C,R8*%
X137212258Y-112172500D02*
X136737742Y-112172500D01*
X137212258Y-111127500D02*
X136737742Y-111127500D01*
%TO.C,C27*%
X132415000Y-140386252D02*
X132415000Y-139863748D01*
X133885000Y-140386252D02*
X133885000Y-139863748D01*
%TO.C,kibuzzard-630E12E2*%
G36*
X160355069Y-126867435D02*
G01*
X160378711Y-126960452D01*
X160400803Y-127089902D01*
X160415143Y-127018782D01*
X160428708Y-126955801D01*
X160448087Y-126875186D01*
X160669003Y-126167477D01*
X160937204Y-126167477D01*
X160517850Y-127302292D01*
X160288406Y-127302292D01*
X159865952Y-126167477D01*
X160131052Y-126167477D01*
X160355069Y-126867435D01*
G37*
G36*
X161789090Y-126768991D02*
G01*
X161735605Y-126802322D01*
X161638712Y-126752325D01*
X161523990Y-126735660D01*
X161420508Y-126749031D01*
X161344156Y-126789145D01*
X161297066Y-126854063D01*
X161281369Y-126941849D01*
X161297453Y-127027212D01*
X161345706Y-127092615D01*
X161422058Y-127134182D01*
X161522440Y-127148038D01*
X161647238Y-127129047D01*
X161710219Y-127101432D01*
X161784439Y-127056570D01*
X161834048Y-127240280D01*
X161760506Y-127281363D01*
X161682507Y-127310043D01*
X161598501Y-127326903D01*
X161506937Y-127332523D01*
X161373439Y-127320637D01*
X161260268Y-127284980D01*
X161167422Y-127225552D01*
X161098521Y-127145798D01*
X161057179Y-127049163D01*
X161043399Y-126935648D01*
X161054682Y-126836170D01*
X161088530Y-126749612D01*
X161144943Y-126675974D01*
X161219185Y-126619991D01*
X161306518Y-126586401D01*
X161406943Y-126575204D01*
X161480194Y-126581018D01*
X161555771Y-126599234D01*
X161500735Y-126369016D01*
X161062778Y-126369016D01*
X161062778Y-126178329D01*
X161648013Y-126178329D01*
X161789090Y-126768991D01*
G37*
%TO.C,R27*%
X129827064Y-113185000D02*
X129372936Y-113185000D01*
X129827064Y-111715000D02*
X129372936Y-111715000D01*
%TD*%
M02*
