%TF.GenerationSoftware,KiCad,Pcbnew,7.0.5*%
%TF.CreationDate,2023-07-17T20:29:58+05:30*%
%TF.ProjectId,Flight_Computer,466c6967-6874-45f4-936f-6d7075746572,rev?*%
%TF.SameCoordinates,Original*%
%TF.FileFunction,Soldermask,Top*%
%TF.FilePolarity,Negative*%
%FSLAX46Y46*%
G04 Gerber Fmt 4.6, Leading zero omitted, Abs format (unit mm)*
G04 Created by KiCad (PCBNEW 7.0.5) date 2023-07-17 20:29:58*
%MOMM*%
%LPD*%
G01*
G04 APERTURE LIST*
G04 Aperture macros list*
%AMRoundRect*
0 Rectangle with rounded corners*
0 $1 Rounding radius*
0 $2 $3 $4 $5 $6 $7 $8 $9 X,Y pos of 4 corners*
0 Add a 4 corners polygon primitive as box body*
4,1,4,$2,$3,$4,$5,$6,$7,$8,$9,$2,$3,0*
0 Add four circle primitives for the rounded corners*
1,1,$1+$1,$2,$3*
1,1,$1+$1,$4,$5*
1,1,$1+$1,$6,$7*
1,1,$1+$1,$8,$9*
0 Add four rect primitives between the rounded corners*
20,1,$1+$1,$2,$3,$4,$5,0*
20,1,$1+$1,$4,$5,$6,$7,0*
20,1,$1+$1,$6,$7,$8,$9,0*
20,1,$1+$1,$8,$9,$2,$3,0*%
G04 Aperture macros list end*
%ADD10R,1.550000X0.600000*%
%ADD11R,1.800000X1.200000*%
%ADD12C,5.600000*%
%ADD13R,1.800000X1.800000*%
%ADD14C,1.800000*%
%ADD15R,1.700000X1.700000*%
%ADD16O,1.700000X1.700000*%
%ADD17C,1.530000*%
%ADD18R,0.400000X0.400000*%
%ADD19R,0.500000X0.300000*%
%ADD20R,0.300000X0.500000*%
%ADD21RoundRect,0.250000X0.250000X0.475000X-0.250000X0.475000X-0.250000X-0.475000X0.250000X-0.475000X0*%
%ADD22RoundRect,0.218750X-0.218750X-0.381250X0.218750X-0.381250X0.218750X0.381250X-0.218750X0.381250X0*%
%ADD23R,0.700000X0.700000*%
%ADD24R,0.250000X0.675000*%
%ADD25R,0.675000X0.250000*%
%ADD26R,1.050000X1.000000*%
%ADD27R,2.200000X1.050000*%
%ADD28RoundRect,0.250000X-0.262500X-0.450000X0.262500X-0.450000X0.262500X0.450000X-0.262500X0.450000X0*%
%ADD29RoundRect,0.150000X-0.625000X0.150000X-0.625000X-0.150000X0.625000X-0.150000X0.625000X0.150000X0*%
%ADD30RoundRect,0.250000X-0.650000X0.350000X-0.650000X-0.350000X0.650000X-0.350000X0.650000X0.350000X0*%
%ADD31R,0.530000X1.310000*%
%ADD32RoundRect,0.250000X-0.250000X-0.475000X0.250000X-0.475000X0.250000X0.475000X-0.250000X0.475000X0*%
%ADD33C,1.000000*%
%ADD34RoundRect,0.225000X-0.250000X0.225000X-0.250000X-0.225000X0.250000X-0.225000X0.250000X0.225000X0*%
%ADD35RoundRect,0.200000X0.700000X0.200000X-0.700000X0.200000X-0.700000X-0.200000X0.700000X-0.200000X0*%
G04 APERTURE END LIST*
D10*
%TO.C,HD4*%
X132100000Y-98600000D03*
X132100000Y-99600000D03*
X132100000Y-100600000D03*
X132100000Y-101600000D03*
D11*
X128225000Y-97300000D03*
X128225000Y-102900000D03*
%TD*%
D12*
%TO.C,H2*%
X171000000Y-73000000D03*
%TD*%
D13*
%TO.C,J3*%
X171000000Y-82250000D03*
D14*
X171000000Y-78750000D03*
%TD*%
D13*
%TO.C,TM1*%
X130927600Y-116702000D03*
D14*
X130927600Y-120202000D03*
%TD*%
D13*
%TO.C,TM2*%
X130927600Y-123702000D03*
D14*
X130927600Y-127202000D03*
%TD*%
D13*
%TO.C,TM8*%
X130927600Y-137702000D03*
D14*
X130927600Y-141202000D03*
%TD*%
D12*
%TO.C,H4*%
X130950000Y-150300000D03*
%TD*%
D13*
%TO.C,TM3*%
X130927600Y-130702000D03*
D14*
X130927600Y-134202000D03*
%TD*%
D15*
%TO.C,M3*%
X152744124Y-147485825D03*
D16*
X152744124Y-150025825D03*
X152744124Y-152565825D03*
%TD*%
D15*
%TO.C,M4*%
X156444124Y-147485825D03*
D16*
X156444124Y-150025825D03*
X156444124Y-152565825D03*
%TD*%
D17*
%TO.C,U3*%
X141380000Y-80030000D03*
X141380000Y-82570000D03*
X141380000Y-85110000D03*
X141380000Y-87650000D03*
X141380000Y-90190000D03*
X141380000Y-92730000D03*
X141380000Y-95270000D03*
X141380000Y-97810000D03*
X141380000Y-100350000D03*
X141380000Y-102890000D03*
X141380000Y-105430000D03*
X141380000Y-107970000D03*
X141380000Y-110510000D03*
X156620000Y-110510000D03*
X156620000Y-107970000D03*
X156620000Y-105430000D03*
X156620000Y-102890000D03*
X156620000Y-100350000D03*
X156620000Y-97810000D03*
X156620000Y-95270000D03*
X156620000Y-92730000D03*
X156620000Y-90190000D03*
X156620000Y-87650000D03*
X156620000Y-85110000D03*
X156620000Y-82570000D03*
X141380000Y-77490000D03*
X156620000Y-80030000D03*
X156620000Y-77490000D03*
%TD*%
D15*
%TO.C,M1*%
X145334124Y-147485825D03*
D16*
X145334124Y-150025825D03*
X145334124Y-152565825D03*
%TD*%
D15*
%TO.C,M2*%
X149034124Y-147485825D03*
D16*
X149034124Y-150025825D03*
X149034124Y-152565825D03*
%TD*%
D12*
%TO.C,H3*%
X170950000Y-150300000D03*
%TD*%
%TO.C,H1*%
X130950000Y-73000000D03*
%TD*%
D18*
%TO.C,U1*%
X162312500Y-116550000D03*
D19*
X162312500Y-117050000D03*
X162312500Y-117550000D03*
D18*
X162312500Y-118050000D03*
D20*
X162825000Y-118062500D03*
X163325000Y-118062500D03*
D18*
X163837500Y-118050000D03*
D19*
X163837500Y-117550000D03*
X163837500Y-117050000D03*
D18*
X163837500Y-116550000D03*
D20*
X163325000Y-116537500D03*
X162825000Y-116537500D03*
%TD*%
D21*
%TO.C,C13*%
X153175000Y-120375000D03*
X151275000Y-120375000D03*
%TD*%
D22*
%TO.C,L2*%
X166662500Y-88475000D03*
X168787500Y-88475000D03*
%TD*%
D10*
%TO.C,HD2*%
X132000000Y-106700000D03*
X132000000Y-107700000D03*
X132000000Y-108700000D03*
X132000000Y-109700000D03*
D11*
X128125000Y-105400000D03*
X128125000Y-111000000D03*
%TD*%
D23*
%TO.C,D1*%
X136732500Y-83875000D03*
X136732500Y-84975000D03*
X138562500Y-84975000D03*
X138562500Y-83875000D03*
%TD*%
D10*
%TO.C,HD1*%
X132170000Y-79500000D03*
X132170000Y-80500000D03*
X132170000Y-81500000D03*
X132170000Y-82500000D03*
D11*
X128295000Y-78200000D03*
X128295000Y-83800000D03*
%TD*%
D24*
%TO.C,U7*%
X153900000Y-118562500D03*
X153400000Y-118562500D03*
X152900000Y-118562500D03*
X152400000Y-118562500D03*
X151900000Y-118562500D03*
X151400000Y-118562500D03*
X150900000Y-118562500D03*
D25*
X150387500Y-117300000D03*
D24*
X150900000Y-116037500D03*
X151400000Y-116037500D03*
X151900000Y-116037500D03*
X152400000Y-116037500D03*
X152900000Y-116037500D03*
X153400000Y-116037500D03*
X153900000Y-116037500D03*
D25*
X154412500Y-117300000D03*
%TD*%
D26*
%TO.C,U6*%
X163375000Y-88425000D03*
D27*
X161850000Y-89900000D03*
X161850000Y-86950000D03*
%TD*%
D28*
%TO.C,R3*%
X170562500Y-89425000D03*
X172387500Y-89425000D03*
%TD*%
D13*
%TO.C,J6*%
X171125000Y-134202000D03*
D14*
X171125000Y-130702000D03*
%TD*%
D13*
%TO.C,J2*%
X171125000Y-120202000D03*
D14*
X171125000Y-116702000D03*
%TD*%
D29*
%TO.C,U9*%
X132300000Y-87900000D03*
X132300000Y-88900000D03*
X132300000Y-89900000D03*
X132300000Y-90900000D03*
X132300000Y-91900000D03*
X132300000Y-92900000D03*
D30*
X128425000Y-86600000D03*
X128425000Y-94200000D03*
%TD*%
D31*
%TO.C,U8*%
X137900000Y-118500000D03*
X139150000Y-118500000D03*
X140400000Y-118500000D03*
X141650000Y-118500000D03*
X141650000Y-116100000D03*
X140400000Y-116100000D03*
X139150000Y-116100000D03*
X137900000Y-116100000D03*
%TD*%
D13*
%TO.C,J4*%
X171125000Y-127202000D03*
D14*
X171125000Y-123702000D03*
%TD*%
D32*
%TO.C,C12*%
X139150000Y-120475000D03*
X141050000Y-120475000D03*
%TD*%
D33*
%TO.C,TP1*%
X171500000Y-111825000D03*
%TD*%
D34*
%TO.C,C2*%
X162325000Y-119325000D03*
X162325000Y-120875000D03*
%TD*%
D35*
%TO.C,U4*%
X171500000Y-107500000D03*
X171500000Y-106400000D03*
X171500000Y-105300000D03*
X171500000Y-104200000D03*
X171500000Y-103100000D03*
X171500000Y-102000000D03*
X171500000Y-100900000D03*
X171500000Y-97900000D03*
X171500000Y-96800000D03*
X171500000Y-95700000D03*
X171500000Y-94600000D03*
X171500000Y-93500000D03*
X159500000Y-93500000D03*
X159500000Y-94600000D03*
X159500000Y-95700000D03*
X159500000Y-96800000D03*
X159500000Y-97900000D03*
X159500000Y-100900000D03*
X159500000Y-102000000D03*
X159500000Y-103100000D03*
X159500000Y-104200000D03*
X159500000Y-105300000D03*
X159500000Y-106400000D03*
X159500000Y-107500000D03*
%TD*%
D32*
%TO.C,C6*%
X170550000Y-87375000D03*
X172450000Y-87375000D03*
%TD*%
D34*
%TO.C,C3*%
X163850000Y-119325000D03*
X163850000Y-120875000D03*
%TD*%
D13*
%TO.C,J1*%
X171125000Y-141202000D03*
D14*
X171125000Y-137702000D03*
%TD*%
M02*
